<?xml version="1.0" encoding="utf-8"?>
<!-- Generator: Adobe Illustrator 17.1.0, SVG Export Plug-In . SVG Version: 6.00 Build 0)  -->
<!DOCTYPE svg PUBLIC "-//W3C//DTD SVG 1.1//EN" "http://www.w3.org/Graphics/SVG/1.1/DTD/svg11.dtd">
<svg version="1.1" id="Layer_1" xmlns="http://www.w3.org/2000/svg" xmlns:xlink="http://www.w3.org/1999/xlink" x="0px" y="0px"
	 viewBox="0 0 825 250" enable-background="new 0 0 825 250" xml:space="preserve">
<g id="black_background" display="none">
	<rect x="246.7" y="637.5" display="inline" fill="#777777" width="825" height="250"/>
</g>
<g id="Layer_1_2_">
	<path fill="#FEC325" d="M375.3,5v13.6l5.5-3.9l5.5,3.9V5H375.3z"/>
	<g>
		<rect x="322.5" y="47.4" fill="#FFFFFF" width="21.8" height="5.5"/>
		<rect x="322.5" y="39.2" fill="#FFFFFF" width="21.8" height="5.5"/>
		<rect x="322.5" y="31" fill="#FFFFFF" width="21.8" height="5.5"/>
		<circle fill="#FFFFFF" cx="317" cy="41.9" r="2.7"/>
		<circle fill="#FFFFFF" cx="317" cy="33.7" r="2.7"/>
		<circle fill="#FFFFFF" cx="317" cy="50.1" r="2.7"/>
	</g>
	<path fill="#FFFFFF" d="M95.3,63.8h-3.1v-3.1h-2.5v3.1h-3.1v2.5h3.1v3.1h2.5v-3.1h3.1 M75.3,63.1V67h5.5c-0.4,2.3-2.5,4.1-5.5,4.1
		c-3.3,0-6-2.8-6-6.1c0-3.3,2.7-6.1,6-6.1c1.5,0,2.8,0.5,3.9,1.5v0l2.8-2.8C80.2,56,78,55,75.3,55c-5.5,0-10,4.5-10,10
		c0,5.5,4.5,10,10,10c5.8,0,9.6-4.1,9.6-9.8c0-0.7-0.1-1.4-0.2-2.1H75.3z"/>
	<g>
		<path fill="#FFFFFF" d="M37.8,7.8c-1.1,0.5-2.3,0.8-3.5,1C35.6,8,36.5,6.9,37,5.4c-1.2,0.7-2.5,1.2-3.8,1.5C32,5.7,30.5,5,28.7,5
			c-3.3,0-6.1,2.7-6.1,6.1c0,0.5,0.1,0.9,0.2,1.4c-5-0.3-9.5-2.7-12.5-6.3C9.8,7,9.5,8,9.5,9.2c0,2.1,1.1,4,2.7,5
			c-1,0-1.9-0.3-2.7-0.8c0,0,0,0.1,0,0.1c0,2.9,2.1,5.4,4.9,5.9c-0.5,0.1-1,0.2-1.6,0.2c-0.4,0-0.8,0-1.1-0.1c0.8,2.4,3,4.2,5.7,4.2
			c-2.1,1.6-4.7,2.6-7.5,2.6c-0.5,0-1,0-1.4-0.1C11,28,14.2,29,17.6,29c11.1,0,17.2-9.2,17.2-17.2c0-0.3,0-0.5,0-0.8
			C36,10.1,37,9.1,37.8,7.8L37.8,7.8z"/>
	</g>
	<path fill="#FFFFFF" d="M163.3,15.5h-3.8v-3.8h-3v3.8h-3.8v3h3.8v3.8h3v-3.8h3.8 M139.3,14.8v4.7h6.5c-0.5,2.8-2.9,4.9-6.5,4.9
		c-4,0-7.2-3.4-7.2-7.3s3.2-7.3,7.2-7.3c1.8,0,3.4,0.6,4.6,1.8v0l3.4-3.4c-2.1-1.9-4.8-3.1-8-3.1c-6.6,0-12,5.4-12,12s5.4,12,12,12
		c6.9,0,11.5-4.9,11.5-11.7c0-0.9-0.1-1.7-0.2-2.5L139.3,14.8L139.3,14.8z"/>
	<g>
		<path fill="#FFFFFF" d="M50.3,5c-6.6,0-12,5.4-12,12c0,5.1,3.2,9.4,7.6,11.2c-0.1-0.9-0.2-2.4,0-3.4c0.2-0.9,1.4-6,1.4-6
			S47,18.1,47,17c0-1.7,1-2.9,2.2-2.9c1,0,1.5,0.8,1.5,1.7c0,1-0.7,2.6-1,4c-0.3,1.2,0.6,2.2,1.8,2.2c2.1,0,3.8-2.2,3.8-5.5
			c0-2.9-2.1-4.9-5-4.9c-3.4,0-5.4,2.6-5.4,5.2c0,1,0.4,2.1,0.9,2.7c0.1,0.1,0.1,0.2,0.1,0.3c-0.1,0.4-0.3,1.2-0.3,1.4
			c-0.1,0.2-0.2,0.3-0.4,0.2c-1.5-0.7-2.4-2.9-2.4-4.6c0-3.8,2.8-7.3,7.9-7.3c4.2,0,7.4,3,7.4,6.9c0,4.1-2.6,7.5-6.2,7.5
			c-1.2,0-2.4-0.6-2.8-1.4c0,0-0.6,2.3-0.7,2.9c-0.3,1-1,2.4-1.5,3.1c1.1,0.3,2.3,0.5,3.6,0.5c6.6,0,12-5.4,12-12S56.9,5,50.3,5z"/>
	</g>
	<g>
		<path fill="#FFFFFF" d="M125,6.3C124.1,5.4,123,5,121.8,5h-15c-1.2,0-2.3,0.4-3.2,1.3c-0.9,0.9-1.3,1.9-1.3,3.2v15
			c0,1.2,0.4,2.3,1.3,3.2s1.9,1.3,3.2,1.3h15c1.2,0,2.3-0.4,3.2-1.3c0.9-0.9,1.3-1.9,1.3-3.2v-15C126.3,8.3,125.8,7.2,125,6.3
			L125,6.3z M112.2,19.3c-0.6,0.6-1.4,1-2.3,1s-1.7-0.3-2.3-1c-0.6-0.6-1-1.4-1-2.3c0-0.9,0.3-1.7,1-2.3s1.4-1,2.3-1s1.7,0.3,2.3,1
			c0.6,0.6,1,1.4,1,2.3C113.2,17.9,112.9,18.7,112.2,19.3L112.2,19.3z M121,19.3c-0.6,0.6-1.4,1-2.3,1s-1.7-0.3-2.3-1
			c-0.6-0.6-1-1.4-1-2.3c0-0.9,0.3-1.7,1-2.3s1.4-1,2.3-1s1.7,0.3,2.3,1c0.6,0.6,1,1.4,1,2.3C122,17.9,121.7,18.7,121,19.3L121,19.3
			z"/>
	</g>
	<g>
		<path fill="#FFFFFF" d="M211.9,16.4c-0.1,0.1-0.2,0.1-0.3,0.2V7.3c0-1.3-1-2.3-2.2-2.3h-16.8c-1.2,0-2.2,1-2.2,2.3v9.3
			c-0.1-0.1-0.2-0.1-0.3-0.2c-0.7-0.5-1.2,0.2-0.7,0.8c0.9,1,2.5,2.4,5,3.4c-2.6,9,6.4,10.4,6.3,5.8c0,0.1,0-2.6,0-4.5
			c0.2,0.1,0.4,0.1,0.6,0.2c0,1.9,0,4.5,0,4.4c-0.1,4.6,8.9,3.2,6.3-5.8c2.5-1,4.1-2.3,5-3.4C213.1,16.6,212.6,15.9,211.9,16.4
			L211.9,16.4z M203,18.7c-1.1-0.1-1.5,0.4-1.6,1.2c-0.3-0.2-0.5-0.4-0.8-0.7c0,0-0.1-0.1-0.1-0.1c-0.2-0.3-0.6-0.4-1.3-0.4
			c-1.5,0-4.2,0.3-7.4-1.3v-9c0-1.6,0.4-2.1,1.9-2.1h14.9c1.4,0,1.9,0.6,1.9,2.1v8.9C207.3,19.1,204.5,18.8,203,18.7L203,18.7z"/>
		<path fill="#FFFFFF" d="M204.6,12.2c-1.6,0-2.9,1.2-2.9,2.7c0,1.5,1.3,2.7,2.9,2.7c1.6,0,2.9-1.2,2.9-2.7
			C207.5,13.4,206.2,12.2,204.6,12.2L204.6,12.2z"/>
		<path fill="#FFFFFF" d="M200.7,14.9c0,1.5-1.3,2.7-2.9,2.7c-1.6,0-2.9-1.2-2.9-2.7c0-1.5,1.3-2.7,2.9-2.7
			C199.5,12.2,200.7,13.4,200.7,14.9L200.7,14.9z"/>
	</g>
	<path fill="#FFFFFF" d="M71.4,29V18.1H75l0.5-4.3h-4.2v-2.7c0-1.2,0.3-2.1,2.1-2.1h2.3V5.2C75.4,5.1,74,5,72.5,5
		C69.2,5,67,7,67,10.6v3.1h-3.7v4.3H67V29H71.4z"/>
	<g>
		<path fill="#FFFFFF" d="M174.1,19.6c1.8-0.9,3.6-1.9,5.4-2.8c-1.8-0.9-3.6-1.9-5.4-2.8V19.6z"/>
		<path fill="#FFFFFF" d="M176.3,5c-6.6,0-12,5.4-12,12c0,6.6,5.4,12,12,12c6.6,0,12-5.4,12-12C188.3,10.4,182.9,5,176.3,5L176.3,5z
			 M184.5,21c-0.2,0.9-0.9,1.6-1.8,1.7c-2.1,0.2-4.2,0.2-6.3,0.2c-2.1,0-4.2,0-6.3-0.2c-0.9-0.1-1.6-0.8-1.8-1.7
			c-0.3-1.3-0.3-2.7-0.3-4c0-1.3,0-2.7,0.3-4c0.2-0.9,0.9-1.6,1.8-1.7c2.1-0.2,4.2-0.2,6.3-0.2c2.1,0,4.2,0,6.3,0.2
			c0.9,0.1,1.6,0.8,1.8,1.7c0.3,1.3,0.3,2.7,0.3,4C184.8,18.3,184.8,19.7,184.5,21L184.5,21z"/>
	</g>
	<g>
		<path fill="#FEC325" d="M37.8,32.8c-1.1,0.5-2.3,0.8-3.5,1c1.3-0.8,2.2-1.9,2.7-3.4c-1.2,0.7-2.5,1.2-3.8,1.5
			C32,30.7,30.5,30,28.7,30c-3.3,0-6.1,2.7-6.1,6.1c0,0.5,0.1,0.9,0.2,1.4c-5-0.3-9.5-2.7-12.5-6.3c-0.5,0.9-0.8,1.9-0.8,3
			c0,2.1,1.1,4,2.7,5c-1,0-1.9-0.3-2.7-0.8c0,0,0,0.1,0,0.1c0,2.9,2.1,5.4,4.9,5.9c-0.5,0.1-1,0.2-1.6,0.2c-0.4,0-0.8,0-1.1-0.1
			c0.8,2.4,3,4.2,5.7,4.2c-2.1,1.6-4.7,2.6-7.5,2.6c-0.5,0-1,0-1.4-0.1C11,53,14.2,54,17.6,54c11.1,0,17.2-9.2,17.2-17.2
			c0-0.3,0-0.5,0-0.8C36,35.1,37,34.1,37.8,32.8L37.8,32.8z"/>
	</g>
	<path fill="#FEC325" d="M163.3,40.5h-3.8v-3.8h-3v3.8h-3.8v3h3.8v3.8h3v-3.8h3.8 M139.3,39.8v4.7h6.5c-0.5,2.8-2.9,4.9-6.5,4.9
		c-4,0-7.2-3.4-7.2-7.3c0-4,3.2-7.3,7.2-7.3c1.8,0,3.4,0.6,4.6,1.8v0l3.4-3.4c-2.1-1.9-4.8-3.1-8-3.1c-6.6,0-12,5.4-12,12
		s5.4,12,12,12c6.9,0,11.5-4.9,11.5-11.7c0-0.9-0.1-1.7-0.2-2.5L139.3,39.8L139.3,39.8z"/>
	<g>
		<path fill="#FEC325" d="M50.3,30c-6.6,0-12,5.4-12,12c0,5.1,3.2,9.4,7.6,11.2c-0.1-0.9-0.2-2.4,0-3.4c0.2-0.9,1.4-6,1.4-6
			S47,43.1,47,42c0-1.7,1-2.9,2.2-2.9c1,0,1.5,0.8,1.5,1.7c0,1-0.7,2.6-1,4c-0.3,1.2,0.6,2.2,1.8,2.2c2.1,0,3.8-2.2,3.8-5.5
			c0-2.9-2.1-4.9-5-4.9c-3.4,0-5.4,2.6-5.4,5.2c0,1,0.4,2.1,0.9,2.7c0.1,0.1,0.1,0.2,0.1,0.3c-0.1,0.4-0.3,1.2-0.3,1.4
			c-0.1,0.2-0.2,0.3-0.4,0.2c-1.5-0.7-2.4-2.9-2.4-4.6c0-3.8,2.8-7.3,7.9-7.3c4.2,0,7.4,3,7.4,6.9c0,4.1-2.6,7.5-6.2,7.5
			c-1.2,0-2.4-0.6-2.8-1.4c0,0-0.6,2.3-0.7,2.9c-0.3,1-1,2.4-1.5,3.1c1.1,0.3,2.3,0.5,3.6,0.5c6.6,0,12-5.4,12-12S56.9,30,50.3,30z"
			/>
	</g>
	<g>
		<path fill="#FEC325" d="M125,31.3c-0.9-0.9-1.9-1.3-3.2-1.3h-15c-1.2,0-2.3,0.4-3.2,1.3c-0.9,0.9-1.3,1.9-1.3,3.2v15
			c0,1.2,0.4,2.3,1.3,3.2s1.9,1.3,3.2,1.3h15c1.2,0,2.3-0.4,3.2-1.3c0.9-0.9,1.3-1.9,1.3-3.2v-15C126.3,33.3,125.8,32.2,125,31.3
			L125,31.3z M112.2,44.3c-0.6,0.6-1.4,1-2.3,1s-1.7-0.3-2.3-1c-0.6-0.6-1-1.4-1-2.3c0-0.9,0.3-1.7,1-2.3s1.4-1,2.3-1s1.7,0.3,2.3,1
			c0.6,0.6,1,1.4,1,2.3C113.2,42.9,112.9,43.7,112.2,44.3L112.2,44.3z M121,44.3c-0.6,0.6-1.4,1-2.3,1s-1.7-0.3-2.3-1
			c-0.6-0.6-1-1.4-1-2.3c0-0.9,0.3-1.7,1-2.3s1.4-1,2.3-1s1.7,0.3,2.3,1c0.6,0.6,1,1.4,1,2.3C122,42.9,121.7,43.7,121,44.3L121,44.3
			z"/>
	</g>
	<g>
		<path fill="#FEC325" d="M211.9,41.4c-0.1,0.1-0.2,0.1-0.3,0.2v-9.3c0-1.3-1-2.3-2.2-2.3h-16.8c-1.2,0-2.2,1-2.2,2.3v9.3
			c-0.1-0.1-0.2-0.1-0.3-0.2c-0.7-0.5-1.2,0.2-0.7,0.8c0.9,1,2.5,2.4,5,3.4c-2.6,9,6.4,10.4,6.3,5.8c0,0.1,0-2.6,0-4.5
			c0.2,0.1,0.4,0.1,0.6,0.2c0,1.9,0,4.5,0,4.4c-0.1,4.6,8.9,3.2,6.3-5.8c2.5-1,4.1-2.3,5-3.4C213.1,41.6,212.6,40.9,211.9,41.4
			L211.9,41.4z M203,43.7c-1.1-0.1-1.5,0.4-1.6,1.2c-0.3-0.2-0.5-0.4-0.8-0.7c0,0-0.1-0.1-0.1-0.1c-0.2-0.3-0.6-0.4-1.3-0.4
			c-1.5,0-4.2,0.3-7.4-1.3v-9c0-1.6,0.4-2.1,1.9-2.1h14.9c1.4,0,1.9,0.6,1.9,2.1v8.9C207.3,44.1,204.5,43.8,203,43.7L203,43.7z"/>
		<path fill="#FEC325" d="M204.6,37.2c-1.6,0-2.9,1.2-2.9,2.7c0,1.5,1.3,2.7,2.9,2.7c1.6,0,2.9-1.2,2.9-2.7
			C207.5,38.4,206.2,37.2,204.6,37.2L204.6,37.2z"/>
		<path fill="#FEC325" d="M200.7,39.9c0,1.5-1.3,2.7-2.9,2.7c-1.6,0-2.9-1.2-2.9-2.7c0-1.5,1.3-2.7,2.9-2.7
			C199.5,37.2,200.7,38.4,200.7,39.9L200.7,39.9z"/>
	</g>
	<path fill="#FEC325" d="M71.4,54V43.1H75l0.5-4.3h-4.2v-2.7c0-1.2,0.3-2.1,2.1-2.1h2.3v-3.8c-0.4,0-1.7-0.2-3.3-0.2
		c-3.3,0-5.5,2-5.5,5.6v3.1h-3.7v4.3H67V54H71.4z"/>
	<g>
		<path fill="#FEC325" d="M174.1,44.6c1.8-0.9,3.6-1.9,5.4-2.8c-1.8-0.9-3.6-1.9-5.4-2.8V44.6z"/>
		<path fill="#FEC325" d="M176.3,30c-6.6,0-12,5.4-12,12c0,6.6,5.4,12,12,12c6.6,0,12-5.4,12-12C188.3,35.4,182.9,30,176.3,30
			L176.3,30z M184.5,46c-0.2,0.9-0.9,1.6-1.8,1.7c-2.1,0.2-4.2,0.2-6.3,0.2c-2.1,0-4.2,0-6.3-0.2c-0.9-0.1-1.6-0.8-1.8-1.7
			c-0.3-1.3-0.3-2.7-0.3-4c0-1.3,0-2.7,0.3-4c0.2-0.9,0.9-1.6,1.8-1.7c2.1-0.2,4.2-0.2,6.3-0.2c2.1,0,4.2,0,6.3,0.2
			c0.9,0.1,1.6,0.8,1.8,1.7c0.3,1.3,0.3,2.7,0.3,4C184.8,43.3,184.8,44.7,184.5,46L184.5,46z"/>
	</g>
	<g>
		<path fill="#FFFFFF" d="M237.5,25c0.6,0,1.1-0.2,1.5-0.6l-7.2-7.2c-0.2,0.1-0.3,0.2-0.5,0.4c-0.5,0.4-1,0.7-1.3,0.9
			c-0.3,0.2-0.8,0.4-1.4,0.7c-0.6,0.2-1.1,0.3-1.6,0.3h0c-0.5,0-1-0.1-1.6-0.3c-0.6-0.2-1-0.5-1.3-0.7c-0.3-0.2-0.8-0.5-1.3-0.9
			c-0.1-0.1-0.3-0.2-0.5-0.4l-7.2,7.2c0.4,0.4,0.9,0.6,1.5,0.6H237.5z"/>
		<path fill="#FFFFFF" d="M215.7,12.7c-0.5-0.4-1-0.8-1.4-1.2v11l6.4-6.4C219.4,15.2,217.7,14.1,215.7,12.7L215.7,12.7z"/>
		<path fill="#FFFFFF" d="M238.3,12.7c-1.9,1.3-3.6,2.4-4.9,3.4l6.4,6.4v-11C239.3,11.9,238.9,12.3,238.3,12.7L238.3,12.7z"/>
		<path fill="#FFFFFF" d="M237.5,5h-20.9c-0.7,0-1.3,0.2-1.7,0.7c-0.4,0.5-0.6,1.1-0.6,1.8c0,0.6,0.3,1.2,0.8,1.9
			c0.5,0.7,1.1,1.2,1.7,1.6c0.3,0.2,1.3,0.9,2.9,2c0.9,0.6,1.6,1.1,2.3,1.6c0.6,0.4,1,0.7,1.4,1c0,0,0.1,0.1,0.2,0.1
			c0.1,0.1,0.2,0.2,0.4,0.3c0.3,0.2,0.6,0.4,0.8,0.5c0.2,0.1,0.5,0.3,0.7,0.5c0.3,0.2,0.6,0.3,0.8,0.4c0.3,0.1,0.5,0.1,0.7,0.1h0
			c0.2,0,0.5,0,0.7-0.1c0.3-0.1,0.5-0.2,0.8-0.4c0.3-0.2,0.5-0.3,0.7-0.5c0.2-0.1,0.5-0.3,0.8-0.5c0.1-0.1,0.3-0.2,0.4-0.3
			c0.1-0.1,0.2-0.1,0.2-0.1c0.3-0.2,0.8-0.5,1.4-1c1.2-0.8,2.9-2,5.2-3.6c0.7-0.5,1.3-1.1,1.7-1.7c0.5-0.7,0.7-1.4,0.7-2.1
			c0-0.6-0.2-1.2-0.7-1.6C238.6,5.2,238.1,5,237.5,5L237.5,5z"/>
	</g>
	<g>
		<path fill="#FFFFFF" d="M463.3,5l4,4l4-4H463.3z"/>
	</g>
	<g>
		<g>
			<rect x="241.3" y="5" fill="#FFFFFF" width="25" height="4"/>
			<rect x="241.3" y="13" fill="#FFFFFF" width="25" height="4"/>
			<rect x="241.3" y="21" fill="#FFFFFF" width="25" height="4"/>
		</g>
	</g>
	<g>
		
			<rect x="290.1" y="13.3" transform="matrix(-0.7071 0.7071 -0.7071 -0.7071 527.2917 -187.8652)" fill="#FFFFFF" width="25" height="4"/>
		
			<rect x="290" y="13.2" transform="matrix(-0.7071 -0.7071 0.7071 -0.7071 505.6798 239.9548)" fill="#FFFFFF" width="25" height="4"/>
	</g>
	<g>
		<rect x="290.1" y="38.3" transform="matrix(-0.7071 0.7071 -0.7071 -0.7071 544.9689 -145.187)" width="25" height="4"/>
		<rect x="290" y="38.2" transform="matrix(-0.7071 -0.7071 0.7071 -0.7071 488.0025 282.6323)" width="25" height="4"/>
	</g>
	<g>
		<g>
			<path fill="#FFFFFF" d="M321,12.7v4.6h-3.3v-4.6h-4.4V9.6h4.4V5h3.3v4.6h4.4v3.1L321,12.7L321,12.7z"/>
		</g>
	</g>
	<g>
		<path fill="#FFFFFF" d="M326.3,8.3V5h12.1v3.3H326.3z"/>
	</g>
	<g>
		<g>
			<path d="M321,25.7v4.6h-3.3v-4.6h-4.4v-3.1h4.4V18h3.3v4.6h4.4v3.1L321,25.7L321,25.7z"/>
		</g>
	</g>
	<g>
		<path d="M326.3,21.3V18h12.1v3.3H326.3z"/>
	</g>
	<g>
		<path fill="#FFFFFF" d="M239.3,30c-13.8,0-25,11.2-25,25c0,13.8,11.2,25,25,25c13.8,0,25-11.2,25-25C264.3,41.2,253.1,30,239.3,30
			L239.3,30z M239.3,75.3c-11.2,0-20.3-9.1-20.3-20.3c0-11.2,9.1-20.3,20.3-20.3c11.2,0,20.3,9.1,20.3,20.3
			C259.6,66.2,250.5,75.3,239.3,75.3L239.3,75.3z M232.7,44.1L251.5,55l-18.8,10.9V44.1z"/>
	</g>
	<g>
		<path fill="#FEC325" d="M457.3,15h-2.9l4-4h-8.1V9h8.1l-4-4h2.9l5.1,5.1L457.3,15z"/>
	</g>
	<g>
		<path d="M457.3,28h-2.9l4-4h-8.1v-2h8.1l-4-4h2.9l5.1,5.1L457.3,28z"/>
	</g>
	<g>
		<path fill="#83847A" d="M457.3,41h-2.9l4-4h-8.1v-2h8.1l-4-4h2.9l5.1,5.1L457.3,41z"/>
	</g>
	<g>
		<path fill="#FFFFFF" d="M348.6,23l-9.3-9l9.3-9l0.5,0.5l-8.8,8.5l8.8,8.5L348.6,23z"/>
	</g>
	<g>
		<path fill="#FFFFFF" d="M350.3,22.5L359,14l-8.8-8.5l0.5-0.5l9.3,9l-9.3,9L350.3,22.5z"/>
	</g>
	<g>
		<path fill="#FEC325" d="M427.3,5c-3.9,0-7,3.1-7,7s3.1,7,7,7s7-3.1,7-7S431.1,5,427.3,5L427.3,5z M428.3,17.7v-3.6h-2v3.6
			c-2-0.3-4.4-2.6-4.7-4.6h2.7v-2h-2.7c0.3-2,2.7-4.5,4.7-4.7v2.7h2V6.3c2,0.3,4.4,2.7,4.7,4.7h-2.7v2h2.7
			C432.7,15.1,430.3,17.4,428.3,17.7L428.3,17.7z"/>
	</g>
	<g>
		<path fill="#FEC325" d="M416.3,5h-10c-1.7,0-3,1.4-3,3v6c0,1.7,1.3,3,3,3h10c1.6,0,3-1.3,3-3V8C419.3,6.4,417.9,5,416.3,5L416.3,5
			z M409.3,15V7l5,4L409.3,15z"/>
	</g>
	<g>
		<path fill="#FEC325" d="M401.8,7.4c-0.4-0.4-0.8-0.3-1.3-0.3h-1.8l-0.4-1.3c-0.1-0.3-0.3-0.4-0.5-0.5c-0.3-0.2-0.5-0.2-0.8-0.2h-4
			c-0.3,0-0.5-0.2-0.8,0c-0.3,0.2-0.4,0.5-0.5,0.8l-0.4,1.2h-1.8c-0.6,0-1.1-0.1-1.5,0.3c-0.4,0.4-0.7,0.6-0.7,1.2v7
			c0,0.6,0.3,1.3,0.7,1.7c0.4,0.4,0.9,0.8,1.5,0.8h11c0.6,0,0.9-0.4,1.3-0.8c0.4-0.4,0.5-1.1,0.5-1.7v-7
			C402.3,8,402.2,7.8,401.8,7.4L401.8,7.4z M397.4,14.5c-0.7,0.7-1.5,1-2.5,1c-1,0-1.8-0.3-2.5-1c-0.7-0.7-1-1.5-1-2.5
			c0-1,0.3-1.8,1-2.5c0.7-0.7,1.5-1,2.5-1c1,0,1.8,0.3,2.5,1c0.7,0.7,1,1.5,1,2.5C398.4,13,398.1,13.9,397.4,14.5L397.4,14.5z"/>
		<path fill="#FEC325" d="M394.9,9.8c-0.6,0-1.1,0.2-1.6,0.7c-0.4,0.4-0.7,1-0.7,1.6c0,0.6,0.2,1.1,0.7,1.6c0.4,0.4,1,0.7,1.6,0.7
			c0.6,0,1.1-0.2,1.6-0.7c0.4-0.4,0.7-1,0.7-1.6c0-0.6-0.2-1.2-0.7-1.6C396.1,10,395.6,9.8,394.9,9.8L394.9,9.8z"/>
	</g>
	<polygon fill="#FEC325" points="367.6,5 369.4,10.4 375,10.4 370.5,13.8 372.2,19.3 367.6,16 363.1,19.3 364.8,13.8 360.3,10.4 
		365.9,10.4 	"/>
	<g>
		<path fill="#FEC325" d="M443.5,17h-3.4l4.8-4.8h-9.6V9.8h9.6L440.1,5h3.4l6,6L443.5,17z"/>
	</g>
	<path fill="#FFFFFF" d="M291.3,24l-5.2-3.8c0.9-1.5,1.4-3.2,1.4-5.1C287.5,9.5,283,5,277.4,5c-5.6,0-10.1,4.5-10.1,10.1
		s4.5,10.1,10.1,10.1c2.8,0,5.3-1.1,7.1-2.9l5.2,3.8L291.3,24z M277.4,22.6c-4.1,0-7.5-3.4-7.5-7.5c0-4.1,3.4-7.5,7.5-7.5
		c4.1,0,7.5,3.4,7.5,7.5S281.5,22.6,277.4,22.6z"/>
	<path d="M291.3,49l-5.2-3.8c0.9-1.5,1.4-3.2,1.4-5.1c0-5.6-4.5-10.1-10.1-10.1c-5.6,0-10.1,4.5-10.1,10.1s4.5,10.1,10.1,10.1
		c2.8,0,5.3-1.1,7.1-2.9l5.2,3.8L291.3,49z M277.4,47.6c-4.1,0-7.5-3.4-7.5-7.5c0-4.1,3.4-7.5,7.5-7.5c4.1,0,7.5,3.4,7.5,7.5
		S281.5,47.6,277.4,47.6z"/>
	<g>
		<path fill="#FEC325" d="M724.3,105c-27.6,0-50-22.4-50-50s22.4-50,50-50s50,22.4,50,50S751.9,105,724.3,105z M724.3,8
			c-25.9,0-47,21.1-47,47s21.1,47,47,47s47-21.1,47-47S750.2,8,724.3,8z"/>
		<path fill="#FEC325" d="M724.2,30c-13.8,0.1-24.9,11.3-24.9,25.1c0.1,13.8,11.3,24.9,25.1,24.9c13.8-0.1,24.9-11.3,24.9-25.1
			C749.2,41.1,738,29.9,724.2,30L724.2,30z M724.4,75.9c-11.6,0.1-21-9.3-21-20.8c-0.1-11.6,9.3-21,20.8-21c11.6-0.1,21,9.3,21,20.8
			C745.3,66.4,736,75.9,724.4,75.9L724.4,75.9z M728.1,65.9L728,47.3l-9.6,0.1l0,4.1l2.6,0l0.1,14.6l-2.8,0l0,3.9l12.1-0.1l0-3.9
			L728.1,65.9z M724.4,44.5c2.4,0,3.8-1.6,3.8-3.5c-0.1-2-1.4-3.5-3.7-3.5c-2.3,0-3.7,1.6-3.7,3.5C720.8,42.9,722.2,44.5,724.4,44.5
			L724.4,44.5z"/>
	</g>
	<g>
		<path fill="#FEC325" d="M623.3,105c-27.6,0-50-22.4-50-50s22.4-50,50-50s50,22.4,50,50S650.9,105,623.3,105z M623.3,8
			c-25.9,0-47,21.1-47,47s21.1,47,47,47s47-21.1,47-47S649.2,8,623.3,8z"/>
		<g>
			<path fill="#FEC325" d="M648.3,37.8c-0.3-0.5-0.8-0.8-1.3-0.9L618.4,30c-0.9-0.2-1.9,0.3-2.2,1.2L605.3,59l3.6,1.3L619.2,34
				l24.8,6.3c-1.6,4.8-5.2,14.9-8.8,24.2c-3.1,8.2-4.9,10.9-8.2,11.5c0,0,0,0,0,0c-6.9,1-6.8-7.8-6.8-7.8l-22-8.9
				c-1.6,9.9,6.1,12.3,6.1,12.3l16.1,7.3c0,0,2.5,1.2,5.3,1.1c7.4-0.2,10-5.5,13.2-14.1c4.7-12.4,9.5-26.3,9.5-26.5
				C648.6,38.9,648.5,38.3,648.3,37.8L648.3,37.8z"/>
			<path fill="#FEC325" d="M635.2,49c0.2,0,0.3,0.1,0.5,0.1c0.8,0,1.6-0.6,1.9-1.4c0.3-1-0.3-2.1-1.4-2.4l-8.4-2.6
				c-1-0.3-2.1,0.3-2.4,1.4c-0.3,1,0.3,2.1,1.4,2.4L635.2,49z"/>
			<path fill="#FEC325" d="M622.1,51.8c-0.3,1,0.2,2.1,1.2,2.5l8.3,3c0.2,0.1,0.4,0.1,0.6,0.1c0.8,0,1.6-0.5,1.8-1.3
				c0.3-1-0.2-2.1-1.2-2.4l-8.3-3C623.5,50.2,622.4,50.8,622.1,51.8L622.1,51.8z"/>
			<path fill="#FEC325" d="M621.4,58.7c-1-0.3-2.1,0.2-2.4,1.2c-0.3,1,0.2,2.1,1.2,2.4l8.4,3c0.2,0.1,0.4,0.1,0.6,0.1
				c0.8,0,1.6-0.5,1.8-1.3c0.3-1-0.2-2.1-1.2-2.4L621.4,58.7z"/>
			<path fill="#FEC325" d="M621.1,40.4c1.2,0,2.1,0.9,2.1,2.1c0,1.2-1,2.1-2.1,2.1c-1.2,0-2.1-0.9-2.1-2.1
				C618.9,41.4,619.9,40.4,621.1,40.4L621.1,40.4z"/>
			<path fill="#FEC325" d="M618,48.2c1.2,0,2.1,0.9,2.1,2.1c0,1.2-1,2.1-2.1,2.1c-1.2,0-2.1-0.9-2.1-2.1
				C615.9,49.1,616.8,48.2,618,48.2L618,48.2z"/>
			<path fill="#FEC325" d="M614.8,56.2c1.2,0,2.1,0.9,2.1,2.1c0,1.2-1,2.1-2.1,2.1s-2.1-0.9-2.1-2.1
				C612.6,57.1,613.6,56.2,614.8,56.2L614.8,56.2z"/>
		</g>
	</g>
	<g>
		<g>
			<path d="M67,155v7.8h-1.9V155h-2.8v-1.9h7.5v1.9H67z"/>
			<path d="M77.3,162.8v-4.1h-4v4.1h-1.9v-9.7h1.9v3.7h4v-3.7h1.9v9.7H77.3z"/>
			<path d="M81.6,162.8v-9.7h6.7v1.9h-4.8v1.7h2.8v1.9h-2.8v2.3h5v1.9L81.6,162.8L81.6,162.8z"/>
			<path d="M98.3,162.9c-2.5,0-4.3-1.9-4.3-5c0-3.1,1.8-5,4.3-5c2.5,0,4.3,1.9,4.3,5C102.6,161,100.9,162.9,98.3,162.9z M98.3,154.9
				c-1.4,0-2.3,1.1-2.3,3.1c0,2,0.9,3.1,2.3,3.1s2.3-1.1,2.3-3.1C100.6,156,99.7,154.9,98.3,154.9z"/>
			<path d="M106.4,155v1.8h2.9v1.9h-2.9v4.1h-1.9v-9.7h6.9v1.9H106.4z"/>
			<path d="M114.9,155v1.8h2.9v1.9h-2.9v4.1h-1.9v-9.7h6.9v1.9H114.9z"/>
			<path d="M121.4,162.8v-9.7h1.9v9.7H121.4z"/>
			<path d="M131.3,155.9c-0.3-0.7-0.9-1.1-1.8-1.1c-1.5,0-2.3,1.3-2.3,3.1c0,1.7,0.8,3.1,2.3,3.1c0.9,0,1.4-0.4,1.9-1.2l1.6,1
				c-0.7,1.4-1.8,2.2-3.6,2.2c-2.5,0-4.2-1.9-4.2-5c0-3,1.8-5,4.3-5c1.8,0,2.9,0.9,3.5,2.1L131.3,155.9z"/>
			<path d="M134.9,162.8v-9.7h1.9v9.7H134.9z"/>
			<path d="M145.5,162.8l-0.8-2.2h-3.5l-0.8,2.2h-2.1l3.7-9.7h1.9l3.7,9.7H145.5z M143.5,157c-0.2-0.6-0.4-1.2-0.5-1.5
				c-0.1,0.4-0.3,0.9-0.5,1.5l-0.6,1.8h2.2L143.5,157z"/>
			<path d="M149.2,162.8v-9.7h1.9v7.8h4.9v1.9H149.2z"/>
			<path d="M163.8,155v1.8h2.9v1.9h-2.9v4.1h-1.9v-9.7h6.9v1.9H163.8z"/>
			<path d="M174,162.9c-2.5,0-4.3-1.9-4.3-5c0-3.1,1.8-5,4.3-5c2.5,0,4.3,1.9,4.3,5C178.3,161,176.5,162.9,174,162.9z M174,154.9
				c-1.4,0-2.3,1.1-2.3,3.1c0,2,0.9,3.1,2.3,3.1s2.3-1.1,2.3-3.1C176.3,156,175.3,154.9,174,154.9z"/>
			<path d="M185.7,155.9c-0.3-0.7-0.9-1.1-1.8-1.1c-1.5,0-2.3,1.3-2.3,3.1c0,1.7,0.8,3.1,2.3,3.1c0.9,0,1.4-0.4,1.9-1.2l1.6,1
				c-0.7,1.4-1.8,2.2-3.6,2.2c-2.5,0-4.2-1.9-4.2-5c0-3,1.8-5,4.3-5c1.8,0,2.9,0.9,3.5,2.1L185.7,155.9z"/>
			<path d="M193,162.9c-2.3,0-3.9-1.6-3.9-4.4v-5.4h1.9v5.4c0,1.6,0.7,2.5,2,2.5s2-1,2-2.5v-5.4h1.9v5.4
				C196.9,161.3,195.4,162.9,193,162.9z"/>
			<path d="M202.2,162.9c-1.6,0-3-0.7-3.8-1.8l1.4-1.2c0.7,0.8,1.6,1.1,2.5,1.1c1.1,0,1.7-0.3,1.7-1.1c0-0.6-0.3-0.9-2.2-1.3
				c-1.8-0.4-3-1-3-2.9c0-1.8,1.6-2.8,3.5-2.8c1.5,0,2.6,0.6,3.5,1.5l-1.4,1.4c-0.6-0.6-1.3-1-2.2-1c-1,0-1.4,0.4-1.4,0.9
				c0,0.6,0.4,0.8,2,1.2c1.5,0.4,3.2,0.9,3.2,3C206.1,161.7,204.9,162.9,202.2,162.9z"/>
			<path d="M215.9,162.9c-2.5,0-4.3-1.9-4.3-5c0-3.1,1.8-5,4.3-5c2.5,0,4.3,1.9,4.3,5C220.1,161,218.4,162.9,215.9,162.9z
				 M215.8,154.9c-1.4,0-2.3,1.1-2.3,3.1c0,2,0.9,3.1,2.3,3.1s2.3-1.1,2.3-3.1C218.1,156,217.2,154.9,215.8,154.9z"/>
			<path d="M223.9,155v1.8h2.9v1.9h-2.9v4.1H222v-9.7h6.9v1.9H223.9z"/>
			<path d="M238.8,155v7.8h-1.9V155h-2.8v-1.9h7.5v1.9H238.8z"/>
			<path d="M249.1,162.8v-4.1h-4v4.1h-1.9v-9.7h1.9v3.7h4v-3.7h1.9v9.7H249.1z"/>
			<path d="M253.4,162.8v-9.7h6.7v1.9h-4.8v1.7h2.8v1.9h-2.8v2.3h5v1.9L253.4,162.8L253.4,162.8z"/>
			<path d="M270.2,162.9c-2.3,0-3.9-1.6-3.9-4.4v-5.4h1.9v5.4c0,1.6,0.7,2.5,2,2.5s2-1,2-2.5v-5.4h1.9v5.4
				C274.2,161.3,272.7,162.9,270.2,162.9z"/>
			<path d="M276.9,162.9c-0.7,0-1.3-0.6-1.3-1.3c0-0.7,0.6-1.3,1.3-1.3s1.3,0.6,1.3,1.3C278.2,162.3,277.6,162.9,276.9,162.9z"/>
			<path d="M283.4,162.9c-1.6,0-3-0.7-3.8-1.8l1.4-1.2c0.7,0.8,1.6,1.1,2.5,1.1c1.2,0,1.7-0.3,1.7-1.1c0-0.6-0.3-0.9-2.2-1.3
				c-1.8-0.4-3-1-3-2.9c0-1.8,1.6-2.8,3.5-2.8c1.5,0,2.6,0.6,3.5,1.5l-1.4,1.4c-0.6-0.6-1.3-1-2.2-1c-1,0-1.4,0.4-1.4,0.9
				c0,0.6,0.4,0.8,2,1.2s3.2,0.9,3.2,3C287.2,161.7,286.1,162.9,283.4,162.9z"/>
			<path d="M290,162.9c-0.7,0-1.3-0.6-1.3-1.3c0-0.7,0.6-1.3,1.3-1.3s1.3,0.6,1.3,1.3C291.3,162.3,290.7,162.9,290,162.9z"/>
			<path d="M303.6,162.8l-0.8-2.2h-3.5l-0.8,2.2h-2.1l3.7-9.7h1.9l3.7,9.7H303.6z M301.5,157c-0.2-0.6-0.4-1.2-0.5-1.5
				c-0.1,0.4-0.3,0.9-0.5,1.5l-0.6,1.8h2.2L301.5,157z"/>
			<path d="M312.9,162.8l-1.7-3.5h-2v3.5h-1.9v-9.7h4.5c1.8,0,3.3,1,3.3,3.1c0,1.5-0.6,2.4-1.9,2.9l1.9,3.8H312.9z M311.7,155h-2.5
				v2.5h2.5c0.9,0,1.4-0.4,1.4-1.3C313.1,155.3,312.6,155,311.7,155z"/>
			<path d="M324.2,162.8v-3.6c0-0.5,0-1.8,0-2.1c-0.1,0.4-0.4,1.1-0.7,1.6l-2,4.3l-2-4.3c-0.3-0.6-0.5-1.2-0.7-1.6
				c0,0.4,0,1.6,0,2.1v3.6H317v-9.7h1.9l2,4.4c0.3,0.5,0.5,1.3,0.7,1.6c0.1-0.4,0.4-1.1,0.7-1.6l2-4.4h1.9v9.7H324.2z"/>
			<path d="M333.1,158.9v3.8h-1.9V159l-3.7-5.9h2.2l1.4,2.3c0.3,0.6,0.9,1.5,1.1,1.9c0.2-0.4,0.7-1.3,1.1-1.9l1.4-2.3h2.2
				L333.1,158.9z"/>
		</g>
		<g>
			<path d="M62.5,128.5l10.1-0.6c0.2,1.6,0.7,2.9,1.3,3.7c1.1,1.4,2.6,2.1,4.7,2.1c1.5,0,2.7-0.4,3.5-1.1s1.2-1.5,1.2-2.5
				c0-0.9-0.4-1.7-1.2-2.4c-0.8-0.7-2.6-1.4-5.4-2c-4.6-1-7.9-2.4-9.9-4.2c-2-1.7-3-3.9-3-6.6c0-1.8,0.5-3.4,1.5-5
				c1-1.6,2.5-2.8,4.6-3.7c2-0.9,4.8-1.3,8.4-1.3c4.4,0,7.7,0.8,10,2.4c2.3,1.6,3.7,4.2,4.1,7.8l-10,0.6c-0.3-1.5-0.8-2.7-1.7-3.4
				c-0.8-0.7-2-1-3.5-1c-1.2,0-2.2,0.3-2.8,0.8s-0.9,1.2-0.9,1.9c0,0.5,0.3,1,0.8,1.5c0.5,0.5,1.7,0.9,3.5,1.3c4.6,1,7.9,2,9.9,3
				c2,1,3.5,2.3,4.4,3.8c0.9,1.5,1.4,3.2,1.4,5.1c0,2.2-0.6,4.2-1.8,6.1c-1.2,1.9-2.9,3.3-5.1,4.2c-2.2,1-4.9,1.4-8.2,1.4
				c-5.8,0-9.8-1.1-12.1-3.4C64.1,134.8,62.8,131.9,62.5,128.5z"/>
			<path d="M95.7,105.6h32.1v8.4h-10.8v25.8h-10.6V114H95.7V105.6z"/>
			<path d="M149.2,134.1h-12l-1.7,5.6h-10.8l12.9-34.2h11.5l12.8,34.2H151L149.2,134.1z M147.1,126.7l-3.8-12.3l-3.7,12.3H147.1z"/>
			<path d="M165,105.6h9.9l12.9,18.9v-18.9h10v34.2h-10L175,121v18.8H165V105.6z"/>
			<path d="M204.2,105.6h15.7c3.1,0,5.6,0.4,7.5,1.3s3.5,2,4.7,3.6s2.1,3.4,2.7,5.5s0.8,4.3,0.8,6.6c0,3.7-0.4,6.5-1.2,8.5
				c-0.8,2-2,3.7-3.5,5.1c-1.5,1.4-3.1,2.3-4.8,2.7c-2.3,0.6-4.4,0.9-6.3,0.9h-15.7L204.2,105.6L204.2,105.6z M214.8,113.3V132h2.6
				c2.2,0,3.8-0.2,4.7-0.7c0.9-0.5,1.7-1.3,2.2-2.6c0.5-1.2,0.8-3.2,0.8-5.9c0-3.6-0.6-6.1-1.8-7.4c-1.2-1.3-3.1-2-5.9-2
				L214.8,113.3L214.8,113.3z"/>
			<path d="M240.1,123.6h13.8v7.3h-13.8V123.6z"/>
			<path d="M252.1,105.6h32.1v8.4h-10.8v25.8h-10.6V114h-10.8L252.1,105.6L252.1,105.6z"/>
			<path d="M326.1,105.6h10.1v7.8l-2,15.7H328l-1.9-15.7V105.6z M326.4,131.4h9.5v8.4h-9.5V131.4z"/>
			<path d="M317.3,109.6c-3.1-3.1-7.5-4.6-13.2-4.6c-5.6,0-9.9,1.6-13,4.7s-4.7,7.5-4.7,13c0,4,0.8,7.3,2.4,10
				c1.6,2.7,3.6,4.6,6.1,5.8c2.5,1.2,5.7,1.8,9.6,1.8c3.8,0,7-0.7,9.5-2.1c2.5-1.4,4.5-3.4,5.8-6c1.3-2.6,2-5.8,2-9.8
				C321.9,116.9,320.4,112.6,317.3,109.6z M309.6,130.9l-5.4-4l-5.4,3.9l2.1-6.2l-5.4-3.8h6.7l2.1-6.4l2.1,6.4h6.7l-5.4,3.8
				L309.6,130.9z"/>
		</g>
	</g>
	<g>
		<g>
			<path fill="#FFC627" d="M56.8,146c0-0.7,0.6-1.2,1.2-1.2c0.7,0,1.2,0.5,1.2,1.2s-0.6,1.2-1.2,1.2C57.4,147.2,56.8,146.8,56.8,146
				z M58,145.1c-0.5,0-0.9,0.4-0.9,1c0,0.6,0.4,1,0.9,1c0.5,0,0.9-0.4,0.9-1C59,145.5,58.6,145.1,58,145.1z M57.8,146.7h-0.3v-1.3
				h0.5c0.3,0,0.5,0.1,0.5,0.4c0,0.2-0.2,0.3-0.3,0.4l0.3,0.6h-0.3l-0.3-0.6h-0.2V146.7z M57.8,145.9h0.2c0.2,0,0.3-0.1,0.3-0.2
				c0-0.1-0.1-0.2-0.3-0.2h-0.2V145.9z"/>
		</g>
		<path fill="#231F20" d="M11.4,145.1c-2.2,0-4.1,1.8-4.1,4.1v9.4c0,2.2,1.8,4.1,4.1,4.1h41.3c2.2,0,4.1-1.8,4.1-4.1v-9.4
			c0-2.2-1.8-4.1-4.1-4.1H11.4z"/>
		<g>
			<path fill="#FFC627" d="M52.6,146.4H11.4c-1.5,0-2.8,1.2-2.8,2.8v9.4c0,1.5,1.2,2.8,2.8,2.8h41.3c1.5,0,2.8-1.2,2.8-2.8v-9.4
				C55.4,147.6,54.2,146.4,52.6,146.4z M54.1,158.6c0,0.8-0.7,1.5-1.5,1.5H11.4c-0.8,0-1.5-0.7-1.5-1.5v-9.4c0-0.8,0.7-1.5,1.5-1.5
				h41.3c0.8,0,1.5,0.7,1.5,1.5V158.6z"/>
		</g>
		<path fill="#231F20" d="M11.4,96.9c-2.2,0-4.1,1.8-4.1,4.1v38.8c0,2.2,1.8,4.1,4.1,4.1h41.3c2.2,0,4.1-1.8,4.1-4.1V101
			c0-2.2-1.8-4.1-4.1-4.1H11.4z"/>
		<g>
			<path fill="#FFC627" d="M52.6,98.2H11.4c-1.5,0-2.8,1.2-2.8,2.8v38.8c0,1.5,1.2,2.8,2.8,2.8h41.3c1.5,0,2.8-1.2,2.8-2.8V101
				C55.4,99.4,54.2,98.2,52.6,98.2z M54.1,139.8c0,0.8-0.7,1.5-1.5,1.5H11.4c-0.8,0-1.5-0.7-1.5-1.5V101c0-0.8,0.7-1.5,1.5-1.5h41.3
				c0.8,0,1.5,0.7,1.5,1.5V139.8z"/>
		</g>
		<g>
			<path fill="#FFFFFF" d="M17.4,156.7l-1.2,1.2h-2.1l-1.2-1.2v-6.9h1.9v6.6h0.8v-6.6h1.9V156.7z"/>
			<path fill="#FFFFFF" d="M19.9,157.9h-1.9v-1.6h1.9V157.9z"/>
			<path fill="#FFFFFF" d="M23.9,149.8l1.3,1.2v1.4h-1.9v-1.1h-0.8v1.6l1.4,0.1l1.3,1.2v2.5l-1.2,1.2h-2.1l-1.2-1.2v-1.4h1.9v1.1
				h0.8v-1.7l-1.3-0.1l-1.3-1.2V151l1.2-1.2L23.9,149.8L23.9,149.8z"/>
			<path fill="#FFFFFF" d="M27.7,157.9h-1.9v-1.6h1.9V157.9z"/>
			<path fill="#FFFFFF" d="M31.4,154.9h-0.8l0.3-3.4h0.2L31.4,154.9z M32.4,149.8h-2.7l-1.1,8.1h1.8l0.2-1.5h1.1l0.2,1.5h1.8
				L32.4,149.8z"/>
			<path fill="#FFFFFF" d="M37,151.3v1.8h-0.8v-1.8H37z M38.8,151l-1.3-1.2h-3.2v8.1h1.9v-3.2H37v3.2h1.8v-3.2l-0.9-0.8l0.9-0.8
				L38.8,151L38.8,151z"/>
			<path fill="#FFFFFF" d="M45.5,157.9h-1.7v-5.1h-0.1l-0.8,5.1h-0.7l-0.8-5.1h-0.1v5.1h-1.7v-8.1h2.2l0.7,3.9h0.2l0.6-3.9h2.2
				L45.5,157.9L45.5,157.9z"/>
			<path fill="#FFFFFF" d="M49.8,154.5v3.4h-1.9v-3.4l-1.6-4.7h1.9l0.7,2.9h0l0.7-2.9h1.9L49.8,154.5z"/>
		</g>
		<polygon fill="#FFC627" points="43.5,138.1 32,129.7 20.5,138.1 24.9,124.5 13.4,116.2 27.6,116.2 32,102.6 36.4,116.2 
			50.6,116.2 39.1,124.5 		"/>
		<polygon fill="#231F20" points="40.9,134.5 32,128 23,134.5 26.5,124 17.5,117.5 28.6,117.5 32,107 35.4,117.5 46.5,117.5 
			37.5,124 		"/>
		<polygon fill="#FFFFFF" points="32,111.2 34.5,118.8 42.5,118.8 36,123.5 38.5,131.1 32,126.4 25.5,131.1 28,123.5 21.5,118.8 
			29.5,118.8 		"/>
	</g>
	<polygon fill="#FFFFFF" points="140.3,59 143.5,63 146.2,63 143,59 146.2,55 143.5,55 	"/>
	<polygon fill="#FFFFFF" points="130.3,61 135.1,67 139.1,67 134.3,61 139.1,55 135.1,55 	"/>
	<polygon fill="#FFFFFF" points="150,55 147.3,55 150.5,59 147.3,63 150,63 153.2,59 	"/>
	<polygon fill="#FFFFFF" points="124.3,55 120.3,55 125.1,61 120.3,67 124.3,67 129.1,61 	"/>
	<path fill="#FFFFFF" d="M61,75v-9.1h3.1l0.5-3.6H61v-2.3c0-1,0.3-1.7,1.8-1.7h1.9v-3.2c-0.3,0-1.4-0.1-2.7-0.1
		c-2.7,0-4.6,1.7-4.6,4.7v2.6h-3.1v3.6h3.1V75L61,75L61,75z"/>
	<g>
		<path fill="#FFFFFF" d="M117.1,73c0.5,0,1-0.2,1.3-0.5L112,66c-0.2,0.1-0.3,0.2-0.5,0.3c-0.5,0.4-0.9,0.6-1.2,0.8
			c-0.3,0.2-0.7,0.4-1.2,0.6c-0.5,0.2-1,0.3-1.4,0.3h0c-0.4,0-0.9-0.1-1.4-0.3c-0.5-0.2-0.9-0.4-1.2-0.6c-0.3-0.2-0.7-0.5-1.2-0.8
			c-0.1-0.1-0.3-0.2-0.4-0.3L97,72.5c0.4,0.3,0.8,0.5,1.3,0.5H117.1z"/>
		<path fill="#FFFFFF" d="M97.6,61.9c-0.5-0.3-0.9-0.7-1.3-1.1v9.9L102,65C100.9,64.2,99.4,63.1,97.6,61.9L97.6,61.9z"/>
		<path fill="#FFFFFF" d="M117.9,61.9c-1.7,1.2-3.2,2.2-4.4,3l5.7,5.7v-9.9C118.8,61.2,118.4,61.6,117.9,61.9L117.9,61.9z"/>
		<path fill="#FFFFFF" d="M117.1,55H98.3c-0.7,0-1.2,0.2-1.5,0.7c-0.4,0.4-0.5,1-0.5,1.7c0,0.5,0.2,1.1,0.7,1.7
			c0.5,0.6,1,1.1,1.5,1.5c0.3,0.2,1.2,0.8,2.6,1.8c0.8,0.5,1.5,1,2.1,1.4c0.5,0.3,0.9,0.7,1.3,0.9c0,0,0.1,0.1,0.2,0.1
			c0.1,0.1,0.2,0.2,0.4,0.3c0.3,0.2,0.5,0.4,0.7,0.5c0.2,0.1,0.4,0.3,0.7,0.4c0.3,0.2,0.5,0.3,0.7,0.3c0.2,0.1,0.4,0.1,0.6,0.1h0
			c0.2,0,0.4,0,0.6-0.1c0.2-0.1,0.5-0.2,0.7-0.3c0.3-0.2,0.5-0.3,0.7-0.4c0.2-0.1,0.4-0.3,0.7-0.5c0.1-0.1,0.3-0.2,0.4-0.3
			c0.1-0.1,0.2-0.1,0.2-0.1c0.3-0.2,0.7-0.5,1.3-0.9c1.1-0.7,2.6-1.8,4.7-3.3c0.6-0.4,1.1-1,1.6-1.6c0.4-0.6,0.6-1.3,0.6-1.9
			c0-0.6-0.2-1-0.6-1.4C118.2,55.2,117.7,55,117.1,55L117.1,55z"/>
	</g>
	<g>
		<path fill="#FFFFFF" d="M172.1,56.5c0-0.8-0.7-1.5-1.5-1.5h-11.1c-0.8,0-1.5,0.7-1.5,1.5v4.1h14.1V56.5z"/>
		<path fill="#FFFFFF" d="M158.8,73.6c0,0.8,0.7,1.5,1.5,1.5h9.5c0.8,0,1.5-0.7,1.5-1.5v-5.3h-12.5V73.6z M160,69.8h10v1h-10V69.8z
			 M160,72.1h10v1h-10V72.1z"/>
		<path fill="#FFFFFF" d="M173.5,61.8h-17c-1.3,0-2.2,1-2.2,2.2v6.7c0,1.3,1,2.2,2.2,2.2h1.1v-5.7h14.9v5.7h1.1c1.3,0,2.2-1,2.2-2.2
			V64C175.8,62.7,174.8,61.8,173.5,61.8z M171.3,65.6c-0.6,0-1.1-0.5-1.1-1.1c0-0.6,0.5-1.1,1.1-1.1s1.1,0.5,1.1,1.1
			C172.4,65.1,171.9,65.6,171.3,65.6z"/>
	</g>
	<polygon points="188.2,58.7 188.2,55 182.8,59.4 177.3,55 177.3,58.7 182.8,63 	"/>
	<polygon points="189.3,59.4 189.3,63 194.7,58.7 200.1,63 200.1,59.4 194.7,55 	"/>
	<polygon fill="#FFFFFF" points="188.2,67.7 188.2,64 182.8,68.4 177.3,64 177.3,67.7 182.8,72 	"/>
	<polygon fill="#FFFFFF" points="189.3,68.4 189.3,72 194.7,67.7 200.1,72 200.1,68.4 194.7,64 	"/>
	<path fill="#FFFFFF" d="M26.3,83.5c0-3.2-2-6.2-5-7.4C21.2,76,21.1,76,21,76c-0.4,0-0.7,0.3-0.7,0.7c0,0.3,0.2,0.5,0.4,0.6
		c0.1,0.1,0.3,0.1,0.5,0.2c0.3,0.2,0.6,0.3,0.9,0.5c1.8,1.3,2.8,3.3,2.8,5.4c0,2.2-1,4.2-2.8,5.4c-0.3,0.2-0.6,0.4-0.9,0.5
		c-0.2,0.1-0.3,0.1-0.5,0.2c-0.3,0.1-0.4,0.3-0.4,0.6c0,0.4,0.3,0.7,0.7,0.7c0.1,0,0.2,0,0.3-0.1C24.3,89.7,26.3,86.7,26.3,83.5
		 M23.5,83.5c0-2.1-1.3-4.1-3.4-5c-0.1,0-0.2-0.1-0.3-0.1c-0.4,0-0.7,0.3-0.7,0.7c0,0.3,0.2,0.5,0.4,0.6c0.3,0.1,0.6,0.3,0.8,0.5
		c1.1,0.8,1.7,2,1.7,3.3c0,1.3-0.6,2.5-1.7,3.3c-0.3,0.2-0.5,0.3-0.8,0.5c-0.2,0.1-0.4,0.3-0.4,0.6c0,0.4,0.3,0.7,0.7,0.7
		c0.1,0,0.2,0,0.3-0.1C22.2,87.6,23.5,85.6,23.5,83.5 M20.7,83.5c0-1.1-0.7-2.1-1.7-2.5C19,81,18.9,81,18.8,81
		c-0.4,0-0.7,0.3-0.7,0.7c0,0.8,1.3,0.6,1.3,1.9c0,1.3-1.3,1.1-1.3,1.9c0,0.4,0.3,0.7,0.7,0.7c0.1,0,0.2,0,0.3-0.1
		C20.1,85.6,20.7,84.6,20.7,83.5 M16.6,77.8c0-0.4-0.3-0.7-0.7-0.7c-0.2,0-0.4,0.1-0.5,0.2l-3.6,3.5H9c-0.4,0-0.7,0.3-0.7,0.7v4
		c0,0.4,0.3,0.7,0.7,0.7h2.8l3.6,3.5c0.1,0.1,0.3,0.2,0.5,0.2c0.4,0,0.7-0.3,0.7-0.7L16.6,77.8L16.6,77.8z"/>
	<g id="Layer_1_1_">
		<path fill="#FFFFFF" d="M28.3,85.5c0-2,0-7,0-8.9c0-0.6,0.2-0.7,0.8-0.4c1.9,1,6.7,3.4,8.7,4.4c0.7,0.3,0.7,0.5,0,0.8
			c-2.2,1.1-6.8,3.4-8.7,4.4C28.5,86.1,28.3,86.1,28.3,85.5z"/>
	</g>
	<path opacity="0.75" fill="#FFC627" enable-background="new    " d="M354.1,133.7c1.4-0.5,2.7-0.9,3.8-1.2c1.1-0.3,2.1-0.4,3-0.4
		c3.6,0,6.6,1.3,9.1,3.9c2.5,2.6,3.7,5.8,3.7,9.6c0,4.7-1.6,8.6-4.9,11.8c-3.3,3.2-7.4,4.8-12.5,4.8c-5.1,0-9.4-2-12.8-6
		c-3.4-4-5.1-9.1-5.1-15.3c0-9.3,3.1-17.2,9.3-23.8c6.2-6.5,14.6-10.6,25-12.2v10c-6,1.4-10.4,3.6-13.3,6.5
		C356.4,124.4,354.7,128.5,354.1,133.7z M401.1,133.7c1.4-0.5,2.7-0.9,3.8-1.2c1.1-0.3,2.1-0.4,2.9-0.4c3.6,0,6.7,1.3,9.2,3.9
		c2.5,2.6,3.7,5.8,3.7,9.6c0,4.7-1.7,8.6-5,11.8c-3.3,3.2-7.5,4.8-12.5,4.8c-5.1,0-9.4-2-12.7-6c-3.4-4-5-9.1-5-15.3
		c0-9.4,3.1-17.3,9.2-23.8c6.2-6.5,14.5-10.5,25-12.1v10c-6,1.4-10.4,3.6-13.3,6.5C403.4,124.4,401.7,128.5,401.1,133.7z"/>
	<path opacity="0.75" fill="#FFC627" enable-background="new    " d="M422.3,162.2v-10.1c6-1.4,10.4-3.5,13.3-6.4
		c2.9-2.9,4.6-7,5.2-12.3c-1.4,0.5-2.7,0.9-3.8,1.2c-1.1,0.3-2.1,0.4-3,0.4c-3.6,0-6.7-1.3-9.1-3.9c-2.4-2.6-3.7-5.7-3.7-9.5
		c0-4.8,1.6-8.7,4.9-11.9c3.3-3.2,7.4-4.7,12.5-4.7c5.1,0,9.4,2,12.8,6c3.4,4,5.1,9,5.1,15.2c0,9.4-3.1,17.3-9.3,23.9
		C441.1,156.6,432.7,160.7,422.3,162.2z M469,162.2v-10.1c6.1-1.4,10.5-3.6,13.5-6.5c2.9-2.9,4.7-7,5.3-12.3
		c-1.4,0.5-2.7,0.9-3.8,1.2c-1.1,0.3-2.1,0.4-3,0.4c-3.6,0-6.6-1.3-9.1-3.9c-2.5-2.6-3.7-5.7-3.7-9.5c0-4.8,1.6-8.7,4.9-11.9
		c3.3-3.2,7.4-4.7,12.5-4.7c5.1,0,9.4,2,12.7,5.9c3.4,3.9,5,9,5,15.3c0,9.4-3.1,17.3-9.3,23.9C487.9,156.6,479.6,160.7,469,162.2z"
		/>
	<g>
		<rect x="322.5" y="72.4" fill="#FEC325" width="21.8" height="5.5"/>
		<rect x="322.5" y="64.2" fill="#FEC325" width="21.8" height="5.5"/>
		<rect x="322.5" y="56" fill="#FEC325" width="21.8" height="5.5"/>
		<circle fill="#FEC325" cx="317" cy="66.9" r="2.7"/>
		<circle fill="#FEC325" cx="317" cy="58.7" r="2.7"/>
		<circle fill="#FEC325" cx="317" cy="75.1" r="2.7"/>
	</g>
	<g>
		<path fill="#FFFFFF" d="M89.3,7.2c3.2,0,3.6,0,4.8,0.1c1.2,0.1,1.8,0.2,2.2,0.4c0.6,0.2,1,0.5,1.4,0.9s0.7,0.8,0.9,1.4
			c0.2,0.4,0.4,1.1,0.4,2.2c0.1,1.3,0.1,1.6,0.1,4.8s0,3.6-0.1,4.8c-0.1,1.2-0.2,1.8-0.4,2.2c-0.2,0.6-0.5,1-0.9,1.4
			s-0.8,0.7-1.4,0.9c-0.4,0.2-1.1,0.4-2.2,0.4c-1.3,0.1-1.6,0.1-4.8,0.1s-3.6,0-4.8-0.1c-1.2-0.1-1.8-0.2-2.2-0.4
			c-0.6-0.2-1-0.5-1.4-0.9s-0.7-0.8-0.9-1.4c-0.2-0.4-0.4-1.1-0.4-2.2c-0.1-1.3-0.1-1.6-0.1-4.8s0-3.6,0.1-4.8
			c0.1-1.2,0.2-1.8,0.4-2.2c0.2-0.6,0.5-1,0.9-1.4s0.8-0.7,1.4-0.9c0.4-0.2,1.1-0.4,2.2-0.4C85.7,7.2,86.1,7.2,89.3,7.2 M89.3,5
			c-3.3,0-3.7,0-4.9,0.1c-1.3,0.1-2.1,0.3-2.9,0.6C80.6,5.9,80,6.3,79.3,7s-1.1,1.3-1.4,2.1c-0.3,0.8-0.5,1.6-0.6,2.9
			c-0.1,1.3-0.1,1.7-0.1,4.9s0,3.7,0.1,4.9c0.1,1.3,0.3,2.2,0.6,2.9c0.3,0.8,0.7,1.5,1.4,2.1s1.3,1.1,2.1,1.4
			c0.8,0.3,1.6,0.5,2.9,0.6C85.6,29,86,29,89.3,29s3.7,0,4.9-0.1c1.3-0.1,2.1-0.3,2.9-0.6c0.8-0.3,1.5-0.7,2.1-1.4s1.1-1.3,1.4-2.1
			c0.3-0.8,0.5-1.6,0.6-2.9c0.1-1.3,0.1-1.7,0.1-4.9s0-3.7-0.1-4.9c-0.1-1.3-0.3-2.2-0.6-2.9c-0.3-0.8-0.7-1.5-1.4-2.1
			s-1.3-1.1-2.1-1.4c-0.8-0.3-1.6-0.5-2.9-0.6C93,5,92.5,5,89.3,5L89.3,5z"/>
		<path fill="#FFFFFF" d="M89.3,10.8c-3.4,0-6.2,2.8-6.2,6.2s2.8,6.2,6.2,6.2c3.4,0,6.2-2.8,6.2-6.2S92.7,10.8,89.3,10.8z M89.3,21
			c-2.2,0-4-1.8-4-4s1.8-4,4-4s4,1.8,4,4S91.5,21,89.3,21z"/>
		<circle fill="#FFFFFF" cx="95.7" cy="10.6" r="1.4"/>
	</g>
	<g>
		<path fill="#FEC325" d="M89.3,32.2c3.2,0,3.6,0,4.8,0.1c1.2,0.1,1.8,0.2,2.2,0.4c0.6,0.2,1,0.5,1.4,0.9s0.7,0.8,0.9,1.4
			c0.2,0.4,0.4,1.1,0.4,2.2c0.1,1.3,0.1,1.6,0.1,4.8s0,3.6-0.1,4.8c-0.1,1.2-0.2,1.8-0.4,2.2c-0.2,0.6-0.5,1-0.9,1.4
			s-0.8,0.7-1.4,0.9c-0.4,0.2-1.1,0.4-2.2,0.4c-1.3,0.1-1.6,0.1-4.8,0.1s-3.6,0-4.8-0.1c-1.2-0.1-1.8-0.2-2.2-0.4
			c-0.6-0.2-1-0.5-1.4-0.9s-0.7-0.8-0.9-1.4c-0.2-0.4-0.4-1.1-0.4-2.2c-0.1-1.3-0.1-1.6-0.1-4.8s0-3.6,0.1-4.8
			c0.1-1.2,0.2-1.8,0.4-2.2c0.2-0.6,0.5-1,0.9-1.4s0.8-0.7,1.4-0.9c0.4-0.2,1.1-0.4,2.2-0.4C85.7,32.2,86.1,32.2,89.3,32.2 M89.3,30
			c-3.3,0-3.7,0-4.9,0.1c-1.3,0.1-2.1,0.3-2.9,0.6c-0.8,0.3-1.5,0.7-2.1,1.4s-1.1,1.3-1.4,2.1c-0.3,0.8-0.5,1.6-0.6,2.9
			c-0.1,1.3-0.1,1.7-0.1,4.9s0,3.7,0.1,4.9c0.1,1.3,0.3,2.2,0.6,2.9c0.3,0.8,0.7,1.5,1.4,2.1s1.3,1.1,2.1,1.4
			c0.8,0.3,1.6,0.5,2.9,0.6C85.6,54,86,54,89.3,54s3.7,0,4.9-0.1c1.3-0.1,2.1-0.3,2.9-0.6c0.8-0.3,1.5-0.7,2.1-1.4s1.1-1.3,1.4-2.1
			c0.3-0.8,0.5-1.6,0.6-2.9c0.1-1.3,0.1-1.7,0.1-4.9s0-3.7-0.1-4.9c-0.1-1.3-0.3-2.2-0.6-2.9c-0.3-0.8-0.7-1.5-1.4-2.1
			s-1.3-1.1-2.1-1.4c-0.8-0.3-1.6-0.5-2.9-0.6C93,30,92.5,30,89.3,30L89.3,30z"/>
		<path fill="#FEC325" d="M89.3,35.8c-3.4,0-6.2,2.8-6.2,6.2s2.8,6.2,6.2,6.2c3.4,0,6.2-2.8,6.2-6.2S92.7,35.8,89.3,35.8z M89.3,46
			c-2.2,0-4-1.8-4-4s1.8-4,4-4s4,1.8,4,4S91.5,46,89.3,46z"/>
		<circle fill="#FEC325" cx="95.7" cy="35.6" r="1.4"/>
	</g>
	<g>
		<path d="M451.6,181.2h2.6c0.5,0,0.9-0.4,0.9-0.9s-0.4-0.9-0.9-0.9h-2.6c-0.5,0-0.9,0.4-0.9,0.9S451.1,181.2,451.6,181.2z"/>
		<path d="M456.9,184.7h-5.2c-0.5,0-0.9,0.4-0.9,0.9c0,0.5,0.4,0.9,0.9,0.9h5.2c0.5,0,0.9-0.4,0.9-0.9
			C457.8,185.1,457.4,184.7,456.9,184.7z"/>
		<path d="M462.3,171h-16.1c-2.2,0-4,1.8-4,4V191c0,2.2,1.8,4,4,4h16.1c2.2,0,4-1.8,4-4V175C466.3,172.8,464.5,171,462.3,171z
			 M461.6,185.7c0,2.5-2.1,4.6-4.6,4.6h-5.3c-2.6,0-4.6-2.1-4.6-4.6v-5.4c0-2.6,2.1-4.6,4.6-4.6h3.2c1.2,0.1,2.9,1.2,3.6,2.5
			c0.2,0.4,0.3,0.4,0.4,1.6c0.1,0.6,0.1,1,0.4,1.3c0.4,0.3,1.7,0.1,2,0.3l0.2,0.2l0.1,0.3l0,0.2L461.6,185.7z"/>
	</g>
	<g>
		<path d="M241,176.6c-0.1,2.7-2,6.4-5.7,11.1c-3.8,4.9-7,7.4-9.6,7.4c-1.6,0-3-1.5-4.1-4.5c-0.7-2.7-1.5-5.5-2.2-8.2
			c-0.8-3-1.7-4.5-2.7-4.5c-0.2,0-0.9,0.4-2.2,1.3l-1.3-1.7c1.4-1.2,2.7-2.4,4-3.6c1.8-1.6,3.2-2.4,4.1-2.5c2.2-0.2,3.5,1.3,4,4.4
			c0.5,3.4,0.9,5.5,1.1,6.4c0.6,2.8,1.3,4.2,2.1,4.2c0.6,0,1.5-0.9,2.6-2.8c1.2-1.8,1.8-3.2,1.9-4.2c0.2-1.6-0.5-2.4-1.9-2.4
			c-0.7,0-1.3,0.2-2.1,0.5c1.4-4.5,4-6.6,7.8-6.5C239.8,171.1,241.2,172.9,241,176.6z"/>
	</g>
	<g>
		<polygon points="254.5,181.2 255.5,184.3 258.7,184.3 256.1,186.2 257.1,189.2 254.5,187.4 251.9,189.2 252.9,186.2 250.3,184.3 
			253.5,184.3 		"/>
		<path d="M263.5,171h-18c-2.3,0-4.3,1.9-4.3,4.3v15.5c0,2.3,1.9,4.3,4.3,4.3h18c2.3,0,4.3-1.9,4.3-4.3v-15.5
			C267.8,172.9,265.9,171,263.5,171z M253.3,173.5c0.7,0,1.3,0.6,1.3,1.3s-0.6,1.3-1.3,1.3s-1.3-0.6-1.3-1.3
			S252.6,173.5,253.3,173.5z M249.3,173.5c0.7,0,1.3,0.6,1.3,1.3s-0.6,1.3-1.3,1.3s-1.3-0.6-1.3-1.3S248.6,173.5,249.3,173.5z
			 M245.3,173.5c0.7,0,1.3,0.6,1.3,1.3s-0.6,1.3-1.3,1.3s-1.3-0.6-1.3-1.3S244.6,173.5,245.3,173.5z M265.3,190.8
			c0,1-0.8,1.8-1.8,1.8h-18c-1,0-1.8-0.8-1.8-1.8V178h21.5V190.8z"/>
	</g>
	<g>
		<path d="M37.8,173.8c-1.1,0.5-2.3,0.8-3.5,1c1.3-0.8,2.2-1.9,2.7-3.4c-1.2,0.7-2.5,1.2-3.8,1.5c-1.1-1.2-2.7-1.9-4.4-1.9
			c-3.3,0-6.1,2.7-6.1,6.1c0,0.5,0.1,0.9,0.2,1.4c-5-0.3-9.5-2.7-12.5-6.3c-0.5,0.9-0.8,1.9-0.8,3c0,2.1,1.1,4,2.7,5
			c-1,0-1.9-0.3-2.7-0.8c0,0,0,0.1,0,0.1c0,2.9,2.1,5.4,4.9,5.9c-0.5,0.1-1,0.2-1.6,0.2c-0.4,0-0.8,0-1.1-0.1c0.8,2.4,3,4.2,5.7,4.2
			c-2.1,1.6-4.7,2.6-7.5,2.6c-0.5,0-1,0-1.4-0.1c2.7,1.7,5.9,2.7,9.3,2.7c11.1,0,17.2-9.2,17.2-17.2c0-0.3,0-0.5,0-0.8
			C36,176.1,37,175.1,37.8,173.8L37.8,173.8z"/>
	</g>
	<path d="M162.3,181.5h-3.8v-3.8h-3v3.8h-3.8v3h3.8v3.8h3v-3.8h3.8 M138.3,180.8v4.7h6.5c-0.5,2.8-2.9,4.9-6.5,4.9
		c-4,0-7.2-3.4-7.2-7.3s3.2-7.3,7.2-7.3c1.8,0,3.4,0.6,4.6,1.8v0l3.4-3.4c-2.1-1.9-4.8-3.1-8-3.1c-6.6,0-12,5.4-12,12s5.4,12,12,12
		c6.9,0,11.5-4.9,11.5-11.7c0-0.9-0.1-1.7-0.2-2.5L138.3,180.8L138.3,180.8z"/>
	<g>
		<path d="M50.3,171c-6.6,0-12,5.4-12,12c0,5.1,3.2,9.4,7.6,11.2c-0.1-0.9-0.2-2.4,0-3.4c0.2-0.9,1.4-6,1.4-6S47,184.1,47,183
			c0-1.7,1-2.9,2.2-2.9c1,0,1.5,0.8,1.5,1.7c0,1-0.7,2.6-1,4c-0.3,1.2,0.6,2.2,1.8,2.2c2.1,0,3.8-2.2,3.8-5.5c0-2.9-2.1-4.9-5-4.9
			c-3.4,0-5.4,2.6-5.4,5.2c0,1,0.4,2.1,0.9,2.7c0.1,0.1,0.1,0.2,0.1,0.3c-0.1,0.4-0.3,1.2-0.3,1.4c-0.1,0.2-0.2,0.3-0.4,0.2
			c-1.5-0.7-2.4-2.9-2.4-4.6c0-3.8,2.8-7.3,7.9-7.3c4.2,0,7.4,3,7.4,6.9c0,4.1-2.6,7.5-6.2,7.5c-1.2,0-2.4-0.6-2.8-1.4
			c0,0-0.6,2.3-0.7,2.9c-0.3,1-1,2.4-1.5,3.1c1.1,0.3,2.3,0.5,3.6,0.5c6.6,0,12-5.4,12-12S56.9,171,50.3,171z"/>
	</g>
	<g>
		<path d="M124,172.3c-0.9-0.9-1.9-1.3-3.2-1.3h-15c-1.2,0-2.3,0.4-3.2,1.3c-0.9,0.9-1.3,1.9-1.3,3.2v15c0,1.2,0.4,2.3,1.3,3.2
			s1.9,1.3,3.2,1.3h15c1.2,0,2.3-0.4,3.2-1.3c0.9-0.9,1.3-1.9,1.3-3.2v-15C125.3,174.3,124.8,173.2,124,172.3L124,172.3z
			 M111.2,185.3c-0.6,0.6-1.4,1-2.3,1s-1.7-0.3-2.3-1c-0.6-0.6-1-1.4-1-2.3c0-0.9,0.3-1.7,1-2.3s1.4-1,2.3-1s1.7,0.3,2.3,1
			c0.6,0.6,1,1.4,1,2.3C112.2,183.9,111.9,184.7,111.2,185.3L111.2,185.3z M120,185.3c-0.6,0.6-1.4,1-2.3,1s-1.7-0.3-2.3-1
			c-0.6-0.6-1-1.4-1-2.3c0-0.9,0.3-1.7,1-2.3s1.4-1,2.3-1s1.7,0.3,2.3,1c0.6,0.6,1,1.4,1,2.3C121,183.9,120.7,184.7,120,185.3
			L120,185.3z"/>
	</g>
	<g>
		<path d="M210.9,182.4c-0.1,0.1-0.2,0.1-0.3,0.2v-9.3c0-1.3-1-2.3-2.2-2.3h-16.8c-1.2,0-2.2,1-2.2,2.3v9.3
			c-0.1-0.1-0.2-0.1-0.3-0.2c-0.7-0.5-1.2,0.2-0.7,0.8c0.9,1,2.5,2.4,5,3.4c-2.6,9,6.4,10.4,6.3,5.8c0,0.1,0-2.6,0-4.5
			c0.2,0.1,0.4,0.1,0.6,0.2c0,1.9,0,4.5,0,4.4c-0.1,4.6,8.9,3.2,6.3-5.8c2.5-1,4.1-2.3,5-3.4C212.1,182.6,211.6,181.9,210.9,182.4
			L210.9,182.4z M202,184.7c-1.1-0.1-1.5,0.4-1.6,1.2c-0.3-0.2-0.5-0.4-0.8-0.7c0,0-0.1-0.1-0.1-0.1c-0.2-0.3-0.6-0.4-1.3-0.4
			c-1.5,0-4.2,0.3-7.4-1.3v-9c0-1.6,0.4-2.1,1.9-2.1h14.9c1.4,0,1.9,0.6,1.9,2.1v8.9C206.3,185.1,203.5,184.8,202,184.7L202,184.7z"
			/>
		<path d="M203.6,178.2c-1.6,0-2.9,1.2-2.9,2.7c0,1.5,1.3,2.7,2.9,2.7c1.6,0,2.9-1.2,2.9-2.7C206.5,179.4,205.2,178.2,203.6,178.2
			L203.6,178.2z"/>
		<path d="M199.8,180.9c0,1.5-1.3,2.7-2.9,2.7c-1.6,0-2.9-1.2-2.9-2.7c0-1.5,1.3-2.7,2.9-2.7C198.5,178.2,199.8,179.4,199.8,180.9
			L199.8,180.9z"/>
	</g>
	<path d="M71.4,195v-10.9H75l0.5-4.3h-4.2v-2.7c0-1.2,0.3-2.1,2.1-2.1h2.3v-3.8c-0.4,0-1.7-0.2-3.3-0.2c-3.3,0-5.5,2-5.5,5.6v3.1
		h-3.7v4.3H67V195H71.4z"/>
	<g>
		<path d="M173.1,185.6c1.8-0.9,3.6-1.9,5.4-2.8c-1.8-0.9-3.6-1.9-5.4-2.8V185.6z"/>
		<path d="M175.3,171c-6.6,0-12,5.4-12,12c0,6.6,5.4,12,12,12c6.6,0,12-5.4,12-12C187.3,176.4,181.9,171,175.3,171L175.3,171z
			 M183.5,187c-0.2,0.9-0.9,1.6-1.8,1.7c-2.1,0.2-4.2,0.2-6.3,0.2c-2.1,0-4.2,0-6.3-0.2c-0.9-0.1-1.6-0.8-1.8-1.7
			c-0.3-1.3-0.3-2.7-0.3-4c0-1.3,0-2.7,0.3-4c0.2-0.9,0.9-1.6,1.8-1.7c2.1-0.2,4.2-0.2,6.3-0.2c2.1,0,4.2,0,6.3,0.2
			c0.9,0.1,1.6,0.8,1.8,1.7c0.3,1.3,0.3,2.7,0.3,4C183.8,184.3,183.8,185.7,183.5,187L183.5,187z"/>
	</g>
	<g>
		<path d="M88.3,173.2c3.2,0,3.6,0,4.8,0.1c1.2,0.1,1.8,0.2,2.2,0.4c0.6,0.2,1,0.5,1.4,0.9s0.7,0.8,0.9,1.4c0.2,0.4,0.4,1.1,0.4,2.2
			c0.1,1.3,0.1,1.6,0.1,4.8s0,3.6-0.1,4.8c-0.1,1.2-0.2,1.8-0.4,2.2c-0.2,0.6-0.5,1-0.9,1.4s-0.8,0.7-1.4,0.9
			c-0.4,0.2-1.1,0.4-2.2,0.4c-1.3,0.1-1.6,0.1-4.8,0.1s-3.6,0-4.8-0.1c-1.2-0.1-1.8-0.2-2.2-0.4c-0.6-0.2-1-0.5-1.4-0.9
			s-0.7-0.8-0.9-1.4c-0.2-0.4-0.4-1.1-0.4-2.2c-0.1-1.3-0.1-1.6-0.1-4.8s0-3.6,0.1-4.8c0.1-1.2,0.2-1.8,0.4-2.2
			c0.2-0.6,0.5-1,0.9-1.4s0.8-0.7,1.4-0.9c0.4-0.2,1.1-0.4,2.2-0.4C84.7,173.2,85.1,173.2,88.3,173.2 M88.3,171
			c-3.3,0-3.7,0-4.9,0.1c-1.3,0.1-2.1,0.3-2.9,0.6c-0.8,0.3-1.5,0.7-2.1,1.4s-1.1,1.3-1.4,2.1c-0.3,0.8-0.5,1.6-0.6,2.9
			c-0.1,1.3-0.1,1.7-0.1,4.9s0,3.7,0.1,4.9c0.1,1.3,0.3,2.2,0.6,2.9c0.3,0.8,0.7,1.5,1.4,2.1s1.3,1.1,2.1,1.4
			c0.8,0.3,1.6,0.5,2.9,0.6c1.3,0.1,1.7,0.1,4.9,0.1s3.7,0,4.9-0.1c1.3-0.1,2.1-0.3,2.9-0.6c0.8-0.3,1.5-0.7,2.1-1.4
			s1.1-1.3,1.4-2.1c0.3-0.8,0.5-1.6,0.6-2.9c0.1-1.3,0.1-1.7,0.1-4.9s0-3.7-0.1-4.9c-0.1-1.3-0.3-2.2-0.6-2.9
			c-0.3-0.8-0.7-1.5-1.4-2.1s-1.3-1.1-2.1-1.4c-0.8-0.3-1.6-0.5-2.9-0.6C92,171,91.5,171,88.3,171L88.3,171z"/>
		<path d="M88.3,176.8c-3.4,0-6.2,2.8-6.2,6.2s2.8,6.2,6.2,6.2s6.2-2.8,6.2-6.2S91.7,176.8,88.3,176.8z M88.3,187c-2.2,0-4-1.8-4-4
			s1.8-4,4-4s4,1.8,4,4S90.5,187,88.3,187z"/>
		<circle cx="94.7" cy="176.6" r="1.4"/>
	</g>
	<g>
		<path d="M393.7,195L393.7,195c-0.3,0-0.6-0.3-0.6-0.6v-21.2c0-0.3,0.3-0.6,0.6-0.6l0,0c0.3,0,0.6,0.3,0.6,0.6v21.2
			C394.3,194.7,394.1,195,393.7,195z"/>
		<path d="M391.5,195L391.5,195c-0.3,0-0.6-0.3-0.6-0.6v-19.9c0-0.3,0.3-0.6,0.6-0.6l0,0c0.3,0,0.6,0.3,0.6,0.6v19.9
			C392.1,194.7,391.8,195,391.5,195z"/>
		<path d="M389.3,195L389.3,195c-0.3,0-0.6-0.3-0.6-0.6v-17.6c0-0.3,0.3-0.6,0.6-0.6l0,0c0.3,0,0.6,0.3,0.6,0.6v17.6
			C389.8,194.7,389.6,195,389.3,195z"/>
		<path d="M387,195L387,195c-0.3,0-0.6-0.3-0.6-0.6v-18c0-0.3,0.3-0.6,0.6-0.6l0,0c0.3,0,0.6,0.3,0.6,0.6v18
			C387.6,194.7,387.3,195,387,195z"/>
		<path d="M384.8,195L384.8,195c-0.3,0-0.6-0.3-0.6-0.6v-18.3c0-0.3,0.3-0.6,0.6-0.6l0,0c0.3,0,0.6,0.3,0.6,0.6v18.3
			C385.4,194.7,385.1,195,384.8,195z"/>
		<path d="M382.5,195L382.5,195c-0.3,0-0.6-0.3-0.6-0.6v-17.8c0-0.3,0.3-0.6,0.6-0.6l0,0c0.3,0,0.6,0.3,0.6,0.6v17.8
			C383.1,194.7,382.9,195,382.5,195z"/>
		<path d="M366.9,191.9L366.9,191.9c-0.3,0-0.6-0.3-0.6-0.6V186c0-0.3,0.3-0.6,0.6-0.6l0,0c0.3,0,0.6,0.3,0.6,0.6v5.3
			C367.5,191.6,367.2,191.9,366.9,191.9z"/>
		<path d="M369.1,193.7L369.1,193.7c-0.3,0-0.6-0.3-0.6-0.6v-9.1c0-0.3,0.3-0.6,0.6-0.6l0,0c0.3,0,0.6,0.3,0.6,0.6v9.1
			C369.7,193.5,369.4,193.7,369.1,193.7z"/>
		<path d="M371.4,194.6L371.4,194.6c-0.3,0-0.6-0.3-0.6-0.6v-10.9c0-0.3,0.3-0.6,0.6-0.6l0,0c0.3,0,0.6,0.3,0.6,0.6V194
			C371.9,194.3,371.7,194.6,371.4,194.6z"/>
		<path d="M373.6,194.8L373.6,194.8c-0.3,0-0.6-0.3-0.6-0.6v-11.4c0-0.3,0.3-0.6,0.6-0.6l0,0c0.3,0,0.6,0.3,0.6,0.6v11.4
			C374.2,194.5,373.9,194.8,373.6,194.8z"/>
		<path d="M375.8,194.9L375.8,194.9c-0.3,0-0.6-0.3-0.6-0.6v-11.1c0-0.3,0.3-0.6,0.6-0.6l0,0c0.3,0,0.6,0.3,0.6,0.6v11.1
			C376.4,194.6,376.2,194.9,375.8,194.9z"/>
		<path d="M378.1,195L378.1,195c-0.3,0-0.6-0.3-0.6-0.6v-14.7c0-0.3,0.3-0.6,0.6-0.6l0,0c0.3,0,0.6,0.3,0.6,0.6v14.7
			C378.7,194.7,378.4,195,378.1,195z"/>
		<path d="M380.3,195L380.3,195c-0.3,0-0.6-0.3-0.6-0.6v-16.8c0-0.3,0.3-0.6,0.6-0.6l0,0c0.3,0,0.6,0.3,0.6,0.6v16.8
			C380.9,194.7,380.6,195,380.3,195z"/>
		<path d="M414.7,181.4c-0.9,0-1.8,0.2-2.6,0.5c-0.5-6.1-5.7-10.9-11.9-10.9c-1.5,0-3,0.3-4.3,0.8c-0.5,0.2-0.6,0.4-0.7,0.8v21.6
			c0,0.4,0.3,0.8,0.7,0.8c0,0,18.7,0,18.8,0c3.8,0,6.8-3,6.8-6.8C421.5,184.5,418.4,181.4,414.7,181.4z"/>
	</g>
	<g>
		<path d="M353.4,177c-3.3,0-6.1,2.6-6.1,6s2.6,6.1,6,6.1c3.3,0,6.1-2.6,6.1-6C359.4,179.7,356.7,177,353.4,177z M353.3,186
			c-1.7,0-3-1.4-3-3.1s1.4-3,3.1-3s3,1.4,3,3.1C356.4,184.7,355,186.1,353.3,186z"/>
		<path d="M353.3,171C353.3,171,353.2,171,353.3,171L353.3,171l-7.8,0H343h-0.7c-0.5,0-1,0.4-1,1v0.6v2v8.4c0,6.6,5.4,12,12,12
			s12-5.4,12-12C365.3,176.4,359.9,171,353.3,171z M345,182.8c0-4.6,3.8-8.3,8.4-8.3c4.6,0,8.3,3.8,8.3,8.4c0,4.6-3.8,8.3-8.4,8.3
			C348.7,191.2,345,187.4,345,182.8z"/>
	</g>
	<g id="Smuggy_2_">
		<path d="M324.5,175.7c2.2,0,3.3-1.3,3.1-2.5c-0.1-1-1.1-1.9-2.9-1.9c-1.5,0-2.5,1.1-2.6,2.2C322,174.7,322.6,175.8,324.5,175.7z"
			/>
		<path d="M335.5,175.5c2.1-0.1,3-1.2,3.1-2.2c0-1.2-1.1-2.4-3-2.2c-1.5,0.1-2.4,1.2-2.6,2.2C332.9,174.4,333.6,175.6,335.5,175.5z"
			/>
		<path d="M336.9,180.2c-5.3,0.5-5.5,0.6-15.2,0.8c-4.1,0-3.2,14,5.5,14C335.5,195,345.5,179.3,336.9,180.2z M327.4,192.5
			c-7.6,0-6.6-9.1-5.3-9.1c8.9-0.4,11.1-0.7,14.3-0.7C339.6,182.7,333.5,192.5,327.4,192.5z"/>
	</g>
	<g>
		<path d="M314.1,171h-15.6c-2.3,0-4.2,1.9-4.2,4.2v15.6c0,2.3,1.9,4.2,4.2,4.2h15.6c2.3,0,4.2-1.9,4.2-4.2v-15.6
			C318.3,172.9,316.4,171,314.1,171z M312.4,185.1c0,1.9-0.5,3.3-1.5,4.3c-1,1-2.7,1.5-4.6,1.5s-3.6-0.5-4.6-1.5s-1.5-2.4-1.5-4.3
			v-8.7h3.8v8.4c0,1,0.2,1.7,0.6,2.2s1,0.7,1.7,0.7c0.7,0,1.4-0.3,1.7-0.7c0.4-0.5,0.6-1.2,0.6-2.2v-8.4h3.8L312.4,185.1
			L312.4,185.1z"/>
	</g>
	<g>
		<g>
			<g>
				<path d="M291.5,171h-20.5c-1,0-1.8,0.8-1.8,1.7v20.5c0,1,0.8,1.7,1.8,1.7h20.5c1,0,1.8-0.8,1.8-1.7v-20.5
					C293.3,171.8,292.5,171,291.5,171z M276.4,191.5h-3.6V180h3.6V191.5z M274.6,178.4c-1.1,0-2.1-0.9-2.1-2.1
					c0-1.1,0.9-2.1,2.1-2.1c1.1,0,2.1,0.9,2.1,2.1C276.7,177.5,275.8,178.4,274.6,178.4z M289.7,191.5h-3.6v-5.6c0-1.3,0-3-1.8-3
					c-1.9,0-2.1,1.4-2.1,2.9v5.7h-3.6V180h3.4v1.6h0c0.5-0.9,1.6-1.8,3.4-1.8c3.6,0,4.3,2.4,4.3,5.5V191.5z"/>
			</g>
		</g>
	</g>
	<path d="M431.9,171c-5.4,0-9.6,4.5-9.6,9.9c0,5.7,7.4,14.1,9.6,14.1c1.9,0,9.3-8.4,9.3-14.1C441.2,175.5,437,171,431.9,171z
		 M431.9,186.1c-3.3,0-5.9-2.5-5.9-5.5c0-1.4,0.5-2.6,1.2-3.6c0,0,0,0,0,0c0,1.2,1,2.2,2.3,2.2s2.3-1,2.3-2.2c0-0.9-0.6-1.7-1.4-2.1
		c0.5-0.1,1-0.2,1.5-0.2c3,0,5.6,2.5,5.6,5.9C437.5,183.5,434.9,186.1,431.9,186.1z"/>
	<g>
		<path fill="#FFC627" d="M451.6,206.2h2.6c0.5,0,0.9-0.4,0.9-0.9s-0.4-0.9-0.9-0.9h-2.6c-0.5,0-0.9,0.4-0.9,0.9
			S451.1,206.2,451.6,206.2z"/>
		<path fill="#FFC627" d="M456.9,209.7h-5.2c-0.5,0-0.9,0.4-0.9,0.9c0,0.5,0.4,0.9,0.9,0.9h5.2c0.5,0,0.9-0.4,0.9-0.9
			C457.8,210.1,457.4,209.7,456.9,209.7z"/>
		<path fill="#FFC627" d="M462.3,196h-16.1c-2.2,0-4,1.8-4,4V216c0,2.2,1.8,4,4,4h16.1c2.2,0,4-1.8,4-4V200
			C466.3,197.8,464.5,196,462.3,196z M461.6,210.7c0,2.5-2.1,4.6-4.6,4.6h-5.3c-2.6,0-4.6-2.1-4.6-4.6v-5.4c0-2.6,2.1-4.6,4.6-4.6
			h3.2c1.2,0.1,2.9,1.2,3.6,2.5c0.2,0.4,0.3,0.4,0.4,1.6c0.1,0.6,0.1,1,0.4,1.3c0.4,0.3,1.7,0.1,2,0.3l0.2,0.2l0.1,0.3l0,0.2
			L461.6,210.7z"/>
	</g>
	<g>
		<path fill="#FFC627" d="M241,201.6c-0.1,2.7-2,6.4-5.7,11.1c-3.8,4.9-7,7.4-9.6,7.4c-1.6,0-3-1.5-4.1-4.5
			c-0.7-2.7-1.5-5.5-2.2-8.2c-0.8-3-1.7-4.5-2.7-4.5c-0.2,0-0.9,0.4-2.2,1.3l-1.3-1.7c1.4-1.2,2.7-2.4,4-3.6
			c1.8-1.6,3.2-2.4,4.1-2.5c2.2-0.2,3.5,1.3,4,4.4c0.5,3.4,0.9,5.5,1.1,6.4c0.6,2.8,1.3,4.2,2.1,4.2c0.6,0,1.5-0.9,2.6-2.8
			c1.2-1.8,1.8-3.2,1.9-4.2c0.2-1.6-0.5-2.4-1.9-2.4c-0.7,0-1.3,0.2-2.1,0.5c1.4-4.5,4-6.6,7.8-6.5
			C239.8,196.1,241.2,197.9,241,201.6z"/>
	</g>
	<g>
		<polygon fill="#FFC627" points="254.5,206.2 255.5,209.3 258.7,209.3 256.1,211.2 257.1,214.2 254.5,212.4 251.9,214.2 
			252.9,211.2 250.3,209.3 253.5,209.3 		"/>
		<path fill="#FFC627" d="M263.5,196h-18c-2.3,0-4.3,1.9-4.3,4.3v15.5c0,2.3,1.9,4.3,4.3,4.3h18c2.3,0,4.3-1.9,4.3-4.3v-15.5
			C267.8,197.9,265.9,196,263.5,196z M253.3,198.5c0.7,0,1.3,0.6,1.3,1.3s-0.6,1.3-1.3,1.3s-1.3-0.6-1.3-1.3
			S252.6,198.5,253.3,198.5z M249.3,198.5c0.7,0,1.3,0.6,1.3,1.3s-0.6,1.3-1.3,1.3s-1.3-0.6-1.3-1.3S248.6,198.5,249.3,198.5z
			 M245.3,198.5c0.7,0,1.3,0.6,1.3,1.3s-0.6,1.3-1.3,1.3s-1.3-0.6-1.3-1.3S244.6,198.5,245.3,198.5z M265.3,215.8
			c0,1-0.8,1.8-1.8,1.8h-18c-1,0-1.8-0.8-1.8-1.8V203h21.5V215.8z"/>
	</g>
	<g>
		<path fill="#FFC627" d="M37.8,198.8c-1.1,0.5-2.3,0.8-3.5,1c1.3-0.8,2.2-1.9,2.7-3.4c-1.2,0.7-2.5,1.2-3.8,1.5
			c-1.1-1.2-2.7-1.9-4.4-1.9c-3.3,0-6.1,2.7-6.1,6.1c0,0.5,0.1,0.9,0.2,1.4c-5-0.3-9.5-2.7-12.5-6.3c-0.5,0.9-0.8,1.9-0.8,3
			c0,2.1,1.1,4,2.7,5c-1,0-1.9-0.3-2.7-0.8c0,0,0,0.1,0,0.1c0,2.9,2.1,5.4,4.9,5.9c-0.5,0.1-1,0.2-1.6,0.2c-0.4,0-0.8,0-1.1-0.1
			c0.8,2.4,3,4.2,5.7,4.2c-2.1,1.6-4.7,2.6-7.5,2.6c-0.5,0-1,0-1.4-0.1c2.7,1.7,5.9,2.7,9.3,2.7c11.1,0,17.2-9.2,17.2-17.2
			c0-0.3,0-0.5,0-0.8C36,201.1,37,200.1,37.8,198.8L37.8,198.8z"/>
	</g>
	<path fill="#FFC627" d="M162.3,206.5h-3.8v-3.8h-3v3.8h-3.8v3h3.8v3.8h3v-3.8h3.8 M138.3,205.8v4.7h6.5c-0.5,2.8-2.9,4.9-6.5,4.9
		c-4,0-7.2-3.4-7.2-7.3s3.2-7.3,7.2-7.3c1.8,0,3.4,0.6,4.6,1.8v0l3.4-3.4c-2.1-1.9-4.8-3.1-8-3.1c-6.6,0-12,5.4-12,12s5.4,12,12,12
		c6.9,0,11.5-4.9,11.5-11.7c0-0.9-0.1-1.7-0.2-2.5L138.3,205.8L138.3,205.8z"/>
	<g>
		<path fill="#FFC627" d="M50.3,196c-6.6,0-12,5.4-12,12c0,5.1,3.2,9.4,7.6,11.2c-0.1-0.9-0.2-2.4,0-3.4c0.2-0.9,1.4-6,1.4-6
			S47,209.1,47,208c0-1.7,1-2.9,2.2-2.9c1,0,1.5,0.8,1.5,1.7c0,1-0.7,2.6-1,4c-0.3,1.2,0.6,2.2,1.8,2.2c2.1,0,3.8-2.2,3.8-5.5
			c0-2.9-2.1-4.9-5-4.9c-3.4,0-5.4,2.6-5.4,5.2c0,1,0.4,2.1,0.9,2.7c0.1,0.1,0.1,0.2,0.1,0.3c-0.1,0.4-0.3,1.2-0.3,1.4
			c-0.1,0.2-0.2,0.3-0.4,0.2c-1.5-0.7-2.4-2.9-2.4-4.6c0-3.8,2.8-7.3,7.9-7.3c4.2,0,7.4,3,7.4,6.9c0,4.1-2.6,7.5-6.2,7.5
			c-1.2,0-2.4-0.6-2.8-1.4c0,0-0.6,2.3-0.7,2.9c-0.3,1-1,2.4-1.5,3.1c1.1,0.3,2.3,0.5,3.6,0.5c6.6,0,12-5.4,12-12S56.9,196,50.3,196
			z"/>
	</g>
	<g>
		<path fill="#FFC627" d="M124,197.3c-0.9-0.9-1.9-1.3-3.2-1.3h-15c-1.2,0-2.3,0.4-3.2,1.3c-0.9,0.9-1.3,1.9-1.3,3.2v15
			c0,1.2,0.4,2.3,1.3,3.2s1.9,1.3,3.2,1.3h15c1.2,0,2.3-0.4,3.2-1.3c0.9-0.9,1.3-1.9,1.3-3.2v-15C125.3,199.3,124.8,198.2,124,197.3
			L124,197.3z M111.2,210.3c-0.6,0.6-1.4,1-2.3,1s-1.7-0.3-2.3-1c-0.6-0.6-1-1.4-1-2.3c0-0.9,0.3-1.7,1-2.3s1.4-1,2.3-1
			s1.7,0.3,2.3,1c0.6,0.6,1,1.4,1,2.3C112.2,208.9,111.9,209.7,111.2,210.3L111.2,210.3z M120,210.3c-0.6,0.6-1.4,1-2.3,1
			s-1.7-0.3-2.3-1c-0.6-0.6-1-1.4-1-2.3c0-0.9,0.3-1.7,1-2.3s1.4-1,2.3-1s1.7,0.3,2.3,1c0.6,0.6,1,1.4,1,2.3
			C121,208.9,120.7,209.7,120,210.3L120,210.3z"/>
	</g>
	<g>
		<path fill="#FFC627" d="M210.9,207.4c-0.1,0.1-0.2,0.1-0.3,0.2v-9.3c0-1.3-1-2.3-2.2-2.3h-16.8c-1.2,0-2.2,1-2.2,2.3v9.3
			c-0.1-0.1-0.2-0.1-0.3-0.2c-0.7-0.5-1.2,0.2-0.7,0.8c0.9,1,2.5,2.4,5,3.4c-2.6,9,6.4,10.4,6.3,5.8c0,0.1,0-2.6,0-4.5
			c0.2,0.1,0.4,0.1,0.6,0.2c0,1.9,0,4.5,0,4.4c-0.1,4.6,8.9,3.2,6.3-5.8c2.5-1,4.1-2.3,5-3.4C212.1,207.6,211.6,206.9,210.9,207.4
			L210.9,207.4z M202,209.7c-1.1-0.1-1.5,0.4-1.6,1.2c-0.3-0.2-0.5-0.4-0.8-0.7c0,0-0.1-0.1-0.1-0.1c-0.2-0.3-0.6-0.4-1.3-0.4
			c-1.5,0-4.2,0.3-7.4-1.3v-9c0-1.6,0.4-2.1,1.9-2.1h14.9c1.4,0,1.9,0.6,1.9,2.1v8.9C206.3,210.1,203.5,209.8,202,209.7L202,209.7z"
			/>
		<path fill="#FFC627" d="M203.6,203.2c-1.6,0-2.9,1.2-2.9,2.7c0,1.5,1.3,2.7,2.9,2.7c1.6,0,2.9-1.2,2.9-2.7
			C206.5,204.4,205.2,203.2,203.6,203.2L203.6,203.2z"/>
		<path fill="#FFC627" d="M199.8,205.9c0,1.5-1.3,2.7-2.9,2.7c-1.6,0-2.9-1.2-2.9-2.7c0-1.5,1.3-2.7,2.9-2.7
			C198.5,203.2,199.8,204.4,199.8,205.9L199.8,205.9z"/>
	</g>
	<path fill="#FFC627" d="M71.4,220v-10.9H75l0.5-4.3h-4.2v-2.7c0-1.2,0.3-2.1,2.1-2.1h2.3v-3.8c-0.4,0-1.7-0.2-3.3-0.2
		c-3.3,0-5.5,2-5.5,5.6v3.1h-3.7v4.3H67V220H71.4z"/>
	<g>
		<path fill="#FFC627" d="M173.1,210.6c1.8-0.9,3.6-1.9,5.4-2.8c-1.8-0.9-3.6-1.9-5.4-2.8V210.6z"/>
		<path fill="#FFC627" d="M175.3,196c-6.6,0-12,5.4-12,12c0,6.6,5.4,12,12,12c6.6,0,12-5.4,12-12C187.3,201.4,181.9,196,175.3,196
			L175.3,196z M183.5,212c-0.2,0.9-0.9,1.6-1.8,1.7c-2.1,0.2-4.2,0.2-6.3,0.2c-2.1,0-4.2,0-6.3-0.2c-0.9-0.1-1.6-0.8-1.8-1.7
			c-0.3-1.3-0.3-2.7-0.3-4c0-1.3,0-2.7,0.3-4c0.2-0.9,0.9-1.6,1.8-1.7c2.1-0.2,4.2-0.2,6.3-0.2c2.1,0,4.2,0,6.3,0.2
			c0.9,0.1,1.6,0.8,1.8,1.7c0.3,1.3,0.3,2.7,0.3,4C183.8,209.3,183.8,210.7,183.5,212L183.5,212z"/>
	</g>
	<g>
		<path fill="#FFC627" d="M88.3,198.2c3.2,0,3.6,0,4.8,0.1c1.2,0.1,1.8,0.2,2.2,0.4c0.6,0.2,1,0.5,1.4,0.9s0.7,0.8,0.9,1.4
			c0.2,0.4,0.4,1.1,0.4,2.2c0.1,1.3,0.1,1.6,0.1,4.8s0,3.6-0.1,4.8c-0.1,1.2-0.2,1.8-0.4,2.2c-0.2,0.6-0.5,1-0.9,1.4
			s-0.8,0.7-1.4,0.9c-0.4,0.2-1.1,0.4-2.2,0.4c-1.3,0.1-1.6,0.1-4.8,0.1s-3.6,0-4.8-0.1c-1.2-0.1-1.8-0.2-2.2-0.4
			c-0.6-0.2-1-0.5-1.4-0.9s-0.7-0.8-0.9-1.4c-0.2-0.4-0.4-1.1-0.4-2.2c-0.1-1.3-0.1-1.6-0.1-4.8s0-3.6,0.1-4.8
			c0.1-1.2,0.2-1.8,0.4-2.2c0.2-0.6,0.5-1,0.9-1.4s0.8-0.7,1.4-0.9c0.4-0.2,1.1-0.4,2.2-0.4C84.7,198.2,85.1,198.2,88.3,198.2
			 M88.3,196c-3.3,0-3.7,0-4.9,0.1c-1.3,0.1-2.1,0.3-2.9,0.6c-0.8,0.3-1.5,0.7-2.1,1.4s-1.1,1.3-1.4,2.1c-0.3,0.8-0.5,1.6-0.6,2.9
			c-0.1,1.3-0.1,1.7-0.1,4.9s0,3.7,0.1,4.9c0.1,1.3,0.3,2.2,0.6,2.9c0.3,0.8,0.7,1.5,1.4,2.1s1.3,1.1,2.1,1.4
			c0.8,0.3,1.6,0.5,2.9,0.6c1.3,0.1,1.7,0.1,4.9,0.1s3.7,0,4.9-0.1c1.3-0.1,2.1-0.3,2.9-0.6c0.8-0.3,1.5-0.7,2.1-1.4
			s1.1-1.3,1.4-2.1c0.3-0.8,0.5-1.6,0.6-2.9c0.1-1.3,0.1-1.7,0.1-4.9s0-3.7-0.1-4.9c-0.1-1.3-0.3-2.2-0.6-2.9
			c-0.3-0.8-0.7-1.5-1.4-2.1s-1.3-1.1-2.1-1.4c-0.8-0.3-1.6-0.5-2.9-0.6C92,196,91.5,196,88.3,196L88.3,196z"/>
		<path fill="#FFC627" d="M88.3,201.8c-3.4,0-6.2,2.8-6.2,6.2s2.8,6.2,6.2,6.2s6.2-2.8,6.2-6.2S91.7,201.8,88.3,201.8z M88.3,212
			c-2.2,0-4-1.8-4-4s1.8-4,4-4s4,1.8,4,4S90.5,212,88.3,212z"/>
		<circle fill="#FFC627" cx="94.7" cy="201.6" r="1.4"/>
	</g>
	<g>
		<path fill="#FFC627" d="M393.7,220L393.7,220c-0.3,0-0.6-0.3-0.6-0.6v-21.2c0-0.3,0.3-0.6,0.6-0.6l0,0c0.3,0,0.6,0.3,0.6,0.6v21.2
			C394.3,219.7,394.1,220,393.7,220z"/>
		<path fill="#FFC627" d="M391.5,220L391.5,220c-0.3,0-0.6-0.3-0.6-0.6v-19.9c0-0.3,0.3-0.6,0.6-0.6l0,0c0.3,0,0.6,0.3,0.6,0.6v19.9
			C392.1,219.7,391.8,220,391.5,220z"/>
		<path fill="#FFC627" d="M389.3,220L389.3,220c-0.3,0-0.6-0.3-0.6-0.6v-17.6c0-0.3,0.3-0.6,0.6-0.6l0,0c0.3,0,0.6,0.3,0.6,0.6v17.6
			C389.8,219.7,389.6,220,389.3,220z"/>
		<path fill="#FFC627" d="M387,220L387,220c-0.3,0-0.6-0.3-0.6-0.6v-18c0-0.3,0.3-0.6,0.6-0.6l0,0c0.3,0,0.6,0.3,0.6,0.6v18
			C387.6,219.7,387.3,220,387,220z"/>
		<path fill="#FFC627" d="M384.8,220L384.8,220c-0.3,0-0.6-0.3-0.6-0.6v-18.3c0-0.3,0.3-0.6,0.6-0.6l0,0c0.3,0,0.6,0.3,0.6,0.6v18.3
			C385.4,219.7,385.1,220,384.8,220z"/>
		<path fill="#FFC627" d="M382.5,220L382.5,220c-0.3,0-0.6-0.3-0.6-0.6v-17.8c0-0.3,0.3-0.6,0.6-0.6l0,0c0.3,0,0.6,0.3,0.6,0.6v17.8
			C383.1,219.7,382.9,220,382.5,220z"/>
		<path fill="#FFC627" d="M366.9,216.9L366.9,216.9c-0.3,0-0.6-0.3-0.6-0.6V211c0-0.3,0.3-0.6,0.6-0.6l0,0c0.3,0,0.6,0.3,0.6,0.6
			v5.3C367.5,216.6,367.2,216.9,366.9,216.9z"/>
		<path fill="#FFC627" d="M369.1,218.7L369.1,218.7c-0.3,0-0.6-0.3-0.6-0.6v-9.1c0-0.3,0.3-0.6,0.6-0.6l0,0c0.3,0,0.6,0.3,0.6,0.6
			v9.1C369.7,218.5,369.4,218.7,369.1,218.7z"/>
		<path fill="#FFC627" d="M371.4,219.6L371.4,219.6c-0.3,0-0.6-0.3-0.6-0.6v-10.9c0-0.3,0.3-0.6,0.6-0.6l0,0c0.3,0,0.6,0.3,0.6,0.6
			V219C371.9,219.3,371.7,219.6,371.4,219.6z"/>
		<path fill="#FFC627" d="M373.6,219.8L373.6,219.8c-0.3,0-0.6-0.3-0.6-0.6v-11.4c0-0.3,0.3-0.6,0.6-0.6l0,0c0.3,0,0.6,0.3,0.6,0.6
			v11.4C374.2,219.5,373.9,219.8,373.6,219.8z"/>
		<path fill="#FFC627" d="M375.8,219.9L375.8,219.9c-0.3,0-0.6-0.3-0.6-0.6v-11.1c0-0.3,0.3-0.6,0.6-0.6l0,0c0.3,0,0.6,0.3,0.6,0.6
			v11.1C376.4,219.6,376.2,219.9,375.8,219.9z"/>
		<path fill="#FFC627" d="M378.1,220L378.1,220c-0.3,0-0.6-0.3-0.6-0.6v-14.7c0-0.3,0.3-0.6,0.6-0.6l0,0c0.3,0,0.6,0.3,0.6,0.6v14.7
			C378.7,219.7,378.4,220,378.1,220z"/>
		<path fill="#FFC627" d="M380.3,220L380.3,220c-0.3,0-0.6-0.3-0.6-0.6v-16.8c0-0.3,0.3-0.6,0.6-0.6l0,0c0.3,0,0.6,0.3,0.6,0.6v16.8
			C380.9,219.7,380.6,220,380.3,220z"/>
		<path fill="#FFC627" d="M414.7,206.4c-0.9,0-1.8,0.2-2.6,0.5c-0.5-6.1-5.7-10.9-11.9-10.9c-1.5,0-3,0.3-4.3,0.8
			c-0.5,0.2-0.6,0.4-0.7,0.8v21.6c0,0.4,0.3,0.8,0.7,0.8c0,0,18.7,0,18.8,0c3.8,0,6.8-3,6.8-6.8
			C421.5,209.5,418.4,206.4,414.7,206.4z"/>
	</g>
	<g>
		<path fill="#FFC627" d="M353.4,202c-3.3,0-6.1,2.6-6.1,6s2.6,6.1,6,6.1c3.3,0,6.1-2.6,6.1-6C359.4,204.7,356.7,202,353.4,202z
			 M353.3,211c-1.7,0-3-1.4-3-3.1s1.4-3,3.1-3s3,1.4,3,3.1C356.4,209.7,355,211.1,353.3,211z"/>
		<path fill="#FFC627" d="M353.3,196C353.3,196,353.2,196,353.3,196L353.3,196l-7.8,0H343h-0.7c-0.5,0-1,0.4-1,1v0.6v2v8.4
			c0,6.6,5.4,12,12,12s12-5.4,12-12C365.3,201.4,359.9,196,353.3,196z M345,207.8c0-4.6,3.8-8.3,8.4-8.3c4.6,0,8.3,3.8,8.3,8.4
			c0,4.6-3.8,8.3-8.4,8.3C348.7,216.2,345,212.4,345,207.8z"/>
	</g>
	<g id="Smuggy_1_">
		<path fill="#FFC627" d="M324.5,200.7c2.2,0,3.3-1.3,3.1-2.5c-0.1-1-1.1-1.9-2.9-1.9c-1.5,0-2.5,1.1-2.6,2.2
			C322,199.7,322.6,200.8,324.5,200.7z"/>
		<path fill="#FFC627" d="M335.5,200.5c2.1-0.1,3-1.2,3.1-2.2c0-1.2-1.1-2.4-3-2.2c-1.5,0.1-2.4,1.2-2.6,2.2
			C332.9,199.4,333.6,200.6,335.5,200.5z"/>
		<path fill="#FFC627" d="M336.9,205.2c-5.3,0.5-5.5,0.6-15.2,0.8c-4.1,0-3.2,14,5.5,14C335.5,220,345.5,204.3,336.9,205.2z
			 M327.4,217.5c-7.6,0-6.6-9.1-5.3-9.1c8.9-0.4,11.1-0.7,14.3-0.7C339.6,207.7,333.5,217.5,327.4,217.5z"/>
	</g>
	<g>
		<path fill="#FFC627" d="M314.1,196h-15.6c-2.3,0-4.2,1.9-4.2,4.2v15.6c0,2.3,1.9,4.2,4.2,4.2h15.6c2.3,0,4.2-1.9,4.2-4.2v-15.6
			C318.3,197.9,316.4,196,314.1,196z M312.4,210.1c0,1.9-0.5,3.3-1.5,4.3c-1,1-2.7,1.5-4.6,1.5s-3.6-0.5-4.6-1.5s-1.5-2.4-1.5-4.3
			v-8.7h3.8v8.4c0,1,0.2,1.7,0.6,2.2s1,0.7,1.7,0.7c0.7,0,1.4-0.3,1.7-0.7c0.4-0.5,0.6-1.2,0.6-2.2v-8.4h3.8L312.4,210.1
			L312.4,210.1z"/>
	</g>
	<g>
		<g>
			<g>
				<path fill="#FFC627" d="M291.5,196h-20.5c-1,0-1.8,0.8-1.8,1.7v20.5c0,1,0.8,1.7,1.8,1.7h20.5c1,0,1.8-0.8,1.8-1.7v-20.5
					C293.3,196.8,292.5,196,291.5,196z M276.4,216.5h-3.6V205h3.6V216.5z M274.6,203.4c-1.1,0-2.1-0.9-2.1-2.1
					c0-1.1,0.9-2.1,2.1-2.1c1.1,0,2.1,0.9,2.1,2.1C276.7,202.5,275.8,203.4,274.6,203.4z M289.7,216.5h-3.6v-5.6c0-1.3,0-3-1.8-3
					c-1.9,0-2.1,1.4-2.1,2.9v5.7h-3.6V205h3.4v1.6h0c0.5-0.9,1.6-1.8,3.4-1.8c3.6,0,4.3,2.4,4.3,5.5V216.5z"/>
			</g>
		</g>
	</g>
	<path fill="#FFC627" d="M431.9,196c-5.4,0-9.6,4.5-9.6,9.9c0,5.7,7.4,14.1,9.6,14.1c1.9,0,9.3-8.4,9.3-14.1
		C441.2,200.5,437,196,431.9,196z M431.9,211.1c-3.3,0-5.9-2.5-5.9-5.5c0-1.4,0.5-2.6,1.2-3.6c0,0,0,0,0,0c0,1.2,1,2.2,2.3,2.2
		s2.3-1,2.3-2.2c0-0.9-0.6-1.7-1.4-2.1c0.5-0.1,1-0.2,1.5-0.2c3,0,5.6,2.5,5.6,5.9C437.5,208.5,434.9,211.1,431.9,211.1z"/>
	<g>
		<path fill="#FFFFFF" d="M451.6,231.2h2.6c0.5,0,0.9-0.4,0.9-0.9s-0.4-0.9-0.9-0.9h-2.6c-0.5,0-0.9,0.4-0.9,0.9
			S451.1,231.2,451.6,231.2z"/>
		<path fill="#FFFFFF" d="M456.9,234.7h-5.2c-0.5,0-0.9,0.4-0.9,0.9c0,0.5,0.4,0.9,0.9,0.9h5.2c0.5,0,0.9-0.4,0.9-0.9
			C457.8,235.1,457.4,234.7,456.9,234.7z"/>
		<path fill="#FFFFFF" d="M462.3,221h-16.1c-2.2,0-4,1.8-4,4V241c0,2.2,1.8,4,4,4h16.1c2.2,0,4-1.8,4-4V225
			C466.3,222.8,464.5,221,462.3,221z M461.6,235.7c0,2.5-2.1,4.6-4.6,4.6h-5.3c-2.6,0-4.6-2.1-4.6-4.6v-5.4c0-2.6,2.1-4.6,4.6-4.6
			h3.2c1.2,0.1,2.9,1.2,3.6,2.5c0.2,0.4,0.3,0.4,0.4,1.6c0.1,0.6,0.1,1,0.4,1.3c0.4,0.3,1.7,0.1,2,0.3l0.2,0.2l0.1,0.3l0,0.2
			L461.6,235.7z"/>
	</g>
	<g>
		<path fill="#FFFFFF" d="M241,226.6c-0.1,2.7-2,6.4-5.7,11.1c-3.8,4.9-7,7.4-9.6,7.4c-1.6,0-3-1.5-4.1-4.5
			c-0.7-2.7-1.5-5.5-2.2-8.2c-0.8-3-1.7-4.5-2.7-4.5c-0.2,0-0.9,0.4-2.2,1.3l-1.3-1.7c1.4-1.2,2.7-2.4,4-3.6
			c1.8-1.6,3.2-2.4,4.1-2.5c2.2-0.2,3.5,1.3,4,4.4c0.5,3.4,0.9,5.5,1.1,6.4c0.6,2.8,1.3,4.2,2.1,4.2c0.6,0,1.5-0.9,2.6-2.8
			c1.2-1.8,1.8-3.2,1.9-4.2c0.2-1.6-0.5-2.4-1.9-2.4c-0.7,0-1.3,0.2-2.1,0.5c1.4-4.5,4-6.6,7.8-6.5
			C239.8,221.1,241.2,222.9,241,226.6z"/>
	</g>
	<g>
		<polygon fill="#FFFFFF" points="254.5,231.2 255.5,234.3 258.7,234.3 256.1,236.2 257.1,239.2 254.5,237.4 251.9,239.2 
			252.9,236.2 250.3,234.3 253.5,234.3 		"/>
		<path fill="#FFFFFF" d="M263.5,221h-18c-2.3,0-4.3,1.9-4.3,4.3v15.5c0,2.3,1.9,4.3,4.3,4.3h18c2.3,0,4.3-1.9,4.3-4.3v-15.5
			C267.8,222.9,265.9,221,263.5,221z M253.3,223.5c0.7,0,1.3,0.6,1.3,1.3s-0.6,1.3-1.3,1.3s-1.3-0.6-1.3-1.3
			S252.6,223.5,253.3,223.5z M249.3,223.5c0.7,0,1.3,0.6,1.3,1.3s-0.6,1.3-1.3,1.3s-1.3-0.6-1.3-1.3S248.6,223.5,249.3,223.5z
			 M245.3,223.5c0.7,0,1.3,0.6,1.3,1.3s-0.6,1.3-1.3,1.3s-1.3-0.6-1.3-1.3S244.6,223.5,245.3,223.5z M265.3,240.8
			c0,1-0.8,1.8-1.8,1.8h-18c-1,0-1.8-0.8-1.8-1.8V228h21.5V240.8z"/>
	</g>
	<g>
		<path fill="#FFFFFF" d="M37.8,223.8c-1.1,0.5-2.3,0.8-3.5,1c1.3-0.8,2.2-1.9,2.7-3.4c-1.2,0.7-2.5,1.2-3.8,1.5
			c-1.1-1.2-2.7-1.9-4.4-1.9c-3.3,0-6.1,2.7-6.1,6.1c0,0.5,0.1,0.9,0.2,1.4c-5-0.3-9.5-2.7-12.5-6.3c-0.5,0.9-0.8,1.9-0.8,3
			c0,2.1,1.1,4,2.7,5c-1,0-1.9-0.3-2.7-0.8c0,0,0,0.1,0,0.1c0,2.9,2.1,5.4,4.9,5.9c-0.5,0.1-1,0.2-1.6,0.2c-0.4,0-0.8,0-1.1-0.1
			c0.8,2.4,3,4.2,5.7,4.2c-2.1,1.6-4.7,2.6-7.5,2.6c-0.5,0-1,0-1.4-0.1c2.7,1.7,5.9,2.7,9.3,2.7c11.1,0,17.2-9.2,17.2-17.2
			c0-0.3,0-0.5,0-0.8C36,226.1,37,225.1,37.8,223.8L37.8,223.8z"/>
	</g>
	<path fill="#FFFFFF" d="M162.3,231.5h-3.8v-3.8h-3v3.8h-3.8v3h3.8v3.8h3v-3.8h3.8 M138.3,230.8v4.7h6.5c-0.5,2.8-2.9,4.9-6.5,4.9
		c-4,0-7.2-3.4-7.2-7.3s3.2-7.3,7.2-7.3c1.8,0,3.4,0.6,4.6,1.8v0l3.4-3.4c-2.1-1.9-4.8-3.1-8-3.1c-6.6,0-12,5.4-12,12s5.4,12,12,12
		c6.9,0,11.5-4.9,11.5-11.7c0-0.9-0.1-1.7-0.2-2.5L138.3,230.8L138.3,230.8z"/>
	<g>
		<path fill="#FFFFFF" d="M50.3,221c-6.6,0-12,5.4-12,12c0,5.1,3.2,9.4,7.6,11.2c-0.1-0.9-0.2-2.4,0-3.4c0.2-0.9,1.4-6,1.4-6
			S47,234.1,47,233c0-1.7,1-2.9,2.2-2.9c1,0,1.5,0.8,1.5,1.7c0,1-0.7,2.6-1,4c-0.3,1.2,0.6,2.2,1.8,2.2c2.1,0,3.8-2.2,3.8-5.5
			c0-2.9-2.1-4.9-5-4.9c-3.4,0-5.4,2.6-5.4,5.2c0,1,0.4,2.1,0.9,2.7c0.1,0.1,0.1,0.2,0.1,0.3c-0.1,0.4-0.3,1.2-0.3,1.4
			c-0.1,0.2-0.2,0.3-0.4,0.2c-1.5-0.7-2.4-2.9-2.4-4.6c0-3.8,2.8-7.3,7.9-7.3c4.2,0,7.4,3,7.4,6.9c0,4.1-2.6,7.5-6.2,7.5
			c-1.2,0-2.4-0.6-2.8-1.4c0,0-0.6,2.3-0.7,2.9c-0.3,1-1,2.4-1.5,3.1c1.1,0.3,2.3,0.5,3.6,0.5c6.6,0,12-5.4,12-12S56.9,221,50.3,221
			z"/>
	</g>
	<g>
		<path fill="#FFFFFF" d="M124,222.3c-0.9-0.9-1.9-1.3-3.2-1.3h-15c-1.2,0-2.3,0.4-3.2,1.3c-0.9,0.9-1.3,1.9-1.3,3.2v15
			c0,1.2,0.4,2.3,1.3,3.2s1.9,1.3,3.2,1.3h15c1.2,0,2.3-0.4,3.2-1.3c0.9-0.9,1.3-1.9,1.3-3.2v-15C125.3,224.3,124.8,223.2,124,222.3
			L124,222.3z M111.2,235.3c-0.6,0.6-1.4,1-2.3,1s-1.7-0.3-2.3-1c-0.6-0.6-1-1.4-1-2.3c0-0.9,0.3-1.7,1-2.3s1.4-1,2.3-1
			s1.7,0.3,2.3,1c0.6,0.6,1,1.4,1,2.3C112.2,233.9,111.9,234.7,111.2,235.3L111.2,235.3z M120,235.3c-0.6,0.6-1.4,1-2.3,1
			s-1.7-0.3-2.3-1c-0.6-0.6-1-1.4-1-2.3c0-0.9,0.3-1.7,1-2.3s1.4-1,2.3-1s1.7,0.3,2.3,1c0.6,0.6,1,1.4,1,2.3
			C121,233.9,120.7,234.7,120,235.3L120,235.3z"/>
	</g>
	<g>
		<path fill="#FFFFFF" d="M210.9,232.4c-0.1,0.1-0.2,0.1-0.3,0.2v-9.3c0-1.3-1-2.3-2.2-2.3h-16.8c-1.2,0-2.2,1-2.2,2.3v9.3
			c-0.1-0.1-0.2-0.1-0.3-0.2c-0.7-0.5-1.2,0.2-0.7,0.8c0.9,1,2.5,2.4,5,3.4c-2.6,9,6.4,10.4,6.3,5.8c0,0.1,0-2.6,0-4.5
			c0.2,0.1,0.4,0.1,0.6,0.2c0,1.9,0,4.5,0,4.4c-0.1,4.6,8.9,3.2,6.3-5.8c2.5-1,4.1-2.3,5-3.4C212.1,232.6,211.6,231.9,210.9,232.4
			L210.9,232.4z M202,234.7c-1.1-0.1-1.5,0.4-1.6,1.2c-0.3-0.2-0.5-0.4-0.8-0.7c0,0-0.1-0.1-0.1-0.1c-0.2-0.3-0.6-0.4-1.3-0.4
			c-1.5,0-4.2,0.3-7.4-1.3v-9c0-1.6,0.4-2.1,1.9-2.1h14.9c1.4,0,1.9,0.6,1.9,2.1v8.9C206.3,235.1,203.5,234.8,202,234.7L202,234.7z"
			/>
		<path fill="#FFFFFF" d="M203.6,228.2c-1.6,0-2.9,1.2-2.9,2.7c0,1.5,1.3,2.7,2.9,2.7c1.6,0,2.9-1.2,2.9-2.7
			C206.5,229.4,205.2,228.2,203.6,228.2L203.6,228.2z"/>
		<path fill="#FFFFFF" d="M199.8,230.9c0,1.5-1.3,2.7-2.9,2.7c-1.6,0-2.9-1.2-2.9-2.7c0-1.5,1.3-2.7,2.9-2.7
			C198.5,228.2,199.8,229.4,199.8,230.9L199.8,230.9z"/>
	</g>
	<path fill="#FFFFFF" d="M71.4,245v-10.9H75l0.5-4.3h-4.2v-2.7c0-1.2,0.3-2.1,2.1-2.1h2.3v-3.8c-0.4,0-1.7-0.2-3.3-0.2
		c-3.3,0-5.5,2-5.5,5.6v3.1h-3.7v4.3H67V245H71.4z"/>
	<g>
		<path fill="#FFFFFF" d="M173.1,235.6c1.8-0.9,3.6-1.9,5.4-2.8c-1.8-0.9-3.6-1.9-5.4-2.8V235.6z"/>
		<path fill="#FFFFFF" d="M175.3,221c-6.6,0-12,5.4-12,12c0,6.6,5.4,12,12,12c6.6,0,12-5.4,12-12C187.3,226.4,181.9,221,175.3,221
			L175.3,221z M183.5,237c-0.2,0.9-0.9,1.6-1.8,1.7c-2.1,0.2-4.2,0.2-6.3,0.2c-2.1,0-4.2,0-6.3-0.2c-0.9-0.1-1.6-0.8-1.8-1.7
			c-0.3-1.3-0.3-2.7-0.3-4c0-1.3,0-2.7,0.3-4c0.2-0.9,0.9-1.6,1.8-1.7c2.1-0.2,4.2-0.2,6.3-0.2c2.1,0,4.2,0,6.3,0.2
			c0.9,0.1,1.6,0.8,1.8,1.7c0.3,1.3,0.3,2.7,0.3,4C183.8,234.3,183.8,235.7,183.5,237L183.5,237z"/>
	</g>
	<g>
		<path fill="#FFFFFF" d="M88.3,223.2c3.2,0,3.6,0,4.8,0.1c1.2,0.1,1.8,0.2,2.2,0.4c0.6,0.2,1,0.5,1.4,0.9s0.7,0.8,0.9,1.4
			c0.2,0.4,0.4,1.1,0.4,2.2c0.1,1.3,0.1,1.6,0.1,4.8s0,3.6-0.1,4.8c-0.1,1.2-0.2,1.8-0.4,2.2c-0.2,0.6-0.5,1-0.9,1.4
			s-0.8,0.7-1.4,0.9c-0.4,0.2-1.1,0.4-2.2,0.4c-1.3,0.1-1.6,0.1-4.8,0.1s-3.6,0-4.8-0.1c-1.2-0.1-1.8-0.2-2.2-0.4
			c-0.6-0.2-1-0.5-1.4-0.9s-0.7-0.8-0.9-1.4c-0.2-0.4-0.4-1.1-0.4-2.2c-0.1-1.3-0.1-1.6-0.1-4.8s0-3.6,0.1-4.8
			c0.1-1.2,0.2-1.8,0.4-2.2c0.2-0.6,0.5-1,0.9-1.4s0.8-0.7,1.4-0.9c0.4-0.2,1.1-0.4,2.2-0.4C84.7,223.2,85.1,223.2,88.3,223.2
			 M88.3,221c-3.3,0-3.7,0-4.9,0.1c-1.3,0.1-2.1,0.3-2.9,0.6c-0.8,0.3-1.5,0.7-2.1,1.4s-1.1,1.3-1.4,2.1c-0.3,0.8-0.5,1.6-0.6,2.9
			c-0.1,1.3-0.1,1.7-0.1,4.9s0,3.7,0.1,4.9c0.1,1.3,0.3,2.2,0.6,2.9c0.3,0.8,0.7,1.5,1.4,2.1s1.3,1.1,2.1,1.4
			c0.8,0.3,1.6,0.5,2.9,0.6c1.3,0.1,1.7,0.1,4.9,0.1s3.7,0,4.9-0.1c1.3-0.1,2.1-0.3,2.9-0.6c0.8-0.3,1.5-0.7,2.1-1.4
			s1.1-1.3,1.4-2.1c0.3-0.8,0.5-1.6,0.6-2.9c0.1-1.3,0.1-1.7,0.1-4.9s0-3.7-0.1-4.9c-0.1-1.3-0.3-2.2-0.6-2.9
			c-0.3-0.8-0.7-1.5-1.4-2.1s-1.3-1.1-2.1-1.4c-0.8-0.3-1.6-0.5-2.9-0.6C92,221,91.5,221,88.3,221L88.3,221z"/>
		<path fill="#FFFFFF" d="M88.3,226.8c-3.4,0-6.2,2.8-6.2,6.2s2.8,6.2,6.2,6.2s6.2-2.8,6.2-6.2S91.7,226.8,88.3,226.8z M88.3,237
			c-2.2,0-4-1.8-4-4s1.8-4,4-4s4,1.8,4,4S90.5,237,88.3,237z"/>
		<circle fill="#FFFFFF" cx="94.7" cy="226.6" r="1.4"/>
	</g>
	<g>
		<path fill="#FFFFFF" d="M393.7,245L393.7,245c-0.3,0-0.6-0.3-0.6-0.6v-21.2c0-0.3,0.3-0.6,0.6-0.6l0,0c0.3,0,0.6,0.3,0.6,0.6v21.2
			C394.3,244.7,394.1,245,393.7,245z"/>
		<path fill="#FFFFFF" d="M391.5,245L391.5,245c-0.3,0-0.6-0.3-0.6-0.6v-19.9c0-0.3,0.3-0.6,0.6-0.6l0,0c0.3,0,0.6,0.3,0.6,0.6v19.9
			C392.1,244.7,391.8,245,391.5,245z"/>
		<path fill="#FFFFFF" d="M389.3,245L389.3,245c-0.3,0-0.6-0.3-0.6-0.6v-17.6c0-0.3,0.3-0.6,0.6-0.6l0,0c0.3,0,0.6,0.3,0.6,0.6v17.6
			C389.8,244.7,389.6,245,389.3,245z"/>
		<path fill="#FFFFFF" d="M387,245L387,245c-0.3,0-0.6-0.3-0.6-0.6v-18c0-0.3,0.3-0.6,0.6-0.6l0,0c0.3,0,0.6,0.3,0.6,0.6v18
			C387.6,244.7,387.3,245,387,245z"/>
		<path fill="#FFFFFF" d="M384.8,245L384.8,245c-0.3,0-0.6-0.3-0.6-0.6v-18.3c0-0.3,0.3-0.6,0.6-0.6l0,0c0.3,0,0.6,0.3,0.6,0.6v18.3
			C385.4,244.7,385.1,245,384.8,245z"/>
		<path fill="#FFFFFF" d="M382.5,245L382.5,245c-0.3,0-0.6-0.3-0.6-0.6v-17.8c0-0.3,0.3-0.6,0.6-0.6l0,0c0.3,0,0.6,0.3,0.6,0.6v17.8
			C383.1,244.7,382.9,245,382.5,245z"/>
		<path fill="#FFFFFF" d="M366.9,241.9L366.9,241.9c-0.3,0-0.6-0.3-0.6-0.6V236c0-0.3,0.3-0.6,0.6-0.6l0,0c0.3,0,0.6,0.3,0.6,0.6
			v5.3C367.5,241.6,367.2,241.9,366.9,241.9z"/>
		<path fill="#FFFFFF" d="M369.1,243.7L369.1,243.7c-0.3,0-0.6-0.3-0.6-0.6v-9.1c0-0.3,0.3-0.6,0.6-0.6l0,0c0.3,0,0.6,0.3,0.6,0.6
			v9.1C369.7,243.5,369.4,243.7,369.1,243.7z"/>
		<path fill="#FFFFFF" d="M371.4,244.6L371.4,244.6c-0.3,0-0.6-0.3-0.6-0.6v-10.9c0-0.3,0.3-0.6,0.6-0.6l0,0c0.3,0,0.6,0.3,0.6,0.6
			V244C371.9,244.3,371.7,244.6,371.4,244.6z"/>
		<path fill="#FFFFFF" d="M373.6,244.8L373.6,244.8c-0.3,0-0.6-0.3-0.6-0.6v-11.4c0-0.3,0.3-0.6,0.6-0.6l0,0c0.3,0,0.6,0.3,0.6,0.6
			v11.4C374.2,244.5,373.9,244.8,373.6,244.8z"/>
		<path fill="#FFFFFF" d="M375.8,244.9L375.8,244.9c-0.3,0-0.6-0.3-0.6-0.6v-11.1c0-0.3,0.3-0.6,0.6-0.6l0,0c0.3,0,0.6,0.3,0.6,0.6
			v11.1C376.4,244.6,376.2,244.9,375.8,244.9z"/>
		<path fill="#FFFFFF" d="M378.1,245L378.1,245c-0.3,0-0.6-0.3-0.6-0.6v-14.7c0-0.3,0.3-0.6,0.6-0.6l0,0c0.3,0,0.6,0.3,0.6,0.6v14.7
			C378.7,244.7,378.4,245,378.1,245z"/>
		<path fill="#FFFFFF" d="M380.3,245L380.3,245c-0.3,0-0.6-0.3-0.6-0.6v-16.8c0-0.3,0.3-0.6,0.6-0.6l0,0c0.3,0,0.6,0.3,0.6,0.6v16.8
			C380.9,244.7,380.6,245,380.3,245z"/>
		<path fill="#FFFFFF" d="M414.7,231.4c-0.9,0-1.8,0.2-2.6,0.5c-0.5-6.1-5.7-10.9-11.9-10.9c-1.5,0-3,0.3-4.3,0.8
			c-0.5,0.2-0.6,0.4-0.7,0.8v21.6c0,0.4,0.3,0.8,0.7,0.8c0,0,18.7,0,18.8,0c3.8,0,6.8-3,6.8-6.8
			C421.5,234.5,418.4,231.4,414.7,231.4z"/>
	</g>
	<g>
		<path fill="#FFFFFF" d="M353.4,227c-3.3,0-6.1,2.6-6.1,6s2.6,6.1,6,6.1c3.3,0,6.1-2.6,6.1-6C359.4,229.7,356.7,227,353.4,227z
			 M353.3,236c-1.7,0-3-1.4-3-3.1s1.4-3,3.1-3s3,1.4,3,3.1C356.4,234.7,355,236.1,353.3,236z"/>
		<path fill="#FFFFFF" d="M353.3,221C353.3,221,353.2,221,353.3,221L353.3,221l-7.8,0H343h-0.7c-0.5,0-1,0.4-1,1v0.6v2v8.4
			c0,6.6,5.4,12,12,12s12-5.4,12-12C365.3,226.4,359.9,221,353.3,221z M345,232.8c0-4.6,3.8-8.3,8.4-8.3c4.6,0,8.3,3.8,8.3,8.4
			c0,4.6-3.8,8.3-8.4,8.3C348.7,241.2,345,237.4,345,232.8z"/>
	</g>
	<g id="Smuggy_3_">
		<path fill="#FFFFFF" d="M324.5,225.7c2.2,0,3.3-1.3,3.1-2.5c-0.1-1-1.1-1.9-2.9-1.9c-1.5,0-2.5,1.1-2.6,2.2
			C322,224.7,322.6,225.8,324.5,225.7z"/>
		<path fill="#FFFFFF" d="M335.5,225.5c2.1-0.1,3-1.2,3.1-2.2c0-1.2-1.1-2.4-3-2.2c-1.5,0.1-2.4,1.2-2.6,2.2
			C332.9,224.4,333.6,225.6,335.5,225.5z"/>
		<path fill="#FFFFFF" d="M336.9,230.2c-5.3,0.5-5.5,0.6-15.2,0.8c-4.1,0-3.2,14,5.5,14C335.5,245,345.5,229.3,336.9,230.2z
			 M327.4,242.5c-7.6,0-6.6-9.1-5.3-9.1c8.9-0.4,11.1-0.7,14.3-0.7C339.6,232.7,333.5,242.5,327.4,242.5z"/>
	</g>
	<g>
		<path fill="#FFFFFF" d="M314.1,221h-15.6c-2.3,0-4.2,1.9-4.2,4.2v15.6c0,2.3,1.9,4.2,4.2,4.2h15.6c2.3,0,4.2-1.9,4.2-4.2v-15.6
			C318.3,222.9,316.4,221,314.1,221z M312.4,235.1c0,1.9-0.5,3.3-1.5,4.3c-1,1-2.7,1.5-4.6,1.5s-3.6-0.5-4.6-1.5s-1.5-2.4-1.5-4.3
			v-8.7h3.8v8.4c0,1,0.2,1.7,0.6,2.2s1,0.7,1.7,0.7c0.7,0,1.4-0.3,1.7-0.7c0.4-0.5,0.6-1.2,0.6-2.2v-8.4h3.8L312.4,235.1
			L312.4,235.1z"/>
	</g>
	<g>
		<g>
			<g>
				<path fill="#FFFFFF" d="M291.5,221h-20.5c-1,0-1.8,0.8-1.8,1.7v20.5c0,1,0.8,1.7,1.8,1.7h20.5c1,0,1.8-0.8,1.8-1.7v-20.5
					C293.3,221.8,292.5,221,291.5,221z M276.4,241.5h-3.6V230h3.6V241.5z M274.6,228.4c-1.1,0-2.1-0.9-2.1-2.1
					c0-1.1,0.9-2.1,2.1-2.1c1.1,0,2.1,0.9,2.1,2.1C276.7,227.5,275.8,228.4,274.6,228.4z M289.7,241.5h-3.6v-5.6c0-1.3,0-3-1.8-3
					c-1.9,0-2.1,1.4-2.1,2.9v5.7h-3.6V230h3.4v1.6h0c0.5-0.9,1.6-1.8,3.4-1.8c3.6,0,4.3,2.4,4.3,5.5V241.5z"/>
			</g>
		</g>
	</g>
	<path fill="#FFFFFF" d="M431.9,221c-5.4,0-9.6,4.5-9.6,9.9c0,5.7,7.4,14.1,9.6,14.1c1.9,0,9.3-8.4,9.3-14.1
		C441.2,225.5,437,221,431.9,221z M431.9,236.1c-3.3,0-5.9-2.5-5.9-5.5c0-1.4,0.5-2.6,1.2-3.6c0,0,0,0,0,0c0,1.2,1,2.2,2.3,2.2
		s2.3-1,2.3-2.2c0-0.9-0.6-1.7-1.4-2.1c0.5-0.1,1-0.2,1.5-0.2c3,0,5.6,2.5,5.6,5.9C437.5,233.5,434.9,236.1,431.9,236.1z"/>
	<g>
		<path fill="#FFC627" d="M827.9,112.9c-0.2,3.4-2.5,8-7.1,13.9c-4.7,6.1-8.7,9.2-12,9.2c-2,0-3.7-1.9-5.1-5.6
			c-0.9-3.4-1.9-6.8-2.8-10.3c-1-3.7-2.2-5.6-3.3-5.6c-0.3,0-1.2,0.5-2.7,1.6l-1.6-2.1c1.7-1.5,3.4-3,5.1-4.5c2.3-2,4-3,5.1-3.1
			c2.7-0.3,4.4,1.6,5,5.5c0.7,4.3,1.1,6.9,1.4,7.9c0.8,3.5,1.6,5.3,2.6,5.3c0.7,0,1.8-1.1,3.3-3.4c1.5-2.3,2.2-4,2.3-5.2
			c0.2-2-0.6-3-2.3-3c-0.8,0-1.7,0.2-2.6,0.6c1.7-5.6,5-8.3,9.8-8.1C826.5,106.1,828.1,108.4,827.9,112.9z"/>
	</g>
	<g>
		<polygon fill="#FFC627" points="743.8,118.8 745.1,122.6 749.1,122.6 745.9,125 747.1,128.8 743.8,126.4 740.6,128.8 741.8,125 
			738.6,122.6 742.6,122.6 		"/>
		<path fill="#FFC627" d="M755.1,106h-22.5c-2.9,0-5.3,2.4-5.3,5.3v19.4c0,2.9,2.4,5.3,5.3,5.3h22.5c2.9,0,5.3-2.4,5.3-5.3v-19.4
			C760.4,108.4,758,106,755.1,106z M742.3,109.1c0.9,0,1.6,0.7,1.6,1.6s-0.7,1.6-1.6,1.6s-1.6-0.7-1.6-1.6S741.4,109.1,742.3,109.1z
			 M737.3,109.1c0.9,0,1.6,0.7,1.6,1.6s-0.7,1.6-1.6,1.6s-1.6-0.7-1.6-1.6S736.4,109.1,737.3,109.1z M732.3,109.1
			c0.9,0,1.6,0.7,1.6,1.6s-0.7,1.6-1.6,1.6s-1.6-0.7-1.6-1.6S731.4,109.1,732.3,109.1z M757.3,130.7c0,1.2-1,2.2-2.2,2.2h-22.5
			c-1.2,0-2.2-1-2.2-2.2v-15.9h26.9L757.3,130.7L757.3,130.7z"/>
	</g>
	<g>
		<path fill="#FFC627" d="M557.2,109.6c-1.4,0.6-2.8,1-4.3,1.2c1.6-0.9,2.8-2.4,3.3-4.2c-1.5,0.9-3.1,1.5-4.8,1.8
			c-1.4-1.5-3.3-2.4-5.5-2.4c-4.2,0-7.6,3.4-7.6,7.6c0,0.6,0.1,1.2,0.2,1.7c-6.3-0.3-11.9-3.3-15.6-7.9c-0.7,1.1-1,2.4-1,3.8
			c0,2.6,1.3,4.9,3.4,6.3c-1.2,0-2.4-0.4-3.4-1c0,0,0,0.1,0,0.1c0,3.7,2.6,6.7,6.1,7.4c-0.6,0.2-1.3,0.3-2,0.3c-0.5,0-1,0-1.4-0.1
			c1,3,3.8,5.2,7.1,5.3c-2.6,2-5.9,3.2-9.4,3.2c-0.6,0-1.2,0-1.8-0.1c3.4,2.1,7.3,3.4,11.6,3.4c13.9,0,21.5-11.5,21.5-21.5
			c0-0.3,0-0.7,0-1C554.9,112.4,556.2,111.1,557.2,109.6L557.2,109.6z"/>
	</g>
	<path fill="#FFC627" d="M696.3,119.1h-4.7v-4.7h-3.8v4.7h-4.7v3.8h4.7v4.7h3.8v-4.7h4.7 M666.3,118.2v5.8h8.2
		c-0.6,3.5-3.7,6.1-8.2,6.1c-4.9,0-9-4.2-9-9.1c0-4.9,4-9.1,9-9.1c2.2,0,4.2,0.8,5.8,2.3v0l4.2-4.2c-2.6-2.4-6-3.9-10-3.9
		c-8.3,0-15,6.7-15,15s6.7,15,15,15c8.7,0,14.4-6.1,14.4-14.7c0-1.1-0.1-2.1-0.3-3.2L666.3,118.2L666.3,118.2z"/>
	<g>
		<path fill="#FFC627" d="M604.3,106c-8.3,0-15,6.7-15,15c0,6.4,4,11.8,9.5,14c-0.1-1.2-0.3-3,0.1-4.3c0.3-1.2,1.8-7.5,1.8-7.5
			s-0.4-0.9-0.4-2.2c0-2.1,1.2-3.6,2.7-3.6c1.3,0,1.9,1,1.9,2.1c0,1.3-0.8,3.2-1.2,5c-0.4,1.5,0.7,2.7,2.2,2.7
			c2.7,0,4.7-2.8,4.7-6.9c0-3.6-2.6-6.1-6.3-6.1c-4.3,0-6.8,3.2-6.8,6.5c0,1.3,0.5,2.7,1.1,3.4c0.1,0.1,0.1,0.3,0.1,0.4
			c-0.1,0.5-0.4,1.5-0.4,1.7c-0.1,0.3-0.2,0.3-0.5,0.2c-1.9-0.9-3-3.6-3-5.8c0-4.7,3.4-9.1,9.9-9.1c5.2,0,9.2,3.7,9.2,8.7
			c0,5.2-3.3,9.3-7.8,9.3c-1.5,0-2.9-0.8-3.4-1.7c0,0-0.8,2.9-0.9,3.6c-0.3,1.3-1.3,2.9-1.9,3.9c1.4,0.4,2.9,0.7,4.4,0.7
			c8.3,0,15-6.7,15-15S612.6,106,604.3,106z"/>
	</g>
	<g>
		<path fill="#FFC627" d="M648.6,107.7c-1.1-1.1-2.4-1.7-4-1.7h-18.8c-1.5,0-2.9,0.5-4,1.7c-1.1,1.1-1.7,2.4-1.7,4v18.8
			c0,1.5,0.5,2.9,1.7,4c1.1,1.1,2.4,1.7,4,1.7h18.8c1.5,0,2.9-0.5,4-1.7c1.1-1.1,1.7-2.4,1.7-4v-18.8
			C650.3,110.1,649.7,108.8,648.6,107.7L648.6,107.7z M632.7,123.9c-0.8,0.8-1.8,1.2-2.9,1.2s-2.1-0.4-2.9-1.2
			c-0.8-0.8-1.2-1.8-1.2-2.9c0-1.1,0.4-2.1,1.2-2.9c0.8-0.8,1.8-1.2,2.9-1.2s2.1,0.4,2.9,1.2c0.8,0.8,1.2,1.8,1.2,2.9
			C633.9,122.1,633.5,123.1,632.7,123.9L632.7,123.9z M643.7,123.9c-0.8,0.8-1.8,1.2-2.9,1.2s-2.1-0.4-2.9-1.2
			c-0.8-0.8-1.2-1.8-1.2-2.9c0-1.1,0.4-2.1,1.2-2.9c0.8-0.8,1.8-1.2,2.9-1.2s2.1,0.4,2.9,1.2c0.8,0.8,1.2,1.8,1.2,2.9
			C644.9,122.1,644.5,123.1,643.7,123.9L643.7,123.9z"/>
	</g>
	<g>
		<path fill="#FFC627" d="M725.6,120.3c-0.1,0.1-0.2,0.2-0.3,0.2v-11.6c0-1.6-1.2-2.9-2.7-2.9h-21c-1.5,0-2.7,1.3-2.7,2.9v11.6
			c-0.1-0.1-0.2-0.2-0.4-0.2c-0.9-0.6-1.5,0.2-0.9,1c1.1,1.3,3.1,2.9,6.2,4.2c-3.3,11.2,8,13,7.9,7.3c0,0.1,0-3.3,0-5.7
			c0.3,0.1,0.6,0.1,0.8,0.2c0,2.4,0,5.6,0,5.5c-0.2,5.8,11.2,4,7.9-7.3c3.1-1.3,5.2-2.9,6.2-4.2
			C727.1,120.5,726.5,119.7,725.6,120.3L725.6,120.3z M714.4,123.1c-1.4-0.1-1.9,0.5-2,1.4c-0.3-0.2-0.7-0.5-1-0.8
			c-0.1-0.1-0.1-0.1-0.2-0.1c-0.3-0.3-0.8-0.5-1.6-0.5c-1.9,0.1-5.3,0.4-9.2-1.7v-11.3c0-2,0.5-2.7,2.4-2.7h18.6
			c1.8,0,2.4,0.8,2.4,2.7v11.2C719.7,123.6,716.3,123.2,714.4,123.1L714.4,123.1z"/>
		<path fill="#FFC627" d="M716.4,115c-2,0-3.6,1.5-3.6,3.4c0,1.9,1.6,3.4,3.6,3.4c2,0,3.6-1.5,3.6-3.4
			C720,116.5,718.4,115,716.4,115L716.4,115z"/>
		<path fill="#FFC627" d="M711.6,118.4c0,1.9-1.6,3.4-3.6,3.4c-2,0-3.6-1.5-3.6-3.4c0-1.9,1.6-3.4,3.6-3.4
			C710,115,711.6,116.5,711.6,118.4L711.6,118.4z"/>
	</g>
	<path fill="#FFC627" d="M514.4,136v-13.7h4.6l0.7-5.3h-5.3v-3.4c0-1.5,0.4-2.6,2.6-2.6h2.8v-4.8c-0.5-0.1-2.2-0.2-4.1-0.2
		c-4.1,0-6.9,2.5-6.9,7v3.9h-4.6v5.3h4.6V136H514.4z"/>
	<g>
		<path fill="#FFC627" d="M774.6,124.3c2.3-1.2,4.5-2.3,6.7-3.5c-2.3-1.2-4.5-2.3-6.7-3.5V124.3z"/>
		<path fill="#FFC627" d="M777.3,106c-8.3,0-15,6.7-15,15c0,8.3,6.7,15,15,15c8.3,0,15-6.7,15-15C792.3,112.7,785.6,106,777.3,106
			L777.3,106z M787.5,126c-0.3,1.1-1.2,2-2.3,2.1c-2.6,0.3-5.3,0.3-7.9,0.3c-2.6,0-5.3,0-7.9-0.3c-1.1-0.1-2-1-2.3-2.1
			c-0.4-1.6-0.4-3.4-0.4-5c0-1.7,0-3.4,0.4-5c0.3-1.1,1.2-2,2.3-2.1c2.6-0.3,5.3-0.3,7.9-0.3c2.6,0,5.3,0,7.9,0.3
			c1.1,0.1,2,1,2.3,2.1c0.4,1.6,0.4,3.4,0.4,5C787.9,122.7,787.9,124.4,787.5,126L787.5,126z"/>
	</g>
	<g>
		<path fill="#FFC627" d="M573.3,108.7c4,0,4.5,0,6.1,0.1c1.5,0.1,2.3,0.3,2.8,0.5c0.7,0.3,1.2,0.6,1.7,1.1c0.5,0.5,0.8,1,1.1,1.7
			c0.2,0.5,0.5,1.3,0.5,2.8c0.1,1.6,0.1,2.1,0.1,6.1s0,4.5-0.1,6.1c-0.1,1.5-0.3,2.3-0.5,2.8c-0.3,0.7-0.6,1.2-1.1,1.7
			c-0.5,0.5-1,0.8-1.7,1.1c-0.5,0.2-1.3,0.5-2.8,0.5c-1.6,0.1-2.1,0.1-6.1,0.1s-4.5,0-6.1-0.1c-1.5-0.1-2.3-0.3-2.8-0.5
			c-0.7-0.3-1.2-0.6-1.7-1.1c-0.5-0.5-0.8-1-1.1-1.7c-0.2-0.5-0.5-1.3-0.5-2.8c-0.1-1.6-0.1-2.1-0.1-6.1s0-4.5,0.1-6.1
			c0.1-1.5,0.3-2.3,0.5-2.8c0.3-0.7,0.6-1.2,1.1-1.7s1-0.8,1.7-1.1c0.5-0.2,1.3-0.5,2.8-0.5C568.8,108.7,569.3,108.7,573.3,108.7
			 M573.3,106c-4.1,0-4.6,0-6.2,0.1c-1.6,0.1-2.7,0.3-3.6,0.7c-1,0.4-1.8,0.9-2.7,1.7s-1.3,1.7-1.7,2.7c-0.4,1-0.6,2-0.7,3.6
			c-0.1,1.6-0.1,2.1-0.1,6.2s0,4.6,0.1,6.2c0.1,1.6,0.3,2.7,0.7,3.6c0.4,1,0.9,1.8,1.7,2.7s1.7,1.3,2.7,1.7c1,0.4,2,0.6,3.6,0.7
			c1.6,0.1,2.1,0.1,6.2,0.1c4.1,0,4.6,0,6.2-0.1c1.6-0.1,2.7-0.3,3.6-0.7c1-0.4,1.8-0.9,2.7-1.7s1.3-1.7,1.7-2.7
			c0.4-1,0.6-2,0.7-3.6c0.1-1.6,0.1-2.1,0.1-6.2s0-4.6-0.1-6.2c-0.1-1.6-0.3-2.7-0.7-3.6c-0.4-1-0.9-1.8-1.7-2.7s-1.7-1.3-2.7-1.7
			c-1-0.4-2-0.6-3.6-0.7C577.9,106,577.4,106,573.3,106L573.3,106z"/>
		<path fill="#FFC627" d="M573.3,113.3c-4.3,0-7.7,3.4-7.7,7.7s3.4,7.7,7.7,7.7s7.7-3.4,7.7-7.7S577.5,113.3,573.3,113.3z
			 M573.3,126c-2.8,0-5-2.2-5-5s2.2-5,5-5s5,2.2,5,5S576,126,573.3,126z"/>
		<circle fill="#FFC627" cx="581.3" cy="113" r="1.8"/>
	</g>
	<g>
		<path fill="#FFFFFF" d="M827.9,143.9c-0.2,3.4-2.5,8-7.1,13.9c-4.7,6.1-8.7,9.2-12,9.2c-2,0-3.7-1.9-5.1-5.6
			c-0.9-3.4-1.9-6.8-2.8-10.3c-1-3.7-2.2-5.6-3.3-5.6c-0.3,0-1.2,0.5-2.7,1.6l-1.6-2.1c1.7-1.5,3.4-3,5.1-4.5c2.3-2,4-3,5.1-3.1
			c2.7-0.3,4.4,1.6,5,5.5c0.7,4.3,1.1,6.9,1.4,7.9c0.8,3.5,1.6,5.3,2.6,5.3c0.7,0,1.8-1.1,3.3-3.4c1.5-2.3,2.2-4,2.3-5.2
			c0.2-2-0.6-3-2.3-3c-0.8,0-1.7,0.2-2.6,0.6c1.7-5.6,5-8.3,9.8-8.1C826.5,137.1,828.1,139.4,827.9,143.9z"/>
	</g>
	<g>
		<polygon fill="#FFFFFF" points="743.8,149.8 745.1,153.6 749.1,153.6 745.9,156 747.1,159.8 743.8,157.4 740.6,159.8 741.8,156 
			738.6,153.6 742.6,153.6 		"/>
		<path fill="#FFFFFF" d="M755.1,137h-22.5c-2.9,0-5.3,2.4-5.3,5.3v19.4c0,2.9,2.4,5.3,5.3,5.3h22.5c2.9,0,5.3-2.4,5.3-5.3v-19.4
			C760.4,139.4,758,137,755.1,137z M742.3,140.1c0.9,0,1.6,0.7,1.6,1.6s-0.7,1.6-1.6,1.6s-1.6-0.7-1.6-1.6S741.4,140.1,742.3,140.1z
			 M737.3,140.1c0.9,0,1.6,0.7,1.6,1.6s-0.7,1.6-1.6,1.6s-1.6-0.7-1.6-1.6S736.4,140.1,737.3,140.1z M732.3,140.1
			c0.9,0,1.6,0.7,1.6,1.6s-0.7,1.6-1.6,1.6s-1.6-0.7-1.6-1.6S731.4,140.1,732.3,140.1z M757.3,161.7c0,1.2-1,2.2-2.2,2.2h-22.5
			c-1.2,0-2.2-1-2.2-2.2v-15.9h26.9L757.3,161.7L757.3,161.7z"/>
	</g>
	<g>
		<path fill="#FFFFFF" d="M557.2,140.6c-1.4,0.6-2.8,1-4.3,1.2c1.6-0.9,2.8-2.4,3.3-4.2c-1.5,0.9-3.1,1.5-4.8,1.8
			c-1.4-1.5-3.3-2.4-5.5-2.4c-4.2,0-7.6,3.4-7.6,7.6c0,0.6,0.1,1.2,0.2,1.7c-6.3-0.3-11.9-3.3-15.6-7.9c-0.7,1.1-1,2.4-1,3.8
			c0,2.6,1.3,4.9,3.4,6.3c-1.2,0-2.4-0.4-3.4-1c0,0,0,0.1,0,0.1c0,3.7,2.6,6.7,6.1,7.4c-0.6,0.2-1.3,0.3-2,0.3c-0.5,0-1,0-1.4-0.1
			c1,3,3.8,5.2,7.1,5.3c-2.6,2-5.9,3.2-9.4,3.2c-0.6,0-1.2,0-1.8-0.1c3.4,2.1,7.3,3.4,11.6,3.4c13.9,0,21.5-11.5,21.5-21.5
			c0-0.3,0-0.7,0-1C554.9,143.4,556.2,142.1,557.2,140.6L557.2,140.6z"/>
	</g>
	<path fill="#FFFFFF" d="M696.3,150.1h-4.7v-4.7h-3.8v4.7h-4.7v3.8h4.7v4.7h3.8v-4.7h4.7 M666.3,149.2v5.8h8.2
		c-0.6,3.5-3.7,6.1-8.2,6.1c-4.9,0-9-4.2-9-9.1c0-4.9,4-9.1,9-9.1c2.2,0,4.2,0.8,5.8,2.3v0l4.2-4.2c-2.6-2.4-6-3.9-10-3.9
		c-8.3,0-15,6.7-15,15s6.7,15,15,15c8.7,0,14.4-6.1,14.4-14.7c0-1.1-0.1-2.1-0.3-3.2L666.3,149.2L666.3,149.2z"/>
	<g>
		<path fill="#FFFFFF" d="M604.3,137c-8.3,0-15,6.7-15,15c0,6.4,4,11.8,9.5,14c-0.1-1.2-0.3-3,0.1-4.3c0.3-1.2,1.8-7.5,1.8-7.5
			s-0.4-0.9-0.4-2.2c0-2.1,1.2-3.6,2.7-3.6c1.3,0,1.9,1,1.9,2.1c0,1.3-0.8,3.2-1.2,5c-0.4,1.5,0.7,2.7,2.2,2.7
			c2.7,0,4.7-2.8,4.7-6.9c0-3.6-2.6-6.1-6.3-6.1c-4.3,0-6.8,3.2-6.8,6.5c0,1.3,0.5,2.7,1.1,3.4c0.1,0.1,0.1,0.3,0.1,0.4
			c-0.1,0.5-0.4,1.5-0.4,1.7c-0.1,0.3-0.2,0.3-0.5,0.2c-1.9-0.9-3-3.6-3-5.8c0-4.7,3.4-9.1,9.9-9.1c5.2,0,9.2,3.7,9.2,8.7
			c0,5.2-3.3,9.3-7.8,9.3c-1.5,0-2.9-0.8-3.4-1.7c0,0-0.8,2.9-0.9,3.6c-0.3,1.3-1.3,2.9-1.9,3.9c1.4,0.4,2.9,0.7,4.4,0.7
			c8.3,0,15-6.7,15-15S612.6,137,604.3,137z"/>
	</g>
	<g>
		<path fill="#FFFFFF" d="M648.6,138.7c-1.1-1.1-2.4-1.7-4-1.7h-18.8c-1.5,0-2.9,0.5-4,1.7c-1.1,1.1-1.7,2.4-1.7,4v18.8
			c0,1.5,0.5,2.9,1.7,4c1.1,1.1,2.4,1.7,4,1.7h18.8c1.5,0,2.9-0.5,4-1.7c1.1-1.1,1.7-2.4,1.7-4v-18.8
			C650.3,141.1,649.7,139.8,648.6,138.7L648.6,138.7z M632.7,154.9c-0.8,0.8-1.8,1.2-2.9,1.2s-2.1-0.4-2.9-1.2
			c-0.8-0.8-1.2-1.8-1.2-2.9c0-1.1,0.4-2.1,1.2-2.9c0.8-0.8,1.8-1.2,2.9-1.2s2.1,0.4,2.9,1.2c0.8,0.8,1.2,1.8,1.2,2.9
			C633.9,153.1,633.5,154.1,632.7,154.9L632.7,154.9z M643.7,154.9c-0.8,0.8-1.8,1.2-2.9,1.2s-2.1-0.4-2.9-1.2
			c-0.8-0.8-1.2-1.8-1.2-2.9c0-1.1,0.4-2.1,1.2-2.9c0.8-0.8,1.8-1.2,2.9-1.2s2.1,0.4,2.9,1.2c0.8,0.8,1.2,1.8,1.2,2.9
			C644.9,153.1,644.5,154.1,643.7,154.9L643.7,154.9z"/>
	</g>
	<g>
		<path fill="#FFFFFF" d="M725.6,151.3c-0.1,0.1-0.2,0.2-0.3,0.2v-11.6c0-1.6-1.2-2.9-2.7-2.9h-21c-1.5,0-2.7,1.3-2.7,2.9v11.6
			c-0.1-0.1-0.2-0.2-0.4-0.2c-0.9-0.6-1.5,0.2-0.9,1c1.1,1.3,3.1,2.9,6.2,4.2c-3.3,11.2,8,13,7.9,7.3c0,0.1,0-3.3,0-5.7
			c0.3,0.1,0.6,0.1,0.8,0.2c0,2.4,0,5.6,0,5.5c-0.2,5.8,11.2,4,7.9-7.3c3.1-1.3,5.2-2.9,6.2-4.2
			C727.1,151.5,726.5,150.7,725.6,151.3L725.6,151.3z M714.4,154.1c-1.4-0.1-1.9,0.5-2,1.4c-0.3-0.2-0.7-0.5-1-0.8
			c-0.1-0.1-0.1-0.1-0.2-0.1c-0.3-0.3-0.8-0.5-1.6-0.5c-1.9,0.1-5.3,0.4-9.2-1.7v-11.3c0-2,0.5-2.7,2.4-2.7h18.6
			c1.8,0,2.4,0.8,2.4,2.7v11.2C719.7,154.6,716.3,154.2,714.4,154.1L714.4,154.1z"/>
		<path fill="#FFFFFF" d="M716.4,146c-2,0-3.6,1.5-3.6,3.4c0,1.9,1.6,3.4,3.6,3.4c2,0,3.6-1.5,3.6-3.4
			C720,147.5,718.4,146,716.4,146L716.4,146z"/>
		<path fill="#FFFFFF" d="M711.6,149.4c0,1.9-1.6,3.4-3.6,3.4c-2,0-3.6-1.5-3.6-3.4c0-1.9,1.6-3.4,3.6-3.4
			C710,146,711.6,147.5,711.6,149.4L711.6,149.4z"/>
	</g>
	<path fill="#FFFFFF" d="M514.4,167v-13.7h4.6l0.7-5.3h-5.3v-3.4c0-1.5,0.4-2.6,2.6-2.6h2.8v-4.8c-0.5-0.1-2.2-0.2-4.1-0.2
		c-4.1,0-6.9,2.5-6.9,7v3.9h-4.6v5.3h4.6V167H514.4z"/>
	<g>
		<path fill="#FFFFFF" d="M774.6,155.3c2.3-1.2,4.5-2.3,6.7-3.5c-2.3-1.2-4.5-2.3-6.7-3.5V155.3z"/>
		<path fill="#FFFFFF" d="M777.3,137c-8.3,0-15,6.7-15,15c0,8.3,6.7,15,15,15c8.3,0,15-6.7,15-15C792.3,143.7,785.6,137,777.3,137
			L777.3,137z M787.5,157c-0.3,1.1-1.2,2-2.3,2.1c-2.6,0.3-5.3,0.3-7.9,0.3c-2.6,0-5.3,0-7.9-0.3c-1.1-0.1-2-1-2.3-2.1
			c-0.4-1.6-0.4-3.4-0.4-5c0-1.7,0-3.4,0.4-5c0.3-1.1,1.2-2,2.3-2.1c2.6-0.3,5.3-0.3,7.9-0.3c2.6,0,5.3,0,7.9,0.3
			c1.1,0.1,2,1,2.3,2.1c0.4,1.6,0.4,3.4,0.4,5C787.9,153.7,787.9,155.4,787.5,157L787.5,157z"/>
	</g>
	<g>
		<path fill="#FFFFFF" d="M573.3,139.7c4,0,4.5,0,6.1,0.1c1.5,0.1,2.3,0.3,2.8,0.5c0.7,0.3,1.2,0.6,1.7,1.1s0.8,1,1.1,1.7
			c0.2,0.5,0.5,1.3,0.5,2.8c0.1,1.6,0.1,2.1,0.1,6.1s0,4.5-0.1,6.1c-0.1,1.5-0.3,2.3-0.5,2.8c-0.3,0.7-0.6,1.2-1.1,1.7
			s-1,0.8-1.7,1.1c-0.5,0.2-1.3,0.5-2.8,0.5c-1.6,0.1-2.1,0.1-6.1,0.1s-4.5,0-6.1-0.1c-1.5-0.1-2.3-0.3-2.8-0.5
			c-0.7-0.3-1.2-0.6-1.7-1.1c-0.5-0.5-0.8-1-1.1-1.7c-0.2-0.5-0.5-1.3-0.5-2.8c-0.1-1.6-0.1-2.1-0.1-6.1s0-4.5,0.1-6.1
			c0.1-1.5,0.3-2.3,0.5-2.8c0.3-0.7,0.6-1.2,1.1-1.7s1-0.8,1.7-1.1c0.5-0.2,1.3-0.5,2.8-0.5C568.8,139.7,569.3,139.7,573.3,139.7
			 M573.3,137c-4.1,0-4.6,0-6.2,0.1c-1.6,0.1-2.7,0.3-3.6,0.7c-1,0.4-1.8,0.9-2.7,1.7s-1.3,1.7-1.7,2.7c-0.4,1-0.6,2-0.7,3.6
			c-0.1,1.6-0.1,2.1-0.1,6.2s0,4.6,0.1,6.2c0.1,1.6,0.3,2.7,0.7,3.6c0.4,1,0.9,1.8,1.7,2.7s1.7,1.3,2.7,1.7c1,0.4,2,0.6,3.6,0.7
			c1.6,0.1,2.1,0.1,6.2,0.1s4.6,0,6.2-0.1c1.6-0.1,2.7-0.3,3.6-0.7c1-0.4,1.8-0.9,2.7-1.7s1.3-1.7,1.7-2.7c0.4-1,0.6-2,0.7-3.6
			c0.1-1.6,0.1-2.1,0.1-6.2s0-4.6-0.1-6.2c-0.1-1.6-0.3-2.7-0.7-3.6c-0.4-1-0.9-1.8-1.7-2.7s-1.7-1.3-2.7-1.7c-1-0.4-2-0.6-3.6-0.7
			C577.9,137,577.4,137,573.3,137L573.3,137z"/>
		<path fill="#FFFFFF" d="M573.3,144.3c-4.3,0-7.7,3.4-7.7,7.7s3.4,7.7,7.7,7.7s7.7-3.4,7.7-7.7S577.5,144.3,573.3,144.3z
			 M573.3,157c-2.8,0-5-2.2-5-5s2.2-5,5-5s5,2.2,5,5S576,157,573.3,157z"/>
		<circle fill="#FFFFFF" cx="581.3" cy="144" r="1.8"/>
	</g>
	<g>
		<polygon fill="#FFFFFF" points="56.3,89.3 56.3,93.4 43,93.4 43,89.3 40.3,89.3 40.3,93.4 40.3,94 40.3,96 59,96 59,94 59,93.4 
			59,89.3 		"/>
		<polygon fill="#FFFFFF" points="49.7,90.6 54.9,84.1 52.3,84.1 52.3,76 47,76 47,84.1 44.4,84.1 		"/>
	</g>
	<g>
		<polygon fill="#FEC325" points="120.3,89.3 120.3,93.4 107,93.4 107,89.3 104.3,89.3 104.3,93.4 104.3,94 104.3,96 123,96 123,94 
			123,93.4 123,89.3 		"/>
		<polygon fill="#FEC325" points="113.7,90.6 118.9,84.1 116.3,84.1 116.3,76 111,76 111,84.1 108.4,84.1 		"/>
	</g>
	<g>
		<rect x="60.3" y="76" fill="#FFFFFF" width="8" height="8"/>
		<rect x="72.3" y="76" fill="#FFFFFF" width="8" height="8"/>
		<rect x="60.3" y="88" fill="#FFFFFF" width="8" height="8"/>
		<rect x="72.3" y="88" fill="#FFFFFF" width="8" height="8"/>
	</g>
	<g>
		<g>
			<path fill="#FFFFFF" d="M101.3,77v18h-18V77H101.3 M102.3,76h-20v20h20V76L102.3,76z"/>
		</g>
		<rect x="87.3" y="81" fill="#FFFFFF" width="10" height="10"/>
	</g>
	<g>
		<rect x="124.3" y="76" fill="#FEC325" width="8" height="8"/>
		<rect x="136.3" y="76" fill="#FEC325" width="8" height="8"/>
		<rect x="124.3" y="88" fill="#FEC325" width="8" height="8"/>
		<rect x="136.3" y="88" fill="#FEC325" width="8" height="8"/>
	</g>
	<g>
		<g>
			<path fill="#FEC325" d="M165.3,77v18h-18V77H165.3 M166.3,76h-20v20h20V76L166.3,76z"/>
		</g>
		<rect x="151.3" y="81" fill="#FEC325" width="10" height="10"/>
	</g>
	<path fill="#FFFFFF" d="M185.1,89.1c-1,0-1.9,0.4-2.6,1.1l-7.3-3.7c0-0.2,0-0.3,0-0.5c0-0.2,0-0.3,0-0.5l7.5-3.5
		c0.6,0.6,1.4,0.9,2.3,0.9c1.9,0,3.5-1.6,3.5-3.5S187,76,185.1,76s-3.5,1.6-3.5,3.5c0,0.3,0,0.6,0.1,0.9l-7.3,3.4
		c-0.6-0.7-1.6-1.2-2.6-1.2c-1.9,0-3.5,1.6-3.5,3.5s1.6,3.5,3.5,3.5c1,0,2-0.5,2.6-1.2l7.2,3.6c0,0.2,0,0.4,0,0.5
		c0,1.9,1.6,3.5,3.5,3.5s3.5-1.6,3.5-3.5C188.6,90.6,187,89.1,185.1,89.1z"/>
	<path fill="#FEC325" d="M207.1,89.1c-1,0-1.9,0.4-2.6,1.1l-7.3-3.7c0-0.2,0-0.3,0-0.5c0-0.2,0-0.3,0-0.5l7.5-3.5
		c0.6,0.6,1.4,0.9,2.3,0.9c1.9,0,3.5-1.6,3.5-3.5S209,76,207.1,76s-3.5,1.6-3.5,3.5c0,0.3,0,0.6,0.1,0.9l-7.3,3.4
		c-0.6-0.7-1.6-1.2-2.6-1.2c-1.9,0-3.5,1.6-3.5,3.5s1.6,3.5,3.5,3.5c1,0,2-0.5,2.6-1.2l7.2,3.6c0,0.2,0,0.4,0,0.5
		c0,1.9,1.6,3.5,3.5,3.5s3.5-1.6,3.5-3.5C210.6,90.6,209,89.1,207.1,89.1z"/>
	<path fill="#FFFFFF" d="M492.4,239c-3.5-0.6-5-4.1-5.1-4.3c0,0,0,0,0,0c-0.2-0.4-0.2-0.7-0.1-0.9c0.2-0.5,0.9-0.7,1.4-0.9
		c0.1,0,0.3-0.1,0.4-0.1c0.9-0.3,1.3-0.8,1.3-1.2c0-0.4-0.3-0.7-0.8-0.9l0,0c-0.2-0.1-0.3-0.1-0.5-0.1c-0.1,0-0.3,0-0.5,0.1
		c-0.4,0.2-0.8,0.3-1.1,0.3c-0.2,0-0.3-0.1-0.4-0.1c0-0.2,0-0.4,0-0.5l0-0.1c0.1-1.7,0.2-3.9-0.3-5.2c-1.7-3.8-5.3-4.1-6.3-4.1h0
		c0,0,0,0-0.1,0c0,0-0.4,0-0.4,0c-1.1,0-4.6,0.3-6.3,4.1c-0.6,1.3-0.4,3.4-0.3,5.2c0,0.2,0,0.4,0,0.6c-0.1,0-0.2,0.1-0.5,0.1
		c-0.3,0-0.7-0.1-1.2-0.3c-0.1-0.1-0.3-0.1-0.4-0.1c-0.5,0-1.1,0.3-1.2,0.9c-0.1,0.4,0.1,0.9,1.3,1.4c0.1,0,0.2,0.1,0.4,0.1
		c0.5,0.2,1.2,0.4,1.4,0.9c0.1,0.2,0.1,0.6-0.1,0.9c0,0,0,0,0,0c-0.1,0.2-1.6,3.7-5.1,4.3c-0.3,0-0.5,0.3-0.4,0.6
		c0,0.1,0,0.2,0.1,0.2c0.3,0.6,1.4,1.1,3.4,1.4c0.1,0.1,0.1,0.4,0.2,0.6c0,0.2,0.1,0.4,0.1,0.6c0.1,0.2,0.2,0.5,0.6,0.5
		c0.2,0,0.4,0,0.6-0.1c0.3-0.1,0.8-0.2,1.4-0.2c0.3,0,0.6,0,1,0.1c0.6,0.1,1.2,0.5,1.8,0.9c0.9,0.6,1.9,1.4,3.5,1.4c0,0,0.1,0,0.1,0
		c0.1,0,0.1,0,0.2,0c1.6,0,2.6-0.7,3.5-1.4c0.6-0.5,1.2-0.8,1.8-0.9c0.3-0.1,0.7-0.1,1-0.1c0.5,0,1,0.1,1.4,0.1
		c0.2,0,0.4,0.1,0.6,0.1h0h0c0.3,0,0.5-0.2,0.6-0.4c0.1-0.2,0.1-0.4,0.1-0.6c0-0.2,0.1-0.5,0.2-0.6c2-0.3,3.1-0.8,3.4-1.4
		c0-0.1,0.1-0.2,0.1-0.2C492.8,239.3,492.6,239.1,492.4,239z"/>
	<path fill="#FFC627" d="M492.4,214c-3.5-0.6-5-4.1-5.1-4.3c0,0,0,0,0,0c-0.2-0.4-0.2-0.7-0.1-0.9c0.2-0.5,0.9-0.7,1.4-0.9
		c0.1,0,0.3-0.1,0.4-0.1c0.9-0.3,1.3-0.8,1.3-1.2c0-0.4-0.3-0.7-0.8-0.9l0,0c-0.2-0.1-0.3-0.1-0.5-0.1c-0.1,0-0.3,0-0.5,0.1
		c-0.4,0.2-0.8,0.3-1.1,0.3c-0.2,0-0.3-0.1-0.4-0.1c0-0.2,0-0.4,0-0.5l0-0.1c0.1-1.7,0.2-3.9-0.3-5.2c-1.7-3.8-5.3-4.1-6.3-4.1h0
		c0,0,0,0-0.1,0c0,0-0.4,0-0.4,0c-1.1,0-4.6,0.3-6.3,4.1c-0.6,1.3-0.4,3.4-0.3,5.2c0,0.2,0,0.4,0,0.6c-0.1,0-0.2,0.1-0.5,0.1
		c-0.3,0-0.7-0.1-1.2-0.3c-0.1-0.1-0.3-0.1-0.4-0.1c-0.5,0-1.1,0.3-1.2,0.9c-0.1,0.4,0.1,0.9,1.3,1.4c0.1,0,0.2,0.1,0.4,0.1
		c0.5,0.2,1.2,0.4,1.4,0.9c0.1,0.2,0.1,0.6-0.1,0.9c0,0,0,0,0,0c-0.1,0.2-1.6,3.7-5.1,4.3c-0.3,0-0.5,0.3-0.4,0.6
		c0,0.1,0,0.2,0.1,0.2c0.3,0.6,1.4,1.1,3.4,1.4c0.1,0.1,0.1,0.4,0.2,0.6c0,0.2,0.1,0.4,0.1,0.6c0.1,0.2,0.2,0.5,0.6,0.5
		c0.2,0,0.4,0,0.6-0.1c0.3-0.1,0.8-0.2,1.4-0.2c0.3,0,0.6,0,1,0.1c0.6,0.1,1.2,0.5,1.8,0.9c0.9,0.6,1.9,1.4,3.5,1.4c0,0,0.1,0,0.1,0
		c0.1,0,0.1,0,0.2,0c1.6,0,2.6-0.7,3.5-1.4c0.6-0.5,1.2-0.8,1.8-0.9c0.3-0.1,0.7-0.1,1-0.1c0.5,0,1,0.1,1.4,0.1
		c0.2,0,0.4,0.1,0.6,0.1h0h0c0.3,0,0.5-0.2,0.6-0.4c0.1-0.2,0.1-0.4,0.1-0.6c0-0.2,0.1-0.5,0.2-0.6c2-0.3,3.1-0.8,3.4-1.4
		c0-0.1,0.1-0.2,0.1-0.2C492.8,214.3,492.6,214.1,492.4,214z"/>
	<path d="M492.4,189c-3.5-0.6-5-4.1-5.1-4.3c0,0,0,0,0,0c-0.2-0.4-0.2-0.7-0.1-0.9c0.2-0.5,0.9-0.7,1.4-0.9c0.1,0,0.3-0.1,0.4-0.1
		c0.9-0.3,1.3-0.8,1.3-1.2c0-0.4-0.3-0.7-0.8-0.9l0,0c-0.2-0.1-0.3-0.1-0.5-0.1c-0.1,0-0.3,0-0.5,0.1c-0.4,0.2-0.8,0.3-1.1,0.3
		c-0.2,0-0.3-0.1-0.4-0.1c0-0.2,0-0.4,0-0.5l0-0.1c0.1-1.7,0.2-3.9-0.3-5.2c-1.7-3.8-5.3-4.1-6.3-4.1h0c0,0,0,0-0.1,0
		c0,0-0.4,0-0.4,0c-1.1,0-4.6,0.3-6.3,4.1c-0.6,1.3-0.4,3.4-0.3,5.2c0,0.2,0,0.4,0,0.6c-0.1,0-0.2,0.1-0.5,0.1
		c-0.3,0-0.7-0.1-1.2-0.3c-0.1-0.1-0.3-0.1-0.4-0.1c-0.5,0-1.1,0.3-1.2,0.9c-0.1,0.4,0.1,0.9,1.3,1.4c0.1,0,0.2,0.1,0.4,0.1
		c0.5,0.2,1.2,0.4,1.4,0.9c0.1,0.2,0.1,0.6-0.1,0.9c0,0,0,0,0,0c-0.1,0.2-1.6,3.7-5.1,4.3c-0.3,0-0.5,0.3-0.4,0.6
		c0,0.1,0,0.2,0.1,0.2c0.3,0.6,1.4,1.1,3.4,1.4c0.1,0.1,0.1,0.4,0.2,0.6c0,0.2,0.1,0.4,0.1,0.6c0.1,0.2,0.2,0.5,0.6,0.5
		c0.2,0,0.4,0,0.6-0.1c0.3-0.1,0.8-0.2,1.4-0.2c0.3,0,0.6,0,1,0.1c0.6,0.1,1.2,0.5,1.8,0.9c0.9,0.6,1.9,1.4,3.5,1.4c0,0,0.1,0,0.1,0
		c0.1,0,0.1,0,0.2,0c1.6,0,2.6-0.7,3.5-1.4c0.6-0.5,1.2-0.8,1.8-0.9c0.3-0.1,0.7-0.1,1-0.1c0.5,0,1,0.1,1.4,0.1
		c0.2,0,0.4,0.1,0.6,0.1h0h0c0.3,0,0.5-0.2,0.6-0.4c0.1-0.2,0.1-0.4,0.1-0.6c0-0.2,0.1-0.5,0.2-0.6c2-0.3,3.1-0.8,3.4-1.4
		c0-0.1,0.1-0.2,0.1-0.2C492.8,189.3,492.6,189.1,492.4,189z"/>
	<g>
		<g>
			<path fill="#FEC325" d="M533.3,75.5c0,1.1-0.4,2.3-1.5,2.7c-3.6,1.3-7,1.8-11.3,1.8c-11.9,0-22.5-8.5-22.5-22.6
				c0-14.7,10.6-27.4,26.8-27.4c12.6,0,21.7,8.7,21.7,20.8c0,10.5-5.9,16.9-13.7,16.9c-3.4,0-5.8-1.7-6.2-5.7h-0.1
				c-2.2,4-5.5,5.7-9.3,5.7c-4.7,0-8-3.4-8-9.3c0-8.8,6.5-16.7,16.8-16.7c1.7,0,3.6,0.3,5.2,0.6c1.9,0.4,3.2,2.3,2.9,4.3l-1.7,10.2
				c-0.7,4.2-0.2,6.2,1.8,6.3c3.1,0.1,7-3.9,7-12.1c0-9.3-6-16.6-17.2-16.6c-11,0-20.6,8.6-20.6,22.3c0,12,7.7,18.8,18.4,18.8
				c2.8,0,5.8-0.5,8.4-1.4c0.5-0.2,1.3-0.2,1.8,0.1C532.5,74.5,533.3,75,533.3,75.5L533.3,75.5z M527.1,47.7
				c-0.6-0.1-1.3-0.3-2.2-0.3c-4.7,0-8.5,4.7-8.5,10.2c0,2.7,1.2,4.5,3.6,4.5c2.7,0,5.5-3.4,6.1-7.5L527.1,47.7z"/>
		</g>
		<path fill="#FEC325" d="M522.3,105c-27.6,0-50-22.4-50-50s22.4-50,50-50c27.6,0,50,22.4,50,50S549.9,105,522.3,105z M522.3,8
			c-25.9,0-47,21.1-47,47s21.1,47,47,47c25.9,0,47-21.1,47-47S548.2,8,522.3,8z"/>
	</g>
	<polygon fill="#4D4D4D" points="267.3,58 272.1,64 276.1,64 271.3,58 276.1,52 272.1,52 	"/>
	<polygon fill="#4D4D4D" points="280.3,52 276.3,52 281.1,58 276.3,64 280.3,64 285.1,58 	"/>
	<polygon points="267.3,71 272.1,77 276.1,77 271.3,71 276.1,65 272.1,65 	"/>
	<polygon points="280.3,65 276.3,65 281.1,71 276.3,77 280.3,77 285.1,71 	"/>
	<g>
		<ellipse cx="497.5" cy="191.7" rx="3.3" ry="3.3"/>
		<path d="M510,195h-4.6c0-6.2-5-11.2-11.1-11.2l0,0v-4.7C503,179.1,510,186.2,510,195z"/>
		<path d="M513.3,195c0-10.6-8.5-19.2-19-19.2V171c13.1,0,23.7,10.7,23.7,24H513.3z"/>
	</g>
	<g>
		<ellipse fill="#FFC627" cx="497.5" cy="216.7" rx="3.3" ry="3.3"/>
		<path fill="#FFC627" d="M510,220h-4.6c0-6.2-5-11.2-11.1-11.2l0,0v-4.7C503,204.1,510,211.2,510,220z"/>
		<path fill="#FFC627" d="M513.3,220c0-10.6-8.5-19.2-19-19.2V196c13.1,0,23.7,10.7,23.7,24H513.3z"/>
	</g>
	<g>
		<ellipse fill="#FFFFFF" cx="497.5" cy="241.7" rx="3.3" ry="3.3"/>
		<path fill="#FFFFFF" d="M510,245h-4.6c0-6.2-5-11.2-11.1-11.2l0,0v-4.7C503,229.1,510,236.2,510,245z"/>
		<path fill="#FFFFFF" d="M513.3,245c0-10.6-8.5-19.2-19-19.2V221c13.1,0,23.7,10.7,23.7,24H513.3z"/>
	</g>
	<g>
		<path fill="#FFFFFF" d="M345.6,37.6h4.2V51h-4.2V37.6z M347.7,31c1.3,0,2.4,1.1,2.4,2.4c0,1.3-1.1,2.4-2.4,2.4
			c-1.3,0-2.4-1.1-2.4-2.4S346.4,31,347.7,31"/>
		<path fill="#FFFFFF" d="M352.4,37.6h4v1.8h0.1c0.6-1,1.9-2.2,3.9-2.2c4.2,0,5,2.8,5,6.4V51h-4.2v-6.5c0-1.5,0-3.5-2.2-3.5
			c-2.2,0-2.5,1.7-2.5,3.4V51h-4.1L352.4,37.6L352.4,37.6z"/>
	</g>
	<g>
		<path d="M542.5,193c0.6,0,1.1-0.2,1.5-0.6l-7.2-7.2c-0.2,0.1-0.3,0.2-0.5,0.4c-0.5,0.4-1,0.7-1.3,0.9c-0.3,0.2-0.8,0.4-1.4,0.7
			c-0.6,0.2-1.1,0.3-1.6,0.3h0c-0.5,0-1-0.1-1.6-0.3c-0.6-0.2-1-0.5-1.3-0.7c-0.3-0.2-0.8-0.5-1.3-0.9c-0.2-0.1-0.3-0.2-0.5-0.4
			l-7.2,7.2c0.4,0.4,0.9,0.6,1.5,0.6H542.5z"/>
		<path d="M520.7,180.7c-0.5-0.4-1-0.8-1.4-1.2v11l6.4-6.4C524.4,183.2,522.7,182.1,520.7,180.7L520.7,180.7z"/>
		<path d="M543.3,180.7c-1.9,1.3-3.6,2.4-4.9,3.4l6.4,6.4v-11C544.3,179.9,543.9,180.3,543.3,180.7L543.3,180.7z"/>
		<path d="M542.5,173h-20.9c-0.7,0-1.3,0.2-1.7,0.7c-0.4,0.5-0.6,1.1-0.6,1.8c0,0.6,0.3,1.2,0.8,1.9c0.5,0.7,1.1,1.2,1.7,1.6
			c0.3,0.2,1.3,0.9,2.9,2c0.9,0.6,1.6,1.1,2.3,1.6c0.6,0.4,1,0.7,1.4,1c0,0,0.1,0.1,0.2,0.1c0.1,0.1,0.2,0.2,0.4,0.3
			c0.3,0.2,0.6,0.4,0.8,0.5c0.2,0.1,0.5,0.3,0.7,0.5c0.3,0.2,0.6,0.3,0.8,0.4c0.3,0.1,0.5,0.1,0.7,0.1h0c0.2,0,0.5,0,0.7-0.1
			c0.3-0.1,0.5-0.2,0.8-0.4c0.3-0.2,0.5-0.3,0.7-0.5c0.2-0.1,0.5-0.3,0.8-0.5c0.2-0.1,0.3-0.2,0.4-0.3c0.1-0.1,0.2-0.1,0.2-0.1
			c0.3-0.2,0.8-0.5,1.4-1c1.2-0.8,2.9-2,5.2-3.6c0.7-0.5,1.3-1.1,1.7-1.7c0.5-0.7,0.7-1.4,0.7-2.1c0-0.6-0.2-1.2-0.7-1.6
			C543.6,173.2,543.1,173,542.5,173L542.5,173z"/>
	</g>
	<g>
		<path fill="#FFC627" d="M542.5,218c0.6,0,1.1-0.2,1.5-0.6l-7.2-7.2c-0.2,0.1-0.3,0.2-0.5,0.4c-0.5,0.4-1,0.7-1.3,0.9
			c-0.3,0.2-0.8,0.4-1.4,0.7c-0.6,0.2-1.1,0.3-1.6,0.3h0c-0.5,0-1-0.1-1.6-0.3c-0.6-0.2-1-0.5-1.3-0.7c-0.3-0.2-0.8-0.5-1.3-0.9
			c-0.2-0.1-0.3-0.2-0.5-0.4l-7.2,7.2c0.4,0.4,0.9,0.6,1.5,0.6H542.5z"/>
		<path fill="#FFC627" d="M520.7,205.7c-0.5-0.4-1-0.8-1.4-1.2v11l6.4-6.4C524.4,208.2,522.7,207.1,520.7,205.7L520.7,205.7z"/>
		<path fill="#FFC627" d="M543.3,205.7c-1.9,1.3-3.6,2.4-4.9,3.4l6.4,6.4v-11C544.3,204.9,543.9,205.3,543.3,205.7L543.3,205.7z"/>
		<path fill="#FFC627" d="M542.5,198h-20.9c-0.7,0-1.3,0.2-1.7,0.7c-0.4,0.5-0.6,1.1-0.6,1.8c0,0.6,0.3,1.2,0.8,1.9
			c0.5,0.7,1.1,1.2,1.7,1.6c0.3,0.2,1.3,0.9,2.9,2c0.9,0.6,1.6,1.1,2.3,1.6c0.6,0.4,1,0.7,1.4,1c0,0,0.1,0.1,0.2,0.1
			c0.1,0.1,0.2,0.2,0.4,0.3c0.3,0.2,0.6,0.4,0.8,0.5c0.2,0.1,0.5,0.3,0.7,0.5c0.3,0.2,0.6,0.3,0.8,0.4c0.3,0.1,0.5,0.1,0.7,0.1h0
			c0.2,0,0.5,0,0.7-0.1c0.3-0.1,0.5-0.2,0.8-0.4c0.3-0.2,0.5-0.3,0.7-0.5c0.2-0.1,0.5-0.3,0.8-0.5c0.2-0.1,0.3-0.2,0.4-0.3
			c0.1-0.1,0.2-0.1,0.2-0.1c0.3-0.2,0.8-0.5,1.4-1c1.2-0.8,2.9-2,5.2-3.6c0.7-0.5,1.3-1.1,1.7-1.7c0.5-0.7,0.7-1.4,0.7-2.1
			c0-0.6-0.2-1.2-0.7-1.6C543.6,198.2,543.1,198,542.5,198L542.5,198z"/>
	</g>
	<g>
		<path fill="#FFFFFF" d="M542.5,243c0.6,0,1.1-0.2,1.5-0.6l-7.2-7.2c-0.2,0.1-0.3,0.2-0.5,0.4c-0.5,0.4-1,0.7-1.3,0.9
			c-0.3,0.2-0.8,0.4-1.4,0.7c-0.6,0.2-1.1,0.3-1.6,0.3h0c-0.5,0-1-0.1-1.6-0.3c-0.6-0.2-1-0.5-1.3-0.7c-0.3-0.2-0.8-0.5-1.3-0.9
			c-0.2-0.1-0.3-0.2-0.5-0.4l-7.2,7.2c0.4,0.4,0.9,0.6,1.5,0.6H542.5z"/>
		<path fill="#FFFFFF" d="M520.7,230.7c-0.5-0.4-1-0.8-1.4-1.2v11l6.4-6.4C524.4,233.2,522.7,232.1,520.7,230.7L520.7,230.7z"/>
		<path fill="#FFFFFF" d="M543.3,230.7c-1.9,1.3-3.6,2.4-4.9,3.4l6.4,6.4v-11C544.3,229.9,543.9,230.3,543.3,230.7L543.3,230.7z"/>
		<path fill="#FFFFFF" d="M542.5,223h-20.9c-0.7,0-1.3,0.2-1.7,0.7c-0.4,0.5-0.6,1.1-0.6,1.8c0,0.6,0.3,1.2,0.8,1.9
			c0.5,0.7,1.1,1.2,1.7,1.6c0.3,0.2,1.3,0.9,2.9,2c0.9,0.6,1.6,1.1,2.3,1.6c0.6,0.4,1,0.7,1.4,1c0,0,0.1,0.1,0.2,0.1
			c0.1,0.1,0.2,0.2,0.4,0.3c0.3,0.2,0.6,0.4,0.8,0.5c0.2,0.1,0.5,0.3,0.7,0.5c0.3,0.2,0.6,0.3,0.8,0.4c0.3,0.1,0.5,0.1,0.7,0.1h0
			c0.2,0,0.5,0,0.7-0.1c0.3-0.1,0.5-0.2,0.8-0.4c0.3-0.2,0.5-0.3,0.7-0.5c0.2-0.1,0.5-0.3,0.8-0.5c0.2-0.1,0.3-0.2,0.4-0.3
			c0.1-0.1,0.2-0.1,0.2-0.1c0.3-0.2,0.8-0.5,1.4-1c1.2-0.8,2.9-2,5.2-3.6c0.7-0.5,1.3-1.1,1.7-1.7c0.5-0.7,0.7-1.4,0.7-2.1
			c0-0.6-0.2-1.2-0.7-1.6C543.6,223.2,543.1,223,542.5,223L542.5,223z"/>
	</g>
	<g>
		<path fill="#FFFFFF" d="M390,41.2c0-1.4-1.1-2.5-2.5-2.5c-0.7,0-1.3,0.3-1.7,0.7c-1.7-1.2-4-2-6.6-2l1.1-5.3l3.8,0.8
			c0.1,0.9,0.8,1.6,1.7,1.6c1,0,1.7-0.8,1.7-1.7s-0.8-1.7-1.7-1.7c-0.7,0-1.3,0.4-1.6,1l-3.7-0.8l-0.8-0.2l-0.2,0.8l-1.2,5.4
			c0,0,0,0,0,0c-2.6,0.1-5,0.8-6.8,2.1c-0.5-0.4-1.1-0.7-1.7-0.7c-1.4,0-2.5,1.1-2.5,2.5c0,1,0.6,1.9,1.5,2.3c0,0.2-0.1,0.5-0.1,0.7
			c0,3.8,4.5,6.8,10,6.8s10-3.1,10-6.8c0-0.2,0-0.5-0.1-0.7C389.4,43,390,42.2,390,41.2z M373.1,42.9c0-0.9,0.8-1.7,1.7-1.7
			c0.9,0,1.7,0.8,1.7,1.7c0,0.9-0.8,1.7-1.7,1.7C373.8,44.6,373.1,43.8,373.1,42.9z M382.8,47.6c-0.1,0.1-1.4,1.3-4.2,1.3
			c-2.8,0-4.1-1.3-4.1-1.3c-0.2-0.2-0.1-0.5,0-0.6c0.2-0.2,0.5-0.1,0.6,0c0,0,1.1,1,3.4,1c2.4,0,3.6-1,3.6-1c0.2-0.2,0.4-0.2,0.6,0
			C383,47.1,383,47.4,382.8,47.6z M382.6,44.6c-0.9,0-1.7-0.8-1.7-1.7c0-0.9,0.8-1.7,1.7-1.7c0.9,0,1.7,0.8,1.7,1.7
			S383.5,44.6,382.6,44.6z"/>
	</g>
	<g>
		<path fill="#FFFFFF" d="M32.9,57.4C32,57.8,31,58,30,58.2c1-0.6,1.8-1.6,2.2-2.8c-1,0.6-2.1,1-3.2,1.2c-0.9-1-2.2-1.6-3.7-1.6
			c-2.8,0-5,2.3-5,5c0,0.4,0,0.8,0.1,1.2C16.2,61,12.5,59,10,55.9c-0.4,0.7-0.7,1.6-0.7,2.5c0,1.8,0.9,3.3,2.2,4.2
			c-0.8,0-1.6-0.3-2.3-0.6c0,0,0,0,0,0.1c0,2.4,1.7,4.5,4.1,5c-0.4,0.1-0.9,0.2-1.3,0.2c-0.3,0-0.6,0-0.9-0.1c0.6,2,2.5,3.5,4.7,3.5
			c-1.7,1.4-3.9,2.2-6.3,2.2c-0.4,0-0.8,0-1.2-0.1c2.2,1.4,4.9,2.3,7.7,2.3c9.3,0,14.4-7.7,14.4-14.4c0-0.2,0-0.4,0-0.7
			C31.4,59.3,32.2,58.4,32.9,57.4L32.9,57.4z"/>
	</g>
	<g>
		<path fill="#FFFFFF" d="M43.3,55c-5.5,0-10,4.5-10,10c0,4.2,2.6,7.9,6.4,9.3c-0.1-0.8-0.2-2,0-2.9c0.2-0.8,1.2-5,1.2-5
			s-0.3-0.6-0.3-1.5c0-1.4,0.8-2.4,1.8-2.4c0.9,0,1.3,0.6,1.3,1.4c0,0.9-0.5,2.1-0.8,3.3c-0.2,1,0.5,1.8,1.5,1.8
			c1.8,0,3.1-1.9,3.1-4.6c0-2.4-1.7-4.1-4.2-4.1c-2.8,0-4.5,2.1-4.5,4.3c0,0.9,0.3,1.8,0.7,2.3c0.1,0.1,0.1,0.2,0.1,0.3
			c-0.1,0.3-0.2,1-0.3,1.1c0,0.2-0.1,0.2-0.3,0.1c-1.2-0.6-2-2.4-2-3.9c0-3.2,2.3-6.1,6.6-6.1c3.5,0,6.2,2.5,6.2,5.8
			c0,3.5-2.2,6.2-5.2,6.2c-1,0-2-0.5-2.3-1.1c0,0-0.5,1.9-0.6,2.4c-0.2,0.9-0.8,2-1.2,2.6c0.9,0.3,1.9,0.4,3,0.4c5.5,0,10-4.5,10-10
			S48.8,55,43.3,55z"/>
	</g>
	<g>
		<g>
			<path d="M573.5,183.2c0-1.7-1.3-3-3-3c-0.8,0-1.5,0.3-2.1,0.8c-2-1.4-4.8-2.3-7.9-2.5l1.4-6.3l4.5,0.9c0.1,1.1,1,2,2.1,2
				c1.1,0,2.1-0.9,2.1-2.1s-0.9-2.1-2.1-2.1c-0.8,0-1.6,0.5-1.9,1.2l-4.5-0.9l-1-0.2l-0.2,1l-1.4,6.5c0,0,0,0,0,0
				c-3.2,0.1-6,1-8.1,2.5c-0.5-0.5-1.3-0.9-2.1-0.9c-1.7,0-3,1.3-3,3c0,1.2,0.7,2.2,1.7,2.7c0,0.3-0.1,0.6-0.1,0.9
				c0,4.5,5.4,8.2,12,8.2s12-3.7,12-8.2c0-0.3,0-0.6-0.1-0.9C572.8,185.4,573.5,184.4,573.5,183.2z M553.2,185.3c0-1.1,0.9-2,2-2
				c1.1,0,2,0.9,2,2c0,1.1-0.9,2-2,2C554.1,187.3,553.2,186.4,553.2,185.3z M564.9,190.9c-0.1,0.1-1.7,1.6-5,1.6
				c-3.3,0-4.9-1.5-4.9-1.6c-0.2-0.2-0.2-0.5,0.1-0.7c0.2-0.2,0.5-0.2,0.7,0.1c0,0,1.4,1.2,4.1,1.2c2.8,0,4.3-1.2,4.3-1.2
				c0.2-0.2,0.5-0.2,0.7,0C565.1,190.3,565.1,190.7,564.9,190.9z M564.6,187.3c-1.1,0-2-0.9-2-2c0-1.1,0.9-2,2-2c1.1,0,2,0.9,2,2
				C566.6,186.4,565.7,187.3,564.6,187.3z"/>
		</g>
	</g>
	<g>
		<g>
			<path fill="#FFC627" d="M573.5,208.2c0-1.7-1.3-3-3-3c-0.8,0-1.5,0.3-2.1,0.8c-2-1.4-4.8-2.3-7.9-2.5l1.4-6.3l4.5,0.9
				c0.1,1.1,1,2,2.1,2c1.1,0,2.1-0.9,2.1-2.1s-0.9-2.1-2.1-2.1c-0.8,0-1.6,0.5-1.9,1.2l-4.5-0.9l-1-0.2l-0.2,1l-1.4,6.5c0,0,0,0,0,0
				c-3.2,0.1-6,1-8.1,2.5c-0.5-0.5-1.3-0.9-2.1-0.9c-1.7,0-3,1.3-3,3c0,1.2,0.7,2.2,1.7,2.7c0,0.3-0.1,0.6-0.1,0.9
				c0,4.5,5.4,8.2,12,8.2s12-3.7,12-8.2c0-0.3,0-0.6-0.1-0.9C572.8,210.4,573.5,209.4,573.5,208.2z M553.2,210.3c0-1.1,0.9-2,2-2
				c1.1,0,2,0.9,2,2c0,1.1-0.9,2-2,2C554.1,212.3,553.2,211.4,553.2,210.3z M564.9,215.9c-0.1,0.1-1.7,1.6-5,1.6
				c-3.3,0-4.9-1.5-4.9-1.6c-0.2-0.2-0.2-0.5,0.1-0.7c0.2-0.2,0.5-0.2,0.7,0.1c0,0,1.4,1.2,4.1,1.2c2.8,0,4.3-1.2,4.3-1.2
				c0.2-0.2,0.5-0.2,0.7,0C565.1,215.3,565.1,215.7,564.9,215.9z M564.6,212.3c-1.1,0-2-0.9-2-2c0-1.1,0.9-2,2-2c1.1,0,2,0.9,2,2
				C566.6,211.4,565.7,212.3,564.6,212.3z"/>
		</g>
	</g>
	<g>
		<g>
			<path fill="#FFFFFF" d="M573.5,233.2c0-1.7-1.3-3-3-3c-0.8,0-1.5,0.3-2.1,0.8c-2-1.4-4.8-2.3-7.9-2.5l1.4-6.3l4.5,0.9
				c0.1,1.1,1,2,2.1,2c1.1,0,2.1-0.9,2.1-2.1s-0.9-2.1-2.1-2.1c-0.8,0-1.6,0.5-1.9,1.2l-4.5-0.9l-1-0.2l-0.2,1l-1.4,6.5c0,0,0,0,0,0
				c-3.2,0.1-6,1-8.1,2.5c-0.5-0.5-1.3-0.9-2.1-0.9c-1.7,0-3,1.3-3,3c0,1.2,0.7,2.2,1.7,2.7c0,0.3-0.1,0.6-0.1,0.9
				c0,4.5,5.4,8.2,12,8.2s12-3.7,12-8.2c0-0.3,0-0.6-0.1-0.9C572.8,235.4,573.5,234.4,573.5,233.2z M553.2,235.3c0-1.1,0.9-2,2-2
				c1.1,0,2,0.9,2,2c0,1.1-0.9,2-2,2C554.1,237.3,553.2,236.4,553.2,235.3z M564.9,240.9c-0.1,0.1-1.7,1.6-5,1.6
				c-3.3,0-4.9-1.5-4.9-1.6c-0.2-0.2-0.2-0.5,0.1-0.7c0.2-0.2,0.5-0.2,0.7,0.1c0,0,1.4,1.2,4.1,1.2c2.8,0,4.3-1.2,4.3-1.2
				c0.2-0.2,0.5-0.2,0.7,0C565.1,240.3,565.1,240.7,564.9,240.9z M564.6,237.3c-1.1,0-2-0.9-2-2c0-1.1,0.9-2,2-2c1.1,0,2,0.9,2,2
				C566.6,236.4,565.7,237.3,564.6,237.3z"/>
		</g>
	</g>
</g>
</svg>
